#N canvas 0 23 450 300 10;
#X obj -849 -276 time;
#X obj -851 -233 +;
#X obj -841 -203 +;
#X obj -857 -157 +;
#X obj -849 -338 loadbang;
#X obj -849 -307 t b b;
#X obj -896 -123 pack s f;
#X msg -896 -150 seed;
#X obj -897 -40 print;
#X msg -896 -96 \$1 \$2;
#X obj -896 -68 random 100;
#X obj -920 -95 bng 15 250 50 0 empty empty empty 17 7 0 10 -262144
-1 -1;
#X connect 0 0 1 0;
#X connect 0 1 2 0;
#X connect 0 2 1 1;
#X connect 0 3 2 1;
#X connect 1 0 3 0;
#X connect 2 0 3 1;
#X connect 3 0 6 1;
#X connect 4 0 5 0;
#X connect 5 0 7 0;
#X connect 5 1 0 0;
#X connect 6 0 9 0;
#X connect 6 0 11 0;
#X connect 7 0 6 0;
#X connect 9 0 10 0;
#X connect 10 0 8 0;
#X connect 11 0 10 0;
