#N canvas 101 22 1171 634 12;
#X declare -lib mrpeach;
#X obj 481 74 tgl 15 0 empty empty empty 17 7 0 10 -262144 -1 -1 1
1;
#X obj 481 127 bng 15 250 50 0 empty empty empty 17 7 0 10 -262144
-1 -1;
#X obj 306 373 dac~;
#X obj 306 241 *~;
#X obj 481 147 t b b;
#X obj 481 247 line~;
#X obj 481 101 metro 500;
#N canvas 81 22 1157 658 midi 0;
#X obj 66 210 ctlin 1 1;
#X text 265 176 Sliders In;
#X obj 65 246 maxlib/scale 0 127 0 1;
#X obj 124 293 maxlib/scale 0 127 0 1;
#X obj 193 266 maxlib/scale 0 127 0 1;
#X obj 256 276 maxlib/scale 0 127 0 1;
#X obj 318 286 maxlib/scale 0 127 0 1;
#X obj 381 296 maxlib/scale 0 127 0 1;
#X obj 446 306 maxlib/scale 0 127 0 1;
#X obj 506 316 maxlib/scale 0 127 0 1;
#X obj 129 367 s k1s2;
#X obj 193 367 s k1s3;
#X obj 256 367 s k1s4;
#X obj 318 367 s k1s5;
#X obj 381 367 s k1s6;
#X obj 446 367 s k1s7;
#X obj 506 367 s k1s8;
#X obj 254 506 maxlib/scale 0 127 0 1;
#X obj 316 516 maxlib/scale 0 127 0 1;
#X obj 379 526 maxlib/scale 0 127 0 1;
#X obj 444 536 maxlib/scale 0 127 0 1;
#X obj 504 546 maxlib/scale 0 127 0 1;
#X text 264 405 Knobs In;
#X obj 254 597 s k1k4;
#X obj 316 597 s k1k5;
#X obj 379 597 s k1k6;
#X obj 444 597 s k1k7;
#X obj 504 597 s k1k8;
#X obj 973 257 s k1b6;
#X obj 1035 257 s k1b7;
#X obj 1099 257 s k1b8;
#X text 875 179 Button Bank 1;
#X text 879 320 Button Bank 2;
#X obj 657 397 s k1b9;
#X obj 720 397 s k1b10;
#X obj 784 397 s k1b11;
#X obj 846 397 s k1b12;
#X obj 909 397 s k1b13;
#X obj 973 397 s k1b14;
#X obj 1035 397 s k1b15;
#X obj 1099 397 s k1b16;
#X obj 636 232 bng 15 250 50 0 empty empty empty 17 7 0 10 -262144
-1 -1;
#X obj 657 210 ctlin 21 1;
#X obj 129 210 ctlin 2 1;
#X obj 193 210 ctlin 3 1;
#X obj 255 210 ctlin 4 1;
#X obj 318 210 ctlin 5 1;
#X obj 382 210 ctlin 6 1;
#X obj 444 210 ctlin 7 1;
#X obj 508 210 ctlin 8 1;
#X obj 64 440 ctlin 11 1;
#X obj 127 440 ctlin 12 1;
#X obj 191 440 ctlin 13 1;
#X obj 253 440 ctlin 14 1;
#X obj 316 440 ctlin 15 1;
#X obj 380 440 ctlin 16 1;
#X obj 442 440 ctlin 17 1;
#X obj 506 440 ctlin 18 1;
#X obj 720 210 ctlin 22 1;
#X obj 784 210 ctlin 23 1;
#X obj 846 210 ctlin 24 1;
#X obj 909 210 ctlin 25 1;
#X obj 973 210 ctlin 26 1;
#X obj 1035 210 ctlin 27 1;
#X obj 1103 210 ctlin 28 1;
#X obj 657 350 ctlin 31 1;
#X obj 721 350 ctlin 32 1;
#X obj 784 350 ctlin 33 1;
#X obj 846 350 ctlin 34 1;
#X obj 909 350 ctlin 35 1;
#X obj 973 350 ctlin 36 1;
#X obj 1035 350 ctlin 37 1;
#X obj 1099 350 ctlin 38 1;
#X obj 65 503 maxlib/scale 0 127 0 500;
#X obj 126 529 maxlib/scale 0 127 0 200;
#X obj 191 482 maxlib/scale 0 127 200 3000;
#X obj 65 367 s s1;
#X obj 63 597 s k1;
#X obj 127 597 s k2;
#X obj 191 597 s k3;
#X obj 657 257 s b1;
#X obj 720 257 s b2;
#X obj 784 257 s b3;
#X obj 846 257 s b4;
#X obj 909 257 s b5;
#X connect 0 0 2 0;
#X connect 2 0 76 0;
#X connect 3 0 10 0;
#X connect 4 0 11 0;
#X connect 5 0 12 0;
#X connect 6 0 13 0;
#X connect 7 0 14 0;
#X connect 8 0 15 0;
#X connect 9 0 16 0;
#X connect 17 0 23 0;
#X connect 18 0 24 0;
#X connect 19 0 25 0;
#X connect 20 0 26 0;
#X connect 21 0 27 0;
#X connect 42 0 41 0;
#X connect 42 0 80 0;
#X connect 43 0 3 0;
#X connect 44 0 4 0;
#X connect 45 0 5 0;
#X connect 46 0 6 0;
#X connect 47 0 7 0;
#X connect 48 0 8 0;
#X connect 49 0 9 0;
#X connect 50 0 73 0;
#X connect 51 0 74 0;
#X connect 52 0 75 0;
#X connect 53 0 17 0;
#X connect 54 0 18 0;
#X connect 55 0 19 0;
#X connect 56 0 20 0;
#X connect 57 0 21 0;
#X connect 58 0 81 0;
#X connect 59 0 82 0;
#X connect 60 0 83 0;
#X connect 61 0 84 0;
#X connect 62 0 28 0;
#X connect 63 0 29 0;
#X connect 64 0 30 0;
#X connect 65 0 33 0;
#X connect 66 0 34 0;
#X connect 67 0 35 0;
#X connect 68 0 36 0;
#X connect 69 0 37 0;
#X connect 70 0 38 0;
#X connect 71 0 39 0;
#X connect 72 0 40 0;
#X connect 73 0 77 0;
#X connect 74 0 78 0;
#X connect 75 0 79 0;
#X restore 656 -164 pd midi;
#X obj 520 -195 loadbang;
#X obj 584 -195 s lb;
#X obj 520 -217 bng 15 250 50 0 empty empty empty 17 7 0 10 -262144
-1 -1;
#X obj 520 -165 delay 2000;
#X msg 520 -133 \; pd dsp 1 \;;
#X floatatom 306 173 5 60 440 0 - - -;
#X obj 306 209 osc~;
#X obj 617 31 random 3000;
#X obj 579 -26 r lb;
#X obj 442 -13 hsl 128 15 200 2000 0 0 empty empty empty -2 -8 0 10
-262144 -1 -1 0 1;
#X obj 617 5 bng 15 250 50 0 empty empty empty 17 7 0 10 -262144 -1
-1;
#X obj 481 175 del 50;
#X msg 583 127 set 0 \$1;
#X obj 133 -105 random 8;
#X obj 120 -59 select 0 1 2 3 4 5 6 7 8;
#X obj 133 -156 bng 15 250 50 0 empty empty empty 17 7 0 10 -262144
-1 -1;
#X obj 306 320 *~;
#X obj 390 198 osc~;
#X obj 306 280 *~;
#X obj 259 178 mtof;
#X msg 120 -26 51;
#X msg 138 -5 54;
#X msg 156 14 56;
#X msg 175 34 58;
#X msg 193 54 61;
#X msg 211 74 63;
#X msg 230 94 66;
#X msg 248 116 68;
#X msg 266 141 70;
#X obj 595 71 maxlib/scale 0 3000 200 3000;
#X obj 89 -184 r lb;
#X msg 481 198 0 2281.33;
#X msg 537 197 0.5 70;
#X obj 443 27 r lb;
#X obj 380 255 *~;
#N canvas 477 148 736 594 osc 0;
#X obj -100 135 unpackOSC;
#X obj -197 110 import mrpeach;
#X floatatom -100 179 5 0 0 0 - - -;
#X obj -100 158 routeOSC /s1 /s2 /s3 /s4 /s5 /s6 /s7 /s8 /s9;
#X obj -100 199 s s1;
#X floatatom -66 179 5 0 0 0 - - -;
#X obj -66 199 s s2;
#X floatatom -30 179 5 0 0 0 - - -;
#X floatatom 4 179 5 0 0 0 - - -;
#X obj -30 199 s s3;
#X obj 4 199 s s4;
#X floatatom 40 180 5 0 0 0 - - -;
#X floatatom 74 180 5 0 0 0 - - -;
#X floatatom 110 180 5 0 0 0 - - -;
#X floatatom 144 180 5 0 0 0 - - -;
#X obj 40 200 s s5;
#X obj 74 200 s s6;
#X obj 110 200 s s7;
#X obj 144 200 s s8;
#X floatatom 180 180 5 0 0 0 - - -;
#X obj 180 200 s s9;
#X floatatom -122 248 5 0 0 0 - - -;
#X floatatom -88 248 5 0 0 0 - - -;
#X floatatom -52 248 5 0 0 0 - - -;
#X floatatom -18 248 5 0 0 0 - - -;
#X floatatom 18 249 5 0 0 0 - - -;
#X floatatom 52 249 5 0 0 0 - - -;
#X floatatom 88 249 5 0 0 0 - - -;
#X floatatom 122 249 5 0 0 0 - - -;
#X floatatom 158 249 5 0 0 0 - - -;
#X obj -122 227 routeOSC /k1 /k2 /k3 /k4 /k5 /k6 /k7 /k8 /k9;
#X obj -122 268 s k1;
#X obj -88 268 s k2;
#X obj -52 268 s k3;
#X obj -18 268 s k4;
#X obj 18 269 s k5;
#X obj 52 269 s k6;
#X obj 88 269 s k7;
#X obj 122 269 s k8;
#X obj 158 269 s k9;
#X obj -151 298 routeOSC /b1 /b2 /b3 /b4 /b5 /b6 /b7 /b8 /b9;
#X obj -151 339 s b1;
#X obj -151 319 bng 15 250 50 0 empty empty empty 17 7 0 10 -262144
-1 -1;
#X obj -118 319 bng 15 250 50 0 empty empty empty 17 7 0 10 -262144
-1 -1;
#X obj -86 319 bng 15 250 50 0 empty empty empty 17 7 0 10 -262144
-1 -1;
#X obj -55 319 bng 15 250 50 0 empty empty empty 17 7 0 10 -262144
-1 -1;
#X obj -22 319 bng 15 250 50 0 empty empty empty 17 7 0 10 -262144
-1 -1;
#X obj 10 319 bng 15 250 50 0 empty empty empty 17 7 0 10 -262144 -1
-1;
#X obj 43 318 bng 15 250 50 0 empty empty empty 17 7 0 10 -262144 -1
-1;
#X obj 76 318 bng 15 250 50 0 empty empty empty 17 7 0 10 -262144 -1
-1;
#X obj 108 318 bng 15 250 50 0 empty empty empty 17 7 0 10 -262144
-1 -1;
#X obj -118 339 s b2;
#X obj -86 339 s b3;
#X obj -55 339 s b4;
#X obj -22 339 s b5;
#X obj 10 339 s b6;
#X obj 43 338 s b7;
#X obj 76 338 s b8;
#X obj 108 338 s b9;
#X text -151 157 SLIDERS;
#X text -161 229 KNOBS;
#X text -197 301 BUTTONS;
#X text 134 113 <-- Change the IP Address to your laptop's IP address
;
#X obj -89 110 udpreceive 3001;
#X connect 0 0 3 0;
#X connect 0 0 30 0;
#X connect 0 0 40 0;
#X connect 2 0 4 0;
#X connect 3 0 2 0;
#X connect 3 1 5 0;
#X connect 3 2 7 0;
#X connect 3 3 8 0;
#X connect 3 4 11 0;
#X connect 3 5 12 0;
#X connect 3 6 13 0;
#X connect 3 7 14 0;
#X connect 3 8 19 0;
#X connect 5 0 6 0;
#X connect 7 0 9 0;
#X connect 8 0 10 0;
#X connect 11 0 15 0;
#X connect 12 0 16 0;
#X connect 13 0 17 0;
#X connect 14 0 18 0;
#X connect 19 0 20 0;
#X connect 21 0 31 0;
#X connect 22 0 32 0;
#X connect 23 0 33 0;
#X connect 24 0 34 0;
#X connect 25 0 35 0;
#X connect 26 0 36 0;
#X connect 27 0 37 0;
#X connect 28 0 38 0;
#X connect 29 0 39 0;
#X connect 30 0 21 0;
#X connect 30 1 22 0;
#X connect 30 2 23 0;
#X connect 30 3 24 0;
#X connect 30 4 25 0;
#X connect 30 5 26 0;
#X connect 30 6 27 0;
#X connect 30 7 28 0;
#X connect 30 8 29 0;
#X connect 40 0 42 0;
#X connect 40 1 43 0;
#X connect 40 2 44 0;
#X connect 40 3 45 0;
#X connect 40 4 46 0;
#X connect 40 5 47 0;
#X connect 40 6 48 0;
#X connect 40 7 49 0;
#X connect 40 8 50 0;
#X connect 42 0 41 0;
#X connect 43 0 51 0;
#X connect 44 0 52 0;
#X connect 45 0 53 0;
#X connect 46 0 54 0;
#X connect 47 0 55 0;
#X connect 48 0 56 0;
#X connect 49 0 57 0;
#X connect 50 0 58 0;
#X connect 63 0 0 0;
#X restore 659 -133 pd osc;
#X obj 541 -100 r k3;
#X obj 306 3 r k1;
#X obj 166 175 r s1;
#X obj 617 -25 r b1;
#X obj 133 -188 r b2;
#X obj 344 97 r k2;
#X obj 541 -50 maxlib/scale 0 1 200 3000;
#X obj 306 74 maxlib/scale 0 1 0 500;
#X obj 311 148 maxlib/scale 0 1 0 200;
#X connect 0 0 6 0;
#X connect 1 0 4 0;
#X connect 3 0 26 0;
#X connect 4 0 19 0;
#X connect 4 1 40 0;
#X connect 5 0 3 1;
#X connect 6 0 1 0;
#X connect 8 0 9 0;
#X connect 8 0 11 0;
#X connect 10 0 8 0;
#X connect 11 0 12 0;
#X connect 13 0 14 0;
#X connect 14 0 3 0;
#X connect 15 0 37 0;
#X connect 16 0 18 0;
#X connect 17 0 6 1;
#X connect 18 0 15 0;
#X connect 19 0 39 0;
#X connect 20 0 39 0;
#X connect 21 0 22 0;
#X connect 22 0 28 0;
#X connect 22 1 29 0;
#X connect 22 2 30 0;
#X connect 22 3 31 0;
#X connect 22 4 32 0;
#X connect 22 5 33 0;
#X connect 22 6 34 0;
#X connect 22 7 35 0;
#X connect 22 8 36 0;
#X connect 23 0 21 0;
#X connect 24 0 2 0;
#X connect 24 0 2 1;
#X connect 25 0 42 0;
#X connect 26 0 24 0;
#X connect 27 0 14 0;
#X connect 28 0 27 0;
#X connect 29 0 27 0;
#X connect 30 0 27 0;
#X connect 31 0 27 0;
#X connect 32 0 27 0;
#X connect 33 0 27 0;
#X connect 34 0 27 0;
#X connect 35 0 27 0;
#X connect 36 0 27 0;
#X connect 37 0 6 1;
#X connect 37 0 20 0;
#X connect 38 0 23 0;
#X connect 39 0 5 0;
#X connect 40 0 5 0;
#X connect 41 0 0 0;
#X connect 42 0 26 1;
#X connect 44 0 50 0;
#X connect 45 0 51 0;
#X connect 46 0 42 1;
#X connect 46 0 24 1;
#X connect 47 0 18 0;
#X connect 48 0 23 0;
#X connect 49 0 52 0;
#X connect 50 0 6 1;
#X connect 50 0 20 0;
#X connect 51 0 13 0;
#X connect 52 0 25 0;
