#N canvas 62 177 1047 403 10;
#X declare -lib mrpeach;
#X obj 340 36 ctlin 1;
#X obj 12 54 udpsend;
#X obj 340 57 / 127;
#X obj 12 33 packOSC;
#X obj 14 -14 import mrpeach;
#X obj 340 77 prepend /s1;
#X obj 413 57 / 127;
#X obj 413 36 ctlin 2;
#X obj 413 77 prepend /s2;
#X obj 340 99 s data;
#X obj 12 13 r data;
#X obj 413 99 s data;
#X obj 486 57 / 127;
#X obj 559 57 / 127;
#X obj 486 99 s data;
#X obj 559 99 s data;
#X obj 486 77 prepend /s3;
#X obj 559 77 prepend /s4;
#X obj 486 36 ctlin 3;
#X obj 559 36 ctlin 4;
#X obj 633 57 / 127;
#X obj 706 57 / 127;
#X obj 633 99 s data;
#X obj 706 99 s data;
#X obj 779 57 / 127;
#X obj 852 57 / 127;
#X obj 779 99 s data;
#X obj 852 99 s data;
#X obj 633 36 ctlin 5;
#X obj 706 36 ctlin 6;
#X obj 779 36 ctlin 7;
#X obj 852 36 ctlin 8;
#X obj 633 77 prepend /s5;
#X obj 706 77 prepend /s6;
#X obj 779 77 prepend /s7;
#X obj 852 77 prepend /s8;
#X obj 925 57 / 127;
#X obj 925 99 s data;
#X obj 925 36 ctlin 9;
#X obj 925 77 prepend /s9;
#X text 253 -15 <-- Change the IP Address to your Pi;
#X text 282 36 SLIDERS;
#X obj 339 163 / 127;
#X obj 412 163 / 127;
#X obj 339 205 s data;
#X obj 412 205 s data;
#X obj 485 163 / 127;
#X obj 558 163 / 127;
#X obj 485 205 s data;
#X obj 558 205 s data;
#X obj 632 163 / 127;
#X obj 705 163 / 127;
#X obj 632 205 s data;
#X obj 705 205 s data;
#X obj 778 163 / 127;
#X obj 851 163 / 127;
#X obj 778 205 s data;
#X obj 851 205 s data;
#X obj 924 163 / 127;
#X obj 924 205 s data;
#X obj 339 142 ctlin 11;
#X obj 412 142 ctlin 12;
#X obj 485 142 ctlin 13;
#X obj 558 142 ctlin 14;
#X obj 632 142 ctlin 15;
#X obj 705 142 ctlin 16;
#X obj 778 142 ctlin 17;
#X obj 851 142 ctlin 18;
#X obj 924 142 ctlin 19;
#X obj 339 183 prepend /k1;
#X obj 412 183 prepend /k2;
#X obj 485 183 prepend /k3;
#X obj 558 183 prepend /k4;
#X obj 632 183 prepend /k5;
#X obj 705 183 prepend /k6;
#X obj 778 183 prepend /k7;
#X obj 851 183 prepend /k8;
#X obj 924 183 prepend /k9;
#X text 281 142 KNOBS;
#X obj 339 305 s data;
#X obj 412 305 s data;
#X obj 485 305 s data;
#X obj 558 305 s data;
#X obj 632 305 s data;
#X obj 705 305 s data;
#X obj 778 305 s data;
#X obj 851 305 s data;
#X obj 924 305 s data;
#X text 281 242 BUTTONS;
#X obj 339 242 ctlin 21;
#X obj 412 242 ctlin 22;
#X obj 485 242 ctlin 23;
#X obj 558 242 ctlin 24;
#X obj 632 242 ctlin 25;
#X obj 705 242 ctlin 26;
#X obj 778 242 ctlin 27;
#X obj 851 242 ctlin 28;
#X obj 924 242 ctlin 29;
#X obj 339 283 prepend /b1;
#X obj 412 283 prepend /b2;
#X obj 485 283 prepend /b3;
#X obj 558 283 prepend /b4;
#X obj 632 283 prepend /b5;
#X obj 705 283 prepend /b6;
#X obj 778 283 prepend /b7;
#X obj 851 283 prepend /b8;
#X obj 924 283 prepend /b9;
#X obj 338 263 b;
#X obj 412 263 b;
#X obj 485 263 b;
#X obj 558 263 b;
#X obj 632 263 b;
#X obj 705 263 b;
#X obj 778 263 b;
#X obj 851 263 b;
#X obj 924 263 b;
#X msg 109 -14 connect 10.0.1.101 3001;
#X connect 0 0 2 0;
#X connect 2 0 5 0;
#X connect 3 0 1 0;
#X connect 5 0 9 0;
#X connect 6 0 8 0;
#X connect 7 0 6 0;
#X connect 8 0 11 0;
#X connect 10 0 3 0;
#X connect 12 0 16 0;
#X connect 13 0 17 0;
#X connect 16 0 14 0;
#X connect 17 0 15 0;
#X connect 18 0 12 0;
#X connect 19 0 13 0;
#X connect 20 0 32 0;
#X connect 21 0 33 0;
#X connect 24 0 34 0;
#X connect 25 0 35 0;
#X connect 28 0 20 0;
#X connect 29 0 21 0;
#X connect 30 0 24 0;
#X connect 31 0 25 0;
#X connect 32 0 22 0;
#X connect 33 0 23 0;
#X connect 34 0 26 0;
#X connect 35 0 27 0;
#X connect 36 0 39 0;
#X connect 38 0 36 0;
#X connect 39 0 37 0;
#X connect 42 0 69 0;
#X connect 43 0 70 0;
#X connect 46 0 71 0;
#X connect 47 0 72 0;
#X connect 50 0 73 0;
#X connect 51 0 74 0;
#X connect 54 0 75 0;
#X connect 55 0 76 0;
#X connect 58 0 77 0;
#X connect 60 0 42 0;
#X connect 61 0 43 0;
#X connect 62 0 46 0;
#X connect 63 0 47 0;
#X connect 64 0 50 0;
#X connect 65 0 51 0;
#X connect 66 0 54 0;
#X connect 67 0 55 0;
#X connect 68 0 58 0;
#X connect 69 0 44 0;
#X connect 70 0 45 0;
#X connect 71 0 48 0;
#X connect 72 0 49 0;
#X connect 73 0 52 0;
#X connect 74 0 53 0;
#X connect 75 0 56 0;
#X connect 76 0 57 0;
#X connect 77 0 59 0;
#X connect 89 0 107 0;
#X connect 90 0 108 0;
#X connect 91 0 109 0;
#X connect 92 0 110 0;
#X connect 93 0 111 0;
#X connect 94 0 112 0;
#X connect 95 0 113 0;
#X connect 96 0 114 0;
#X connect 97 0 115 0;
#X connect 98 0 79 0;
#X connect 99 0 80 0;
#X connect 100 0 81 0;
#X connect 101 0 82 0;
#X connect 102 0 83 0;
#X connect 103 0 84 0;
#X connect 104 0 85 0;
#X connect 105 0 86 0;
#X connect 106 0 87 0;
#X connect 107 0 98 0;
#X connect 108 0 99 0;
#X connect 109 0 100 0;
#X connect 110 0 101 0;
#X connect 111 0 102 0;
#X connect 112 0 103 0;
#X connect 113 0 104 0;
#X connect 114 0 105 0;
#X connect 115 0 106 0;
#X connect 116 0 1 0;
