#N canvas 450 23 972 843 10;
#X declare -lib mrpeach;
#X obj -712 -117 osc~;
#X obj -289 -80 osc~;
#X obj -142 -97 osc~;
#X obj -285 -245 *~ 3;
#X obj -138 -262 *~ 4;
#X obj -459 -82 osc~;
#X obj -442 -157 *~ 2;
#X obj -467 -169 + 1;
#X obj -459 -106 *~;
#X obj -307 -172 + 1;
#X obj -299 -109 *~;
#X obj -150 -187 + 1;
#X obj -142 -124 *~;
#X obj -741 -147 *~ 1;
#X obj -194 -417 r k1;
#X obj -454 -220 r k2;
#X obj -307 -225 r k3;
#X obj -150 -242 r k4;
#X obj -569 -175 r s1;
#X obj -40 306 *~;
#X obj 4 306 *~;
#X obj 48 306 *~;
#X obj 92 306 *~;
#X obj -117 123 r b1;
#X obj -29 125 r b2;
#X obj 70 124 r b3;
#X obj 159 128 r b4;
#X obj -447 -132 s f2;
#X obj -285 -136 s f3;
#X obj -127 -152 s f4;
#X obj 67 151 bng 15 250 50 0 empty empty empty 17 7 0 10 -262144 -1
-1;
#X msg 84 196 0 2500;
#X obj 71 222 line~;
#X obj 157 151 bng 15 250 50 0 empty empty empty 17 7 0 10 -262144
-1 -1;
#X msg 174 196 0 2500;
#X obj 161 222 line~;
#X obj -118 151 bng 15 250 50 0 empty empty empty 17 7 0 10 -262144
-1 -1;
#X obj -114 222 line~;
#X obj -28 151 bng 15 250 50 0 empty empty empty 17 7 0 10 -262144
-1 -1;
#X msg -11 196 0 2500;
#X obj -24 222 line~;
#X msg -145 196 0.7 600;
#X msg -101 196 0 2500;
#X obj -100 176 delay 600;
#X msg -55 196 0.7 600;
#X obj -10 176 delay 600;
#X msg 40 196 0.7 600;
#X obj 85 176 delay 600;
#X msg 130 196 0.7 600;
#X obj 175 176 delay 600;
#X obj -256 239 *~;
#X msg -207 193 0 2500;
#X obj -220 214 line~;
#X msg -241 193 1 10;
#X obj -206 173 delay 10;
#X obj -208 155 bng 15 250 50 0 empty empty empty 17 7 0 10 -262144
-1 -1;
#X obj -426 259 *~;
#X msg -377 213 0 2500;
#X obj -390 234 line~;
#X msg -411 213 1 10;
#X obj -376 193 delay 10;
#X obj -378 175 bng 15 250 50 0 empty empty empty 17 7 0 10 -262144
-1 -1;
#X obj -591 259 *~;
#X msg -542 213 0 2500;
#X obj -555 234 line~;
#X msg -576 213 1 10;
#X obj -541 193 delay 10;
#X obj -543 175 bng 15 250 50 0 empty empty empty 17 7 0 10 -262144
-1 -1;
#X obj -851 239 *~;
#X msg -802 193 0 2500;
#X obj -815 214 line~;
#X msg -836 193 1 10;
#X obj -801 173 delay 10;
#X obj -803 155 bng 15 250 50 0 empty empty empty 17 7 0 10 -262144
-1 -1;
#X obj -923 54 r b1;
#X obj -801 33 r b9;
#X obj -590 91 r b2;
#X obj -542 54 r b10;
#X obj -451 65 r b3;
#X obj -378 54 r b11;
#X obj -284 93 r b4;
#X obj -208 27 r b12;
#X obj -194 -310 +~;
#X obj -252 -411 osc~;
#X obj -194 -338 + 120;
#X obj -441 -460 print;
#X obj -305 -409 print;
#X obj -802 58 f;
#X obj -789 82 + 1;
#X obj -803 108 mod 2;
#X obj -802 133 select 1;
#X obj -542 78 f;
#X obj -529 102 + 1;
#X obj -543 128 mod 2;
#X obj -542 153 select 1;
#X obj -378 78 f;
#X obj -365 102 + 1;
#X obj -379 128 mod 2;
#X obj -378 153 select 1;
#X obj -208 53 f;
#X obj -195 77 + 1;
#X obj -209 103 mod 2;
#X obj -208 128 select 1;
#N canvas 0 200 730 552 overtoneSelector 0;
#X obj 190 -59 inlet;
#X obj 97 194 outlet;
#X obj 158 194 outlet;
#X obj 230 210 outlet;
#X obj 175 41 bng 15 250 50 0 empty empty empty 17 7 0 10 -262144 -1
-1;
#X obj 195 95 bng 15 250 50 0 empty empty empty 17 7 0 10 -262144 -1
-1;
#X obj 225 146 bng 15 250 50 0 empty empty empty 17 7 0 10 -262144
-1 -1;
#X obj 265 41 bng 15 250 50 0 empty empty empty 17 7 0 10 -262144 -1
-1;
#X obj 250 67 3;
#X obj 309 68 7;
#X obj 180 121 5;
#X obj 241 173 2;
#X obj 355 41 bng 15 250 50 0 empty empty empty 17 7 0 10 -262144 -1
-1;
#X obj 375 95 bng 15 250 50 0 empty empty empty 17 7 0 10 -262144 -1
-1;
#X obj 405 146 bng 15 250 50 0 empty empty empty 17 7 0 10 -262144
-1 -1;
#X obj 445 41 bng 15 250 50 0 empty empty empty 17 7 0 10 -262144 -1
-1;
#X obj 421 173 2;
#X obj 178 -25 mod 8;
#X obj 178 15 select 0 1 2 3 4 5 6 7;
#X obj 340 67 7;
#X obj 399 68 5;
#X obj 360 121 8;
#X obj 391 122 2;
#X obj 430 67 5;
#X obj 489 68 7;
#X obj 160 67 3;
#X obj 219 68 9;
#X obj 390 172 5.5;
#X obj 419 122 6.5;
#X obj 461 68 9.5;
#X obj 371 68 2.5;
#X obj 281 68 9.5;
#X obj 191 68 8.5;
#X obj 211 122 4.5;
#X obj 269 173 6.5;
#X obj 210 172 4.25;
#X obj 449 173 6.75;
#X obj 239 122 7;
#X connect 0 0 17 0;
#X connect 4 0 25 0;
#X connect 4 0 26 0;
#X connect 4 0 32 0;
#X connect 5 0 10 0;
#X connect 5 0 33 0;
#X connect 5 0 37 0;
#X connect 6 0 11 0;
#X connect 6 0 34 0;
#X connect 6 0 35 0;
#X connect 7 0 8 0;
#X connect 7 0 9 0;
#X connect 7 0 31 0;
#X connect 8 0 1 0;
#X connect 9 0 3 0;
#X connect 10 0 1 0;
#X connect 11 0 2 0;
#X connect 12 0 19 0;
#X connect 12 0 20 0;
#X connect 12 0 30 0;
#X connect 13 0 21 0;
#X connect 13 0 22 0;
#X connect 13 0 28 0;
#X connect 14 0 16 0;
#X connect 14 0 27 0;
#X connect 14 0 36 0;
#X connect 15 0 23 0;
#X connect 15 0 24 0;
#X connect 15 0 29 0;
#X connect 16 0 2 0;
#X connect 17 0 18 0;
#X connect 18 0 4 0;
#X connect 18 1 5 0;
#X connect 18 2 6 0;
#X connect 18 3 7 0;
#X connect 18 4 12 0;
#X connect 18 5 13 0;
#X connect 18 6 14 0;
#X connect 18 7 15 0;
#X connect 19 0 1 0;
#X connect 20 0 3 0;
#X connect 21 0 1 0;
#X connect 22 0 2 0;
#X connect 23 0 1 0;
#X connect 24 0 3 0;
#X connect 25 0 1 0;
#X connect 26 0 3 0;
#X connect 27 0 1 0;
#X connect 28 0 3 0;
#X connect 29 0 2 0;
#X connect 30 0 2 0;
#X connect 31 0 2 0;
#X connect 32 0 2 0;
#X connect 33 0 2 0;
#X connect 34 0 3 0;
#X connect 35 0 1 0;
#X connect 36 0 3 0;
#X connect 37 0 3 0;
#X restore -130 -306 pd overtoneSelector;
#N canvas 87 76 548 407 trueRandom100 0;
#X obj -470 -434 outlet;
#X obj -439 -736 time;
#X obj -441 -693 +;
#X obj -431 -663 +;
#X obj -447 -617 +;
#X obj -439 -798 loadbang;
#X obj -439 -767 t b b;
#X obj -448 -585 pack s f;
#X msg -486 -610 seed;
#X msg -467 -532 \$1 \$2;
#X obj -511 -507 bng 15 250 50 0 empty empty empty 17 7 0 10 -262144
-1 -1;
#X obj -467 -484 random 99;
#X obj -469 -459 + 1;
#X connect 1 0 2 0;
#X connect 1 1 3 0;
#X connect 1 2 2 1;
#X connect 1 3 3 1;
#X connect 2 0 4 0;
#X connect 3 0 4 1;
#X connect 4 0 7 1;
#X connect 5 0 6 0;
#X connect 6 0 8 0;
#X connect 6 1 1 0;
#X connect 7 0 9 0;
#X connect 8 0 7 0;
#X connect 9 0 10 0;
#X connect 9 0 11 0;
#X connect 10 0 11 0;
#X connect 11 0 12 0;
#X connect 12 0 0 0;
#X restore -284 -545 pd trueRandom100;
#X obj 12 -193 unpackOSC;
#X obj -85 -218 import mrpeach;
#X floatatom 103 -157 5 0 0 0 - - -;
#X obj 103 -137 s s1;
#X floatatom 137 -157 5 0 0 0 - - -;
#X obj 137 -137 s s2;
#X floatatom 173 -157 5 0 0 0 - - -;
#X floatatom 207 -157 5 0 0 0 - - -;
#X obj 173 -137 s s3;
#X obj 207 -137 s s4;
#X floatatom 243 -156 5 0 0 0 - - -;
#X floatatom 277 -156 5 0 0 0 - - -;
#X floatatom 313 -156 5 0 0 0 - - -;
#X floatatom 347 -156 5 0 0 0 - - -;
#X obj 243 -136 s s5;
#X obj 277 -136 s s6;
#X obj 313 -136 s s7;
#X obj 347 -136 s s8;
#X floatatom 81 -88 5 0 0 0 - - -;
#X floatatom 115 -88 5 0 0 0 - - -;
#X floatatom 151 -88 5 0 0 0 - - -;
#X floatatom 185 -88 5 0 0 0 - - -;
#X floatatom 221 -87 5 0 0 0 - - -;
#X floatatom 255 -87 5 0 0 0 - - -;
#X floatatom 291 -87 5 0 0 0 - - -;
#X floatatom 325 -87 5 0 0 0 - - -;
#X obj 81 -68 s k1;
#X obj 115 -68 s k2;
#X obj 151 -68 s k3;
#X obj 185 -68 s k4;
#X obj 221 -67 s k5;
#X obj 255 -67 s k6;
#X obj 291 -67 s k7;
#X obj 325 -67 s k8;
#X text 108 -233 <-- Change the IP Address to your laptop's IP address
;
#X obj 76 -16 s b2;
#X obj 108 -16 s b3;
#X obj 139 -16 s b4;
#X obj 172 -16 s b5;
#X obj 204 -16 s b6;
#X obj 237 -17 s b7;
#X obj 270 -17 s b8;
#X text 52 -179 SLIDERS;
#X text 42 -107 KNOBS;
#X text 6 -35 BUTTONS;
#X obj 13 -217 udpreceive 3001;
#X obj -65 -125 loadbang;
#X msg -65 -79 \; pd dsp 1 \;;
#X obj -8 -126 s lb;
#X obj -65 -102 delay 2000;
#X obj 44 -15 s b1;
#X obj 103 -178 routeOSC /s1 /s2 /s3 /s4 /s5 /s6 /s7 /s8;
#X obj 54 -42 routeOSC /b1 /b2 /b3 /b4 /b5 /b6 /b7 /b8;
#X obj 36 36 s b9;
#X obj 70 35 s b10;
#X obj 102 35 s b11;
#X obj 133 35 s b12;
#X obj 166 35 s b13;
#X obj 198 35 s b14;
#X obj 231 34 s b15;
#X obj 264 34 s b16;
#X obj 81 -109 routeOSC /k1 /k2 /k3 /k4 /k5 /k6 /k7 /k8;
#X obj 24 10 routeOSC /b10 /b11 /b12 /b13 /b14 /b15 /b16 /b17;
#X obj -266 -377 *~ 13;
#X obj -730 -70 clip~ \$1 \$2;
#X obj -699 -95 * -1;
#X obj -500 -12 clip~ \$1 \$2;
#X obj -469 -37 * -1;
#X obj -348 -8 clip~ \$1 \$2;
#X obj -317 -33 * -1;
#X obj -171 -29 clip~ \$1 \$2;
#X obj -140 -54 * -1;
#X obj -40 255 phasor~;
#X obj 4 255 phasor~;
#X obj 48 255 phasor~;
#X obj 92 255 phasor~;
#X obj -620 795 freeverb~;
#X obj -736 313 *~ 1.5;
#X obj -593 659 r s5;
#X msg -619 719 wet \$1;
#X msg -566 741 dry \$1;
#X obj -566 719 expr 1-$f1;
#X obj -481 654 r k5;
#X msg -481 718 roomsize \$1;
#X obj -36 351 *~;
#X obj 5 351 *~;
#X obj 47 351 *~;
#X obj 92 350 *~;
#X obj -25 328 r s1;
#X obj 106 330 r s4;
#X obj 61 326 r s3;
#X obj 10 326 r s2;
#X obj -150 -215 * 0.06;
#X obj -307 -198 * 0.06;
#X obj -467 -195 * 0.06;
#X obj -787 339 noise~;
#X obj -629 1044 dac~;
#X obj -468 744 r s8;
#X obj -478 771 *;
#X obj -770 361 r s7;
#X obj -770 409 *;
#X obj -485 801 / 3.5;
#X obj -392 -116 r s2;
#X obj -2 -341 loadbang;
#X obj 36 67 loadbang;
#X obj -720 358 r k7;
#X obj -600 -128 *;
#X obj -411 -57 *;
#X obj -259 -44 *;
#X obj -240 -103 r s3;
#X obj -110 12 *;
#X obj -91 -47 r s4;
#X obj 7 477 print;
#X obj -2 559 time;
#X obj -3 583 +;
#X obj 6 603 +;
#X obj -3 624 +;
#X obj -29 535 t b b;
#X obj -40 646 pack s f;
#X msg -38 624 seed;
#X msg -40 671 \$1 \$2;
#X obj -40 696 bng 15 250 50 0 empty empty empty 17 7 0 10 -262144
-1 -1;
#X obj 407 -171 r b8;
#X obj 262 141 print;
#X obj 392 713 delay 20000;
#X msg 406 734 20 seconds - slowly turn knob 7 down to 0%;
#X obj 397 753 delay 20000;
#X msg 411 774 (20 seconds) slowly bring down master fade to 0% to
end song...;
#X msg 398 807 delay 20000;
#X msg 398 830 We did it!!!!! Yay!!!!;
#X obj 34 382 *~ 0.26;
#X obj -723 384 *;
#X obj -722 410 * 10000;
#X obj -224 -436 / 25000;
#X obj 389 246 delay 15000;
#X obj 387 60 delay 20000;
#X obj -720 433 + 220;
#X obj -784 472 bp~ 200 0.7;
#X obj -481 696 + 0.85;
#X msg 400 420 (2 minutes) - GROUP IMPROV - do whatever you want but
keep in mind everyone else has the same freedom as you... try to go
places... Explore and Have Fun!!!;
#X msg 401 40 (20 seconds) - slowly move slider 7 up to 100%;
#X obj -40 718 random 16;
#X msg -22 761 (45 seconds) - move master fader to 90%...Take a Solo....
do whatever you want... your the star!!! When done soloing bring master
fade down to 60%;
#X msg 32 933 (45 seconds) - Try to Blend with ensemble using any controls
you have;
#X msg 89 1038 (45 seconds) - Play a rhythm with the first four buttons
(top and bottom);
#X msg 109 1075 (45 seconds) - have fun with bitcrushing... use the
6th knob to get crunchy... also use the fifth top button to freeze
the reverb;
#X msg 27 705 (45 seconds) - Only manipulate your knobs... try to support
ensemble;
#X msg 71 1001 (45 seconds) - Do whatever you want but DO NOT solo
-- support the group;
#X msg 10 866 (45 seconds) - Play using only using one slider (move
others to 0%) and the fifth slider and fifth knob;
#X obj -970 56 noise~;
#X obj -968 119 *~ 0.7;
#X obj -949 229 *~;
#X obj -652 86 noise~;
#X obj -641 188 bp~ 200 2;
#X obj -639 156 *~ 0.7;
#X obj -687 354 *~;
#X obj -493 85 noise~;
#X obj -482 187 bp~ 200 2;
#X obj -480 155 *~ 0.7;
#X obj -507 297 *~;
#X obj -315 115 noise~;
#X obj -304 217 bp~ 200 2;
#X obj -302 185 *~ 0.7;
#X obj -281 345 *~;
#X obj -599 65 *;
#X obj -427 93 *;
#X obj -251 116 *;
#X msg -908 189 0 2500;
#X obj -921 210 line~;
#X obj -907 169 delay 10;
#X msg -255 283 0 2500;
#X obj -268 304 line~;
#X msg -289 283 1 10;
#X obj -254 263 delay 10;
#X msg -470 236 0 2500;
#X obj -483 257 line~;
#X msg -504 236 1 10;
#X obj -469 216 delay 10;
#X msg -649 301 0 2500;
#X obj -662 322 line~;
#X msg -683 301 1 10;
#X obj -648 281 delay 10;
#X obj -923 101 bng 15 250 50 0 empty empty empty 17 7 0 10 -262144
-1 -1;
#X obj -672 256 bng 15 250 50 0 empty empty empty 17 7 0 10 -262144
-1 -1;
#X obj -488 210 bng 15 250 50 0 empty empty empty 17 7 0 10 -262144
-1 -1;
#X obj -283 244 bng 15 250 50 0 empty empty empty 17 7 0 10 -262144
-1 -1;
#X msg -942 189 1 10;
#X obj -959 158 bp~ 125 2;
#X msg -845 110 1 350;
#X msg -589 122 1 350;
#X msg -452 118 1 350;
#X msg -271 145 1 350;
#X obj -614 691 * 1.3;
#X obj 407 -127 == 2;
#X obj 408 -149 counter;
#X obj 401 -103 spigot;
#X obj -807 443 *~ 0;
#X obj -801 691 *~ 0.5;
#X obj 402 -61 delay 12000;
#X obj 402 -40 delay 18000;
#X obj -784 498 *~ 0.75;
#X obj -636 636 *~ 0.19;
#X obj -635 388 *~ 1;
#X obj -611 874 *~;
#X obj -618 419 /~;
#X obj -619 442 expr~ int($v1);
#X obj -619 473 *~;
#X obj -512 474 sig~;
#X obj -513 407 r k6;
#X obj -511 431 * 0.99;
#X obj -510 452 + 0.009;
#X msg 437 7 ......................................................................
Follow the directions when they print out \, UNLESS what you are playing
sounds good \, then KEEP ROCKING!!!....................................
;
#X obj -193 -391 * 10;
#X obj -563 492 r s6;
#X obj -561 542 osc~;
#X obj -583 566 *~;
#X obj -481 675 * 0.24;
#X msg -329 884 (46 seconds) - play the first four of the bottom row
buttons \, adjust your first four sliders and knobs if you want;
#X msg 57 966 (45 seconds) - Bring down your master volume slider and
Listen intently to ensemble... only move sliders down if you do anything
at all...;
#X obj -39 740 select 0 1 2 3 4 5 6 7 8 9 10 11 12 13 14 15 16 17 18
19 20;
#X obj 391 336 delay 40000;
#X obj 391 357 delay 40000;
#X obj 391 379 delay 40000;
#X obj 391 400 delay 40000;
#X obj 391 491 delay 40000;
#X obj 391 512 delay 40000;
#X obj 391 533 delay 40000;
#X obj 391 554 delay 40000;
#X obj 391 658 delay 40000;
#X obj 391 470 delay 100000;
#X obj 392 576 delay 100000;
#X obj -562 517 *~ 3;
#X msg 403 198 (15 seconds) - maniulate the knob(s) above your chosen
slider(s) and/or press either of the two buttons for your slider(s)
at will;
#X msg 197 -281 1;
#X obj 157 -304 delay 100;
#X msg 479 -85 ......................................................
....................move all your sliders and knobs to 0%.............................
move your master slider (slider 8) to about 50-60%......................Get
ready to go!!!!!!...............................................;
#X msg 401 595 (45 seconds) - turn knob 7 to 100% (you will need it
later) then slowly fade down all knobs and sliders except for besides
knob 7 and slider 2 which should be crossfaded to 100% if not already
so;
#X msg 399 680 (20 seconds) - Fade out slider 2 while you bring up
slider 7 to 100%;
#X msg -4 806 (45 seconds) - Bring down the first four sliders by 20%
and then bring up the 7th slider to 80% - 100%... use the 7th knob
to filter your noise... when finished return the 7th slider to 0%;
#X msg 24 902 (45 seconds) - explore feedback using the fifth slider
as well as the fifth knob (you will want to lower the master fader
as well);
#X obj 390 314 delay 35000;
#X msg 407 268 (35 seconds) - one by one bring up the rest of your
first six sliders (20% - 70%).. create a sound you like..................
;
#X msg 401 82 (10 seconds) - turn the 7th knob agressivly and fast
to try and find a frequency range only you inhabit;
#X obj 387 118 delay 10000;
#X msg 400 140 (20 seconds) - Fade the 7th slider down to 0% as you
fade in one or two of the first four sliders to between 80% and 100%
;
#X obj 387 176 delay 20000;
#X connect 0 0 169 0;
#X connect 1 0 173 0;
#X connect 2 0 175 0;
#X connect 3 0 10 0;
#X connect 4 0 12 0;
#X connect 5 0 171 0;
#X connect 6 0 8 0;
#X connect 7 0 8 1;
#X connect 7 0 27 0;
#X connect 8 0 5 0;
#X connect 8 0 178 0;
#X connect 9 0 10 1;
#X connect 9 0 28 0;
#X connect 10 0 1 0;
#X connect 10 0 179 0;
#X connect 11 0 12 1;
#X connect 11 0 29 0;
#X connect 12 0 2 0;
#X connect 12 0 180 0;
#X connect 13 0 0 0;
#X connect 13 0 177 0;
#X connect 14 0 317 0;
#X connect 15 0 199 0;
#X connect 16 0 198 0;
#X connect 17 0 197 0;
#X connect 18 0 211 0;
#X connect 18 0 211 1;
#X connect 19 0 189 0;
#X connect 20 0 190 0;
#X connect 21 0 191 0;
#X connect 22 0 192 0;
#X connect 23 0 36 0;
#X connect 24 0 38 0;
#X connect 25 0 30 0;
#X connect 26 0 33 0;
#X connect 30 0 46 0;
#X connect 30 0 47 0;
#X connect 31 0 32 0;
#X connect 32 0 21 1;
#X connect 33 0 48 0;
#X connect 33 0 49 0;
#X connect 34 0 35 0;
#X connect 35 0 22 1;
#X connect 36 0 41 0;
#X connect 36 0 43 0;
#X connect 37 0 19 1;
#X connect 38 0 44 0;
#X connect 38 0 45 0;
#X connect 39 0 40 0;
#X connect 40 0 20 1;
#X connect 41 0 37 0;
#X connect 42 0 37 0;
#X connect 43 0 42 0;
#X connect 44 0 40 0;
#X connect 45 0 39 0;
#X connect 46 0 32 0;
#X connect 47 0 31 0;
#X connect 48 0 35 0;
#X connect 49 0 34 0;
#X connect 50 0 307 0;
#X connect 51 0 52 0;
#X connect 52 0 50 1;
#X connect 53 0 52 0;
#X connect 54 0 51 0;
#X connect 55 0 53 0;
#X connect 55 0 54 0;
#X connect 56 0 307 0;
#X connect 57 0 58 0;
#X connect 58 0 56 1;
#X connect 59 0 58 0;
#X connect 60 0 57 0;
#X connect 61 0 59 0;
#X connect 61 0 60 0;
#X connect 62 0 307 0;
#X connect 63 0 64 0;
#X connect 64 0 62 1;
#X connect 65 0 64 0;
#X connect 66 0 63 0;
#X connect 67 0 65 0;
#X connect 67 0 66 0;
#X connect 68 0 182 0;
#X connect 69 0 70 0;
#X connect 70 0 68 1;
#X connect 71 0 70 0;
#X connect 72 0 69 0;
#X connect 73 0 71 0;
#X connect 73 0 72 0;
#X connect 74 0 287 0;
#X connect 74 0 293 0;
#X connect 75 0 87 0;
#X connect 76 0 288 0;
#X connect 76 0 294 0;
#X connect 77 0 91 0;
#X connect 78 0 289 0;
#X connect 78 0 295 0;
#X connect 79 0 95 0;
#X connect 80 0 278 0;
#X connect 80 0 290 0;
#X connect 80 0 296 0;
#X connect 81 0 99 0;
#X connect 82 0 6 0;
#X connect 82 0 13 0;
#X connect 82 0 3 0;
#X connect 82 0 4 0;
#X connect 83 0 168 0;
#X connect 84 0 82 0;
#X connect 84 0 269 0;
#X connect 84 0 270 0;
#X connect 84 0 271 0;
#X connect 87 0 88 0;
#X connect 87 0 89 0;
#X connect 88 0 87 1;
#X connect 89 0 90 0;
#X connect 90 0 73 0;
#X connect 91 0 92 0;
#X connect 91 0 93 0;
#X connect 92 0 91 1;
#X connect 93 0 94 0;
#X connect 94 0 67 0;
#X connect 95 0 96 0;
#X connect 95 0 97 0;
#X connect 96 0 95 1;
#X connect 97 0 98 0;
#X connect 98 0 61 0;
#X connect 99 0 100 0;
#X connect 99 0 101 0;
#X connect 100 0 99 1;
#X connect 101 0 102 0;
#X connect 102 0 55 0;
#X connect 103 0 6 1;
#X connect 103 0 269 1;
#X connect 103 1 3 1;
#X connect 103 1 270 1;
#X connect 103 2 4 1;
#X connect 103 2 271 1;
#X connect 104 0 85 0;
#X connect 104 0 103 0;
#X connect 104 0 238 0;
#X connect 105 0 156 0;
#X connect 105 0 157 0;
#X connect 105 0 166 0;
#X connect 105 0 167 0;
#X connect 107 0 108 0;
#X connect 109 0 110 0;
#X connect 111 0 113 0;
#X connect 112 0 114 0;
#X connect 115 0 119 0;
#X connect 116 0 120 0;
#X connect 117 0 121 0;
#X connect 118 0 122 0;
#X connect 123 0 131 0;
#X connect 124 0 132 0;
#X connect 125 0 133 0;
#X connect 126 0 134 0;
#X connect 127 0 135 0;
#X connect 128 0 136 0;
#X connect 129 0 137 0;
#X connect 130 0 138 0;
#X connect 150 0 105 0;
#X connect 151 0 153 0;
#X connect 151 0 154 0;
#X connect 154 0 152 0;
#X connect 156 0 107 0;
#X connect 156 1 109 0;
#X connect 156 2 111 0;
#X connect 156 3 112 0;
#X connect 156 4 115 0;
#X connect 156 5 116 0;
#X connect 156 6 117 0;
#X connect 156 7 118 0;
#X connect 157 0 155 0;
#X connect 157 1 140 0;
#X connect 157 2 141 0;
#X connect 157 3 142 0;
#X connect 157 4 143 0;
#X connect 157 5 144 0;
#X connect 157 6 145 0;
#X connect 157 7 146 0;
#X connect 166 0 123 0;
#X connect 166 1 124 0;
#X connect 166 2 125 0;
#X connect 166 3 126 0;
#X connect 166 4 127 0;
#X connect 166 5 128 0;
#X connect 166 6 129 0;
#X connect 166 7 130 0;
#X connect 167 0 158 0;
#X connect 167 1 159 0;
#X connect 167 2 160 0;
#X connect 167 3 161 0;
#X connect 167 4 162 0;
#X connect 167 5 163 0;
#X connect 167 6 164 0;
#X connect 167 7 165 0;
#X connect 168 0 82 1;
#X connect 169 0 68 0;
#X connect 170 0 169 1;
#X connect 171 0 62 0;
#X connect 172 0 171 1;
#X connect 173 0 56 0;
#X connect 174 0 173 1;
#X connect 175 0 50 0;
#X connect 176 0 175 1;
#X connect 177 0 19 0;
#X connect 178 0 20 0;
#X connect 179 0 21 0;
#X connect 180 0 22 0;
#X connect 181 0 308 0;
#X connect 182 0 307 0;
#X connect 183 0 186 0;
#X connect 183 0 297 0;
#X connect 184 0 181 0;
#X connect 185 0 181 0;
#X connect 186 0 185 0;
#X connect 187 0 321 0;
#X connect 188 0 181 0;
#X connect 189 0 235 0;
#X connect 190 0 235 0;
#X connect 191 0 235 0;
#X connect 192 0 235 0;
#X connect 193 0 189 1;
#X connect 194 0 192 1;
#X connect 195 0 191 1;
#X connect 196 0 190 1;
#X connect 197 0 11 0;
#X connect 198 0 9 0;
#X connect 199 0 7 0;
#X connect 200 0 301 0;
#X connect 202 0 203 0;
#X connect 202 0 203 1;
#X connect 203 0 206 0;
#X connect 204 0 205 0;
#X connect 204 0 205 1;
#X connect 205 0 301 1;
#X connect 206 0 308 1;
#X connect 207 0 212 0;
#X connect 207 0 212 1;
#X connect 208 0 131 0;
#X connect 208 0 123 0;
#X connect 208 0 124 0;
#X connect 208 0 125 0;
#X connect 208 0 126 0;
#X connect 208 0 127 0;
#X connect 208 0 128 0;
#X connect 208 0 129 0;
#X connect 208 0 130 0;
#X connect 208 0 107 0;
#X connect 208 0 109 0;
#X connect 208 0 111 0;
#X connect 208 0 112 0;
#X connect 208 0 115 0;
#X connect 208 0 116 0;
#X connect 208 0 117 0;
#X connect 208 0 118 0;
#X connect 208 0 84 0;
#X connect 208 0 339 0;
#X connect 209 0 30 0;
#X connect 209 0 33 0;
#X connect 209 0 38 0;
#X connect 209 0 36 0;
#X connect 209 0 296 0;
#X connect 209 0 295 0;
#X connect 209 0 294 0;
#X connect 209 0 293 0;
#X connect 209 0 73 0;
#X connect 209 0 67 0;
#X connect 209 0 61 0;
#X connect 209 0 290 0;
#X connect 209 0 55 0;
#X connect 209 0 288 0;
#X connect 210 0 236 0;
#X connect 210 0 236 1;
#X connect 211 0 170 0;
#X connect 211 0 169 2;
#X connect 212 0 172 0;
#X connect 212 0 171 2;
#X connect 213 0 174 0;
#X connect 213 0 173 2;
#X connect 214 0 213 0;
#X connect 214 0 213 1;
#X connect 215 0 176 0;
#X connect 215 0 175 2;
#X connect 216 0 215 0;
#X connect 216 0 215 1;
#X connect 218 0 219 0;
#X connect 218 1 220 0;
#X connect 218 2 219 1;
#X connect 218 3 220 1;
#X connect 219 0 221 0;
#X connect 220 0 221 1;
#X connect 221 0 223 1;
#X connect 222 0 224 0;
#X connect 222 1 218 0;
#X connect 223 0 225 0;
#X connect 224 0 223 0;
#X connect 225 0 226 0;
#X connect 226 0 246 0;
#X connect 227 0 299 0;
#X connect 229 0 230 0;
#X connect 229 0 231 0;
#X connect 230 0 217 0;
#X connect 231 0 233 0;
#X connect 231 0 232 0;
#X connect 232 0 217 0;
#X connect 233 0 234 0;
#X connect 234 0 217 0;
#X connect 235 0 308 0;
#X connect 236 0 237 0;
#X connect 237 0 241 0;
#X connect 238 0 83 0;
#X connect 238 0 86 0;
#X connect 239 0 346 0;
#X connect 239 0 345 0;
#X connect 240 0 347 0;
#X connect 240 0 348 0;
#X connect 241 0 242 1;
#X connect 242 0 305 0;
#X connect 243 0 188 0;
#X connect 244 0 217 0;
#X connect 245 0 228 0;
#X connect 246 0 324 0;
#X connect 247 0 217 0;
#X connect 248 0 217 0;
#X connect 249 0 217 0;
#X connect 250 0 217 0;
#X connect 251 0 217 0;
#X connect 252 0 217 0;
#X connect 253 0 217 0;
#X connect 254 0 255 0;
#X connect 255 0 292 0;
#X connect 256 0 302 0;
#X connect 257 0 259 0;
#X connect 258 0 260 0;
#X connect 259 0 258 0;
#X connect 260 0 302 0;
#X connect 261 0 263 0;
#X connect 262 0 264 0;
#X connect 263 0 262 0;
#X connect 264 0 302 0;
#X connect 265 0 267 0;
#X connect 266 0 268 0;
#X connect 267 0 266 0;
#X connect 268 0 302 0;
#X connect 269 0 258 1;
#X connect 270 0 262 1;
#X connect 271 0 266 1;
#X connect 272 0 273 0;
#X connect 273 0 256 1;
#X connect 274 0 272 0;
#X connect 275 0 276 0;
#X connect 276 0 268 1;
#X connect 277 0 276 0;
#X connect 278 0 275 0;
#X connect 279 0 280 0;
#X connect 280 0 264 1;
#X connect 281 0 280 0;
#X connect 282 0 279 0;
#X connect 283 0 284 0;
#X connect 284 0 260 1;
#X connect 285 0 284 0;
#X connect 286 0 283 0;
#X connect 287 0 291 0;
#X connect 287 0 274 0;
#X connect 288 0 285 0;
#X connect 288 0 286 0;
#X connect 289 0 281 0;
#X connect 289 0 282 0;
#X connect 290 0 277 0;
#X connect 290 0 278 0;
#X connect 291 0 273 0;
#X connect 292 0 256 0;
#X connect 293 0 70 0;
#X connect 294 0 64 0;
#X connect 295 0 280 0;
#X connect 296 0 52 0;
#X connect 297 0 184 0;
#X connect 298 0 300 0;
#X connect 298 0 300 1;
#X connect 299 0 298 0;
#X connect 300 0 340 0;
#X connect 300 0 303 0;
#X connect 301 0 242 0;
#X connect 302 0 308 0;
#X connect 303 0 316 0;
#X connect 303 0 304 0;
#X connect 304 0 245 0;
#X connect 304 0 240 0;
#X connect 305 0 302 0;
#X connect 306 0 181 0;
#X connect 307 0 309 0;
#X connect 308 0 201 0;
#X connect 308 0 201 1;
#X connect 309 0 310 0;
#X connect 310 0 311 0;
#X connect 311 0 320 0;
#X connect 312 0 309 1;
#X connect 312 0 311 1;
#X connect 313 0 314 0;
#X connect 314 0 315 0;
#X connect 315 0 312 0;
#X connect 316 0 228 0;
#X connect 317 0 84 0;
#X connect 318 0 336 0;
#X connect 319 0 320 1;
#X connect 320 0 306 0;
#X connect 321 0 243 0;
#X connect 323 0 217 0;
#X connect 324 0 247 0;
#X connect 324 1 343 0;
#X connect 324 2 253 0;
#X connect 324 3 251 0;
#X connect 324 4 344 0;
#X connect 324 5 248 0;
#X connect 324 6 323 0;
#X connect 324 7 252 0;
#X connect 324 8 249 0;
#X connect 324 9 250 0;
#X connect 324 10 344 0;
#X connect 324 11 344 0;
#X connect 324 12 344 0;
#X connect 324 13 344 0;
#X connect 324 14 323 0;
#X connect 324 15 323 0;
#X connect 324 16 247 0;
#X connect 324 16 323 0;
#X connect 324 18 323 0;
#X connect 324 19 322 0;
#X connect 324 20 322 0;
#X connect 325 0 222 0;
#X connect 325 0 326 0;
#X connect 326 0 222 0;
#X connect 326 0 327 0;
#X connect 327 0 222 0;
#X connect 327 0 328 0;
#X connect 328 0 244 0;
#X connect 328 0 334 0;
#X connect 329 0 222 0;
#X connect 329 0 330 0;
#X connect 330 0 222 0;
#X connect 330 0 331 0;
#X connect 331 0 222 0;
#X connect 331 0 332 0;
#X connect 332 0 244 0;
#X connect 332 0 335 0;
#X connect 333 0 342 0;
#X connect 333 0 229 0;
#X connect 334 0 222 0;
#X connect 334 0 329 0;
#X connect 335 0 341 0;
#X connect 335 0 333 0;
#X connect 336 0 319 0;
#X connect 337 0 217 0;
#X connect 338 0 155 0;
#X connect 338 0 140 0;
#X connect 338 0 141 0;
#X connect 338 0 142 0;
#X connect 339 0 338 0;
#X connect 340 0 228 0;
#X connect 341 0 217 0;
#X connect 342 0 217 0;
#X connect 343 0 217 0;
#X connect 344 0 217 0;
#X connect 345 0 222 0;
#X connect 345 0 325 0;
#X connect 346 0 228 0;
#X connect 347 0 217 0;
#X connect 348 0 349 0;
#X connect 348 0 350 0;
#X connect 349 0 217 0;
#X connect 350 0 337 0;
#X connect 350 0 239 0;
