#N canvas 490 23 986 439 10;
#X declare -lib mrpeach;
#X obj 12 54 udpsend;
#X obj 215 70 / 127;
#X obj 12 33 packOSC;
#X obj 14 -14 import mrpeach;
#X obj 215 90 prepend /s1;
#X obj 288 70 / 127;
#X obj 288 90 prepend /s2;
#X obj 215 112 s data;
#X obj 12 13 r data;
#X obj 288 112 s data;
#X obj 361 70 / 127;
#X obj 434 70 / 127;
#X obj 361 112 s data;
#X obj 434 112 s data;
#X obj 361 90 prepend /s3;
#X obj 434 90 prepend /s4;
#X obj 508 70 / 127;
#X obj 581 70 / 127;
#X obj 508 112 s data;
#X obj 581 112 s data;
#X obj 654 70 / 127;
#X obj 727 70 / 127;
#X obj 654 112 s data;
#X obj 727 112 s data;
#X obj 508 90 prepend /s5;
#X obj 581 90 prepend /s6;
#X obj 654 90 prepend /s7;
#X obj 727 90 prepend /s8;
#X obj 800 70 / 127;
#X obj 800 112 s data;
#X obj 800 90 prepend /s9;
#X text 253 -15 <-- Change the IP Address to your Pi;
#X text 157 49 SLIDERS;
#X obj 214 176 / 127;
#X obj 287 176 / 127;
#X obj 214 218 s data;
#X obj 287 218 s data;
#X obj 360 176 / 127;
#X obj 433 176 / 127;
#X obj 360 218 s data;
#X obj 433 218 s data;
#X obj 507 176 / 127;
#X obj 580 176 / 127;
#X obj 507 218 s data;
#X obj 580 218 s data;
#X obj 653 176 / 127;
#X obj 726 176 / 127;
#X obj 653 218 s data;
#X obj 726 218 s data;
#X obj 799 176 / 127;
#X obj 799 218 s data;
#X obj 214 196 prepend /k1;
#X obj 287 196 prepend /k2;
#X obj 360 196 prepend /k3;
#X obj 433 196 prepend /k4;
#X obj 507 196 prepend /k5;
#X obj 580 196 prepend /k6;
#X obj 653 196 prepend /k7;
#X obj 726 196 prepend /k8;
#X obj 799 196 prepend /k9;
#X text 156 155 KNOBS;
#X obj 214 318 s data;
#X obj 287 318 s data;
#X obj 360 318 s data;
#X obj 433 318 s data;
#X obj 507 318 s data;
#X obj 580 318 s data;
#X obj 653 318 s data;
#X obj 726 318 s data;
#X obj 799 318 s data;
#X text 156 255 BUTTONS;
#X obj 214 296 prepend /b1;
#X obj 287 296 prepend /b2;
#X obj 360 296 prepend /b3;
#X obj 433 296 prepend /b4;
#X obj 507 296 prepend /b5;
#X obj 580 296 prepend /b6;
#X obj 653 296 prepend /b7;
#X obj 726 296 prepend /b8;
#X obj 799 296 prepend /b9;
#X obj 213 276 b;
#X obj 287 276 b;
#X obj 360 276 b;
#X obj 433 276 b;
#X obj 507 276 b;
#X obj 580 276 b;
#X obj 653 276 b;
#X obj 726 276 b;
#X obj 799 276 b;
#X obj 215 49 ctlin 41;
#X obj 288 49 ctlin 42;
#X obj 361 49 ctlin 43;
#X obj 434 49 ctlin 44;
#X obj 508 49 ctlin 45;
#X obj 581 49 ctlin 46;
#X obj 654 49 ctlin 47;
#X obj 727 49 ctlin 48;
#X obj 800 49 ctlin 49;
#X obj 214 155 ctlin 21;
#X obj 287 155 ctlin 22;
#X obj 360 155 ctlin 23;
#X obj 433 155 ctlin 24;
#X obj 507 155 ctlin 25;
#X obj 580 155 ctlin 26;
#X obj 653 155 ctlin 27;
#X obj 726 155 ctlin 28;
#X obj 799 155 ctlin 29;
#X obj 214 255 ctlin 51;
#X obj 287 255 ctlin 52;
#X obj 360 255 ctlin 53;
#X obj 433 255 ctlin 54;
#X obj 507 255 ctlin 55;
#X obj 580 255 ctlin 56;
#X obj 653 255 ctlin 57;
#X obj 726 255 ctlin 58;
#X obj 799 255 ctlin 59;
#X obj 98 419;
#X obj 98 419;
#X msg 98 419;
#X floatatom 98 419 5 0 0 0 - - -;
#X msg 109 -14 connect 10.0.1.19 3001;
#X msg 122 10 connect localhost 3001;
#X connect 1 0 4 0;
#X connect 2 0 0 0;
#X connect 4 0 7 0;
#X connect 5 0 6 0;
#X connect 6 0 9 0;
#X connect 8 0 2 0;
#X connect 10 0 14 0;
#X connect 11 0 15 0;
#X connect 14 0 12 0;
#X connect 15 0 13 0;
#X connect 16 0 24 0;
#X connect 17 0 25 0;
#X connect 20 0 26 0;
#X connect 21 0 27 0;
#X connect 24 0 18 0;
#X connect 25 0 19 0;
#X connect 26 0 22 0;
#X connect 27 0 23 0;
#X connect 28 0 30 0;
#X connect 30 0 29 0;
#X connect 33 0 51 0;
#X connect 34 0 52 0;
#X connect 37 0 53 0;
#X connect 38 0 54 0;
#X connect 41 0 55 0;
#X connect 42 0 56 0;
#X connect 45 0 57 0;
#X connect 46 0 58 0;
#X connect 49 0 59 0;
#X connect 51 0 35 0;
#X connect 52 0 36 0;
#X connect 53 0 39 0;
#X connect 54 0 40 0;
#X connect 55 0 43 0;
#X connect 56 0 44 0;
#X connect 57 0 47 0;
#X connect 58 0 48 0;
#X connect 59 0 50 0;
#X connect 71 0 61 0;
#X connect 72 0 62 0;
#X connect 73 0 63 0;
#X connect 74 0 64 0;
#X connect 75 0 65 0;
#X connect 76 0 66 0;
#X connect 77 0 67 0;
#X connect 78 0 68 0;
#X connect 79 0 69 0;
#X connect 80 0 71 0;
#X connect 81 0 72 0;
#X connect 82 0 73 0;
#X connect 83 0 74 0;
#X connect 84 0 75 0;
#X connect 85 0 76 0;
#X connect 86 0 77 0;
#X connect 87 0 78 0;
#X connect 88 0 79 0;
#X connect 89 0 1 0;
#X connect 90 0 5 0;
#X connect 91 0 10 0;
#X connect 92 0 11 0;
#X connect 93 0 16 0;
#X connect 94 0 17 0;
#X connect 95 0 20 0;
#X connect 96 0 21 0;
#X connect 97 0 28 0;
#X connect 98 0 33 0;
#X connect 99 0 34 0;
#X connect 100 0 37 0;
#X connect 101 0 38 0;
#X connect 102 0 41 0;
#X connect 103 0 42 0;
#X connect 104 0 45 0;
#X connect 105 0 46 0;
#X connect 106 0 49 0;
#X connect 107 0 80 0;
#X connect 108 0 81 0;
#X connect 109 0 82 0;
#X connect 110 0 83 0;
#X connect 111 0 84 0;
#X connect 112 0 85 0;
#X connect 113 0 86 0;
#X connect 114 0 87 0;
#X connect 115 0 88 0;
#X connect 120 0 0 0;
#X connect 121 0 0 0;
