#N canvas 602 35 629 381 10;
#X declare -lib mrpeach;
#X obj -110 45 unpackOSC;
#X obj -207 20 import mrpeach;
#X obj -109 21 udpreceive 3001 127.0.0.1;
#X floatatom -110 89 5 0 0 0 - - -;
#X obj -110 68 routeOSC /s1 /s2 /s3 /s4 /s5 /s6 /s7 /s8 /s9;
#X obj -110 109 s s1;
#X floatatom -76 89 5 0 0 0 - - -;
#X obj -76 109 s s2;
#X floatatom -40 89 5 0 0 0 - - -;
#X floatatom -6 89 5 0 0 0 - - -;
#X obj -40 109 s s3;
#X obj -6 109 s s4;
#X floatatom 30 90 5 0 0 0 - - -;
#X floatatom 64 90 5 0 0 0 - - -;
#X floatatom 100 90 5 0 0 0 - - -;
#X floatatom 134 90 5 0 0 0 - - -;
#X obj 30 110 s s5;
#X obj 64 110 s s6;
#X obj 100 110 s s7;
#X obj 134 110 s s8;
#X floatatom 170 90 5 0 0 0 - - -;
#X obj 170 110 s s9;
#X floatatom -132 158 5 0 0 0 - - -;
#X floatatom -98 158 5 0 0 0 - - -;
#X floatatom -62 158 5 0 0 0 - - -;
#X floatatom -28 158 5 0 0 0 - - -;
#X floatatom 8 159 5 0 0 0 - - -;
#X floatatom 42 159 5 0 0 0 - - -;
#X floatatom 78 159 5 0 0 0 - - -;
#X floatatom 112 159 5 0 0 0 - - -;
#X floatatom 148 159 5 0 0 0 - - -;
#X obj -132 137 routeOSC /k1 /k2 /k3 /k4 /k5 /k6 /k7 /k8 /k9;
#X obj -132 178 s k1;
#X obj -98 178 s k2;
#X obj -62 178 s k3;
#X obj -28 178 s k4;
#X obj 8 179 s k5;
#X obj 42 179 s k6;
#X obj 78 179 s k7;
#X obj 112 179 s k8;
#X obj 148 179 s k9;
#X obj -161 208 routeOSC /b1 /b2 /b3 /b4 /b5 /b6 /b7 /b8 /b9;
#X obj -161 249 s b1;
#X text 54 23 <-- Change the IP Address to your laptop's IP address
;
#X obj -161 229 bng 15 250 50 0 empty empty empty 17 7 0 10 -262144
-1 -1;
#X obj -128 229 bng 15 250 50 0 empty empty empty 17 7 0 10 -262144
-1 -1;
#X obj -96 229 bng 15 250 50 0 empty empty empty 17 7 0 10 -262144
-1 -1;
#X obj -65 229 bng 15 250 50 0 empty empty empty 17 7 0 10 -262144
-1 -1;
#X obj -32 229 bng 15 250 50 0 empty empty empty 17 7 0 10 -262144
-1 -1;
#X obj 0 229 bng 15 250 50 0 empty empty empty 17 7 0 10 -262144 -1
-1;
#X obj 33 228 bng 15 250 50 0 empty empty empty 17 7 0 10 -262144 -1
-1;
#X obj 66 228 bng 15 250 50 0 empty empty empty 17 7 0 10 -262144 -1
-1;
#X obj 98 228 bng 15 250 50 0 empty empty empty 17 7 0 10 -262144 -1
-1;
#X obj -128 249 s b2;
#X obj -96 249 s b3;
#X obj -65 249 s b4;
#X obj -32 249 s b5;
#X obj 0 249 s b6;
#X obj 33 248 s b7;
#X obj 66 248 s b8;
#X obj 98 248 s b9;
#X text -161 67 SLIDERS;
#X text -171 139 KNOBS;
#X text -207 211 BUTTONS;
#X connect 0 0 4 0;
#X connect 0 0 31 0;
#X connect 0 0 41 0;
#X connect 2 0 0 0;
#X connect 3 0 5 0;
#X connect 4 0 3 0;
#X connect 4 1 6 0;
#X connect 4 2 8 0;
#X connect 4 3 9 0;
#X connect 4 4 12 0;
#X connect 4 5 13 0;
#X connect 4 6 14 0;
#X connect 4 7 15 0;
#X connect 4 8 20 0;
#X connect 6 0 7 0;
#X connect 8 0 10 0;
#X connect 9 0 11 0;
#X connect 12 0 16 0;
#X connect 13 0 17 0;
#X connect 14 0 18 0;
#X connect 15 0 19 0;
#X connect 20 0 21 0;
#X connect 22 0 32 0;
#X connect 23 0 33 0;
#X connect 24 0 34 0;
#X connect 25 0 35 0;
#X connect 26 0 36 0;
#X connect 27 0 37 0;
#X connect 28 0 38 0;
#X connect 29 0 39 0;
#X connect 30 0 40 0;
#X connect 31 0 22 0;
#X connect 31 1 23 0;
#X connect 31 2 24 0;
#X connect 31 3 25 0;
#X connect 31 4 26 0;
#X connect 31 5 27 0;
#X connect 31 6 28 0;
#X connect 31 7 29 0;
#X connect 31 8 30 0;
#X connect 41 0 44 0;
#X connect 41 1 45 0;
#X connect 41 2 46 0;
#X connect 41 3 47 0;
#X connect 41 4 48 0;
#X connect 41 5 49 0;
#X connect 41 6 50 0;
#X connect 41 7 51 0;
#X connect 41 8 52 0;
#X connect 44 0 42 0;
#X connect 45 0 53 0;
#X connect 46 0 54 0;
#X connect 47 0 55 0;
#X connect 48 0 56 0;
#X connect 49 0 57 0;
#X connect 50 0 58 0;
#X connect 51 0 59 0;
#X connect 52 0 60 0;
