#N canvas 368 249 892 536 10;
#X declare -lib mrpeach;
#X floatatom 128 -42 5 0 0 0 - - -;
#X floatatom 218 -41 5 0 127 0 - - -;
#X floatatom 309 -41 5 0 127 0 - - -;
#X msg 309 -63 127;
#N canvas 881 330 304 207 FM 0;
#X obj 13 -79 inlet;
#X obj 13 55 outlet~;
#X obj 81 -79 inlet;
#X obj 157 -79 inlet;
#N canvas 0 22 163 230 triangle 0;
#X obj 19 33 phasor~;
#X obj 19 57 -~ 0.5;
#X obj 19 80 abs~;
#X obj 19 103 *~ 4;
#X obj 19 127 -~ 1;
#X obj 19 149 outlet~;
#X obj 19 10 inlet~;
#X connect 0 0 1 0;
#X connect 1 0 2 0;
#X connect 2 0 3 0;
#X connect 3 0 4 0;
#X connect 4 0 5 0;
#X connect 6 0 0 0;
#X restore 81 -33 pd triangle;
#X obj 81 4 *~;
#X obj 13 31 +~;
#X obj 157 -33 / 100;
#X obj 81 -55 / 120;
#X connect 0 0 6 0;
#X connect 2 0 8 0;
#X connect 3 0 7 0;
#X connect 4 0 5 0;
#X connect 5 0 6 1;
#X connect 6 0 1 0;
#X connect 7 0 5 1;
#X connect 8 0 4 0;
#X restore 205 -2 pd FM;
#X obj 205 161 dac~;
#N canvas 0 22 1440 803 Waveshape0 0;
#X obj 293 522 outlet~;
#X obj 117 298 inlet~;
#X obj 117 404 osc~;
#X obj 205 404 osc~;
#X obj 249 404 osc~;
#X obj 293 404 osc~;
#X obj 337 404 osc~;
#X obj 381 404 osc~;
#X obj 425 404 osc~;
#X obj 468 404 osc~;
#X obj 205 383 *~ 3;
#X obj 249 383 *~ 4;
#X obj 293 383 *~ 5;
#X obj 337 383 *~ 6;
#X obj 381 383 *~ 7;
#X obj 425 383 *~ 8;
#X obj 468 383 *~ 9;
#X obj 161 404 osc~;
#X obj 161 383 *~ 2;
#X msg 535 383 500;
#X obj 660 322 cycle 9 0 0 0 0 0 0;
#X obj 515 406 line~ 0;
#X obj 515 361 t f b;
#X msg 585 383 500;
#X obj 565 406 line~ 0;
#X obj 565 361 t f b;
#X msg 635 383 500;
#X obj 615 406 line~ 0;
#X obj 615 361 t f b;
#X msg 685 383 500;
#X obj 665 406 line~ 0;
#X obj 665 361 t f b;
#X msg 735 383 500;
#X obj 715 406 line~ 0;
#X obj 715 361 t f b;
#X msg 785 383 500;
#X obj 765 406 line~ 0;
#X obj 765 361 t f b;
#X msg 835 383 500;
#X obj 815 406 line~ 0;
#X obj 815 360 t f b;
#X msg 885 383 500;
#X obj 865 406 line~ 0;
#X obj 865 361 t f b;
#X msg 935 383 500;
#X obj 915 406 line~ 0;
#X obj 915 361 t f b;
#X obj 117 455 *~;
#X obj 161 455 *~;
#X obj 205 455 *~;
#X obj 249 455 *~;
#X obj 293 455 *~;
#X obj 337 455 *~;
#X obj 381 455 *~;
#X obj 425 455 *~;
#X obj 468 455 *~;
#X obj 660 208 drunk 1;
#X msg 733 257 0;
#X obj 660 228 sel 0 1;
#X obj 660 186 repeat 9;
#X obj 660 298 / 300;
#X obj 660 162 inlet;
#N canvas 781 56 591 697 randomer 0;
#X obj 254 318 random 100;
#X obj 254 196 inlet;
#X obj 254 341 outlet;
#X obj 335 161 time;
#X floatatom 356 184 5 0 0 0 - - -;
#X msg 356 204 seed \$1;
#X msg 356 275 seed 832.973;
#X obj 335 140 bng 15 250 50 0 empty empty empty 17 7 0 10 -262144
-1 -1;
#X obj 356 226 prepend set;
#X obj 356 250 t b a;
#X obj 335 82 loadbang;
#X obj 334 108 del 2350;
#X connect 0 0 2 0;
#X connect 1 0 0 0;
#X connect 3 3 4 0;
#X connect 4 0 5 0;
#X connect 5 0 8 0;
#X connect 6 0 0 0;
#X connect 7 0 3 0;
#X connect 8 0 9 0;
#X connect 9 0 6 0;
#X connect 9 1 6 0;
#X connect 10 0 11 0;
#X connect 11 0 7 0;
#X restore 660 257 pd randomer;
#X connect 1 0 2 0;
#X connect 1 0 18 0;
#X connect 1 0 10 0;
#X connect 1 0 11 0;
#X connect 1 0 12 0;
#X connect 1 0 13 0;
#X connect 1 0 14 0;
#X connect 1 0 15 0;
#X connect 1 0 16 0;
#X connect 2 0 47 0;
#X connect 3 0 49 0;
#X connect 4 0 50 0;
#X connect 5 0 51 0;
#X connect 6 0 52 0;
#X connect 7 0 53 0;
#X connect 8 0 54 0;
#X connect 9 0 55 0;
#X connect 10 0 3 0;
#X connect 11 0 4 0;
#X connect 12 0 5 0;
#X connect 13 0 6 0;
#X connect 14 0 7 0;
#X connect 15 0 8 0;
#X connect 16 0 9 0;
#X connect 17 0 48 0;
#X connect 18 0 17 0;
#X connect 19 0 21 1;
#X connect 20 0 22 0;
#X connect 20 1 25 0;
#X connect 20 2 28 0;
#X connect 20 3 31 0;
#X connect 20 4 34 0;
#X connect 20 5 37 0;
#X connect 20 6 40 0;
#X connect 20 7 43 0;
#X connect 20 8 46 0;
#X connect 21 0 47 1;
#X connect 22 0 21 0;
#X connect 22 1 19 0;
#X connect 23 0 24 1;
#X connect 24 0 48 1;
#X connect 25 0 24 0;
#X connect 25 1 23 0;
#X connect 26 0 27 1;
#X connect 27 0 49 1;
#X connect 28 0 27 0;
#X connect 28 1 26 0;
#X connect 29 0 30 1;
#X connect 30 0 50 1;
#X connect 31 0 30 0;
#X connect 31 1 29 0;
#X connect 32 0 33 1;
#X connect 33 0 51 1;
#X connect 34 0 33 0;
#X connect 34 1 32 0;
#X connect 35 0 36 1;
#X connect 36 0 52 1;
#X connect 37 0 36 0;
#X connect 37 1 35 0;
#X connect 38 0 39 1;
#X connect 39 0 53 1;
#X connect 40 0 39 0;
#X connect 40 1 38 0;
#X connect 41 0 42 1;
#X connect 42 0 54 1;
#X connect 43 0 42 0;
#X connect 43 1 41 0;
#X connect 44 0 45 1;
#X connect 45 0 55 1;
#X connect 46 0 45 0;
#X connect 46 1 44 0;
#X connect 47 0 0 0;
#X connect 48 0 0 0;
#X connect 49 0 0 0;
#X connect 50 0 0 0;
#X connect 51 0 0 0;
#X connect 52 0 0 0;
#X connect 53 0 0 0;
#X connect 54 0 0 0;
#X connect 55 0 0 0;
#X connect 56 0 58 0;
#X connect 57 0 60 0;
#X connect 58 0 62 0;
#X connect 58 1 57 0;
#X connect 59 0 56 0;
#X connect 60 0 20 0;
#X connect 61 0 59 0;
#X connect 62 0 60 0;
#X restore 205 39 pd Waveshape0;
#X obj 280 21 bng 15 250 50 0 empty empty empty 17 7 0 10 -262144 -1
-1;
#X obj 128 -105 / 127;
#X obj 128 -63 + 80;
#X obj 128 -84 * 80;
#X msg 220 85 0;
#X obj 205 132 *~;
#X msg 218 -63 0;
#X msg 128 -127 127;
#X obj 425 -130 loadbang;
#X msg 425 -84 \; pd dsp 1 \;;
#X obj 482 -131 s lb;
#X obj 425 -107 delay 2000;
#X obj 218 -83 r lb;
#X obj 309 -83 r lb;
#X obj 220 64 r lb;
#X obj 128 -148 r lb;
#X obj 280 1 r but1;
#X obj 251 85 r ks1;
#X obj 89 -148 r kk1;
#X obj 181 -83 r kk2;
#X obj 272 -83 r kk3;
#X obj 220 110 / 500;
#X text 100 -190 comment;
#N canvas 140 37 1440 851 OSC-MIDI 0;
#X obj 1412 962 tgl 15 0 empty empty empty 17 7 0 10 -262144 -1 -1
0 1;
#X obj 1412 962 tgl 15 0 empty empty empty 17 7 0 10 -262144 -1 -1
0 1;
#X restore 425 -43 pd OSC-MIDI;
#X obj 437 28 unpackOSC;
#X obj 340 3 import mrpeach;
#X floatatom 437 72 5 0 0 0 - - -;
#X floatatom 471 72 5 0 0 0 - - -;
#X floatatom 507 72 5 0 0 0 - - -;
#X floatatom 541 72 5 0 0 0 - - -;
#X obj 541 92 s s4;
#X floatatom 577 73 5 0 0 0 - - -;
#X floatatom 611 73 5 0 0 0 - - -;
#X floatatom 647 73 5 0 0 0 - - -;
#X floatatom 681 73 5 0 0 0 - - -;
#X obj 577 93 s s5;
#X obj 611 93 s s6;
#X obj 647 93 s s7;
#X obj 681 93 s s8;
#X floatatom 717 73 5 0 0 0 - - -;
#X obj 717 93 s s9;
#X floatatom 415 141 5 0 0 0 - - -;
#X floatatom 449 141 5 0 0 0 - - -;
#X floatatom 485 141 5 0 0 0 - - -;
#X floatatom 519 141 5 0 0 0 - - -;
#X floatatom 555 142 5 0 0 0 - - -;
#X floatatom 589 142 5 0 0 0 - - -;
#X floatatom 625 142 5 0 0 0 - - -;
#X floatatom 659 142 5 0 0 0 - - -;
#X floatatom 695 142 5 0 0 0 - - -;
#X obj 555 162 s k5;
#X obj 589 162 s k6;
#X obj 625 162 s k7;
#X obj 659 162 s k8;
#X obj 695 162 s k9;
#X text 601 6 <-- Change the IP Address to your laptop's IP address
;
#X obj 386 212 bng 15 250 50 0 empty empty empty 17 7 0 10 -262144
-1 -1;
#X obj 419 212 bng 15 250 50 0 empty empty empty 17 7 0 10 -262144
-1 -1;
#X obj 451 212 bng 15 250 50 0 empty empty empty 17 7 0 10 -262144
-1 -1;
#X obj 482 212 bng 15 250 50 0 empty empty empty 17 7 0 10 -262144
-1 -1;
#X obj 515 212 bng 15 250 50 0 empty empty empty 17 7 0 10 -262144
-1 -1;
#X obj 547 212 bng 15 250 50 0 empty empty empty 17 7 0 10 -262144
-1 -1;
#X obj 580 211 bng 15 250 50 0 empty empty empty 17 7 0 10 -262144
-1 -1;
#X obj 613 211 bng 15 250 50 0 empty empty empty 17 7 0 10 -262144
-1 -1;
#X obj 645 211 bng 15 250 50 0 empty empty empty 17 7 0 10 -262144
-1 -1;
#X obj 482 232 s b4;
#X obj 515 232 s b5;
#X obj 547 232 s b6;
#X obj 580 231 s b7;
#X obj 613 231 s b8;
#X obj 645 231 s b9;
#X text 386 50 SLIDERS;
#X text 376 122 KNOBS;
#X text 340 194 BUTTONS;
#X obj 415 161 s kk1;
#X obj 449 161 s kk2;
#X obj 485 161 s kk3;
#X obj 519 161 s kk4;
#X obj 437 92 s ks1;
#X obj 471 92 s ks2;
#X obj 507 92 s ks3;
#X obj 386 232 s but1;
#X obj 419 232 s but2;
#X obj 451 232 s but3;
#X obj 437 51 routeOSC /ks1 /ks2 /ks3 /s4 /s5 /s6 /s7 /s8 /s9;
#X obj 415 120 routeOSC /kk1 /kk2 /kk3 /kk4 /k5 /k6 /k7 /k8 /k9;
#X obj 386 191 routeOSC /but1 /but2 /but3 /b4 /b5 /b6 /b7 /b8 /b9;
#X obj 438 4 udpreceive 3001;
#X connect 0 0 4 0;
#X connect 1 0 4 1;
#X connect 2 0 4 2;
#X connect 3 0 2 0;
#X connect 4 0 6 0;
#X connect 6 0 12 0;
#X connect 7 0 6 1;
#X connect 8 0 10 0;
#X connect 9 0 0 0;
#X connect 10 0 9 0;
#X connect 11 0 28 0;
#X connect 12 0 5 0;
#X connect 12 0 5 1;
#X connect 13 0 1 0;
#X connect 14 0 8 0;
#X connect 15 0 17 0;
#X connect 15 0 18 0;
#X connect 18 0 16 0;
#X connect 19 0 13 0;
#X connect 20 0 3 0;
#X connect 21 0 11 0;
#X connect 22 0 14 0;
#X connect 23 0 7 0;
#X connect 24 0 28 0;
#X connect 25 0 8 0;
#X connect 26 0 1 0;
#X connect 27 0 2 0;
#X connect 28 0 12 1;
#X connect 31 0 91 0;
#X connect 31 0 92 0;
#X connect 31 0 93 0;
#X connect 33 0 85 0;
#X connect 34 0 86 0;
#X connect 35 0 87 0;
#X connect 36 0 37 0;
#X connect 38 0 42 0;
#X connect 39 0 43 0;
#X connect 40 0 44 0;
#X connect 41 0 45 0;
#X connect 46 0 47 0;
#X connect 48 0 81 0;
#X connect 49 0 82 0;
#X connect 50 0 83 0;
#X connect 51 0 84 0;
#X connect 52 0 57 0;
#X connect 53 0 58 0;
#X connect 54 0 59 0;
#X connect 55 0 60 0;
#X connect 56 0 61 0;
#X connect 63 0 88 0;
#X connect 64 0 89 0;
#X connect 65 0 90 0;
#X connect 66 0 72 0;
#X connect 67 0 73 0;
#X connect 68 0 74 0;
#X connect 69 0 75 0;
#X connect 70 0 76 0;
#X connect 71 0 77 0;
#X connect 91 0 33 0;
#X connect 91 1 34 0;
#X connect 91 2 35 0;
#X connect 91 3 36 0;
#X connect 91 4 38 0;
#X connect 91 5 39 0;
#X connect 91 6 40 0;
#X connect 91 7 41 0;
#X connect 91 8 46 0;
#X connect 92 0 48 0;
#X connect 92 1 49 0;
#X connect 92 2 50 0;
#X connect 92 3 51 0;
#X connect 92 4 52 0;
#X connect 92 5 53 0;
#X connect 92 6 54 0;
#X connect 92 7 55 0;
#X connect 92 8 56 0;
#X connect 93 0 63 0;
#X connect 93 1 64 0;
#X connect 93 2 65 0;
#X connect 93 3 66 0;
#X connect 93 4 67 0;
#X connect 93 5 68 0;
#X connect 93 6 69 0;
#X connect 93 7 70 0;
#X connect 93 8 71 0;
#X connect 94 0 31 0;
