#N canvas 503 65 972 843 10;
#X declare -lib mrpeach;
#X obj -274 -97 osc~;
#X obj -186 -97 osc~;
#X obj -142 -97 osc~;
#X obj -182 -262 *~ 3;
#X obj -138 -262 *~ 4;
#X obj -230 -97 osc~;
#X obj -226 -262 *~ 2;
#X obj -289 -22 *~;
#X obj -245 -22 *~;
#X obj -201 -22 *~;
#X obj -157 -22 *~;
#X obj -257 -215 * 0.02;
#X obj -204 -215 * 0.02;
#X obj -150 -215 * 0.02;
#X obj -257 -189 + 1;
#X obj -249 -126 *~;
#X obj -204 -189 + 1;
#X obj -196 -126 *~;
#X obj -150 -187 + 1;
#X obj -142 -124 *~;
#X obj -303 -127 *~ 1;
#X obj -188 -46 *~ 0.7;
#X obj -194 -417 r k1;
#X obj -244 -240 r k2;
#X obj -204 -242 r k3;
#X obj -150 -242 r k4;
#X obj -274 -74 r s1;
#X obj -230 -74 r s2;
#X obj -186 -74 r s3;
#X obj -137 -75 r s4;
#X obj -477 419 dac~;
#X obj -40 255 osc~;
#X obj 48 255 osc~;
#X obj 92 255 osc~;
#X obj 4 255 osc~;
#X obj -40 306 *~;
#X obj 4 306 *~;
#X obj 48 306 *~;
#X obj 92 306 *~;
#X obj 37 370 dac~;
#X obj -117 123 r b1;
#X obj -29 125 r b2;
#X obj 70 124 r b3;
#X obj 159 128 r b4;
#X obj -278 -47 *~ 1;
#X obj -232 -47 *~ 0.4;
#X obj -144 -45 *~ 0.7;
#X obj -237 -152 s f2;
#X obj -182 -153 s f3;
#X obj -127 -152 s f4;
#X obj 67 151 bng 15 250 50 0 empty empty empty 17 7 0 10 -262144 -1
-1;
#X msg 84 196 0 2500;
#X obj 71 222 line~;
#X obj 157 151 bng 15 250 50 0 empty empty empty 17 7 0 10 -262144
-1 -1;
#X msg 174 196 0 2500;
#X obj 161 222 line~;
#X obj -118 151 bng 15 250 50 0 empty empty empty 17 7 0 10 -262144
-1 -1;
#X obj -114 222 line~;
#X obj -28 151 bng 15 250 50 0 empty empty empty 17 7 0 10 -262144
-1 -1;
#X msg -11 196 0 2500;
#X obj -24 222 line~;
#X msg -145 196 0.7 600;
#X msg -101 196 0 2500;
#X obj -100 176 delay 600;
#X msg -55 196 0.7 600;
#X obj -10 176 delay 600;
#X msg 40 196 0.7 600;
#X obj 85 176 delay 600;
#X msg 130 196 0.7 600;
#X obj 175 176 delay 600;
#X obj -256 239 *~;
#X msg -207 193 0 2500;
#X obj -220 214 line~;
#X msg -241 193 1 10;
#X obj -206 173 delay 10;
#X obj -299 215 line~;
#X obj -285 173 delay 10;
#X msg -319 193 0 10;
#X msg -286 193 1 2500;
#X obj -286 153 bng 15 250 50 0 empty empty empty 17 7 0 10 -262144
-1 -1;
#X obj -208 155 bng 15 250 50 0 empty empty empty 17 7 0 10 -262144
-1 -1;
#X obj -426 259 *~;
#X msg -377 213 0 2500;
#X obj -390 234 line~;
#X msg -411 213 1 10;
#X obj -376 193 delay 10;
#X obj -469 235 line~;
#X obj -455 193 delay 10;
#X msg -489 213 0 10;
#X msg -456 213 1 2500;
#X obj -456 173 bng 15 250 50 0 empty empty empty 17 7 0 10 -262144
-1 -1;
#X obj -378 175 bng 15 250 50 0 empty empty empty 17 7 0 10 -262144
-1 -1;
#X obj -591 259 *~;
#X msg -542 213 0 2500;
#X obj -555 234 line~;
#X msg -576 213 1 10;
#X obj -541 193 delay 10;
#X obj -634 235 line~;
#X obj -620 193 delay 10;
#X msg -654 213 0 10;
#X msg -621 213 1 2500;
#X obj -620 174 bng 15 250 50 0 empty empty empty 17 7 0 10 -262144
-1 -1;
#X obj -543 175 bng 15 250 50 0 empty empty empty 17 7 0 10 -262144
-1 -1;
#X obj -761 259 *~;
#X msg -712 213 0 2500;
#X obj -725 234 line~;
#X msg -746 213 1 10;
#X obj -711 193 delay 10;
#X obj -804 235 line~;
#X obj -790 193 delay 10;
#X msg -824 213 0 10;
#X msg -791 213 1 2500;
#X obj -791 173 bng 15 250 50 0 empty empty empty 17 7 0 10 -262144
-1 -1;
#X obj -713 175 bng 15 250 50 0 empty empty empty 17 7 0 10 -262144
-1 -1;
#X obj -791 148 r b1;
#X obj -712 52 r b9;
#X obj -621 150 r b2;
#X obj -542 54 r b10;
#X obj -457 149 r b3;
#X obj -378 54 r b11;
#X obj -287 129 r b4;
#X obj -208 27 r b12;
#X obj 31 338 *~ 0.12;
#X obj -468 394 *~ 0.06;
#X obj -193 -366 +;
#X obj -194 -310 +~;
#X obj -252 -411 osc~;
#X obj -193 -391 / 62;
#X obj -194 -338 + 120;
#X obj -224 -436 / 20000;
#X obj -441 -460 print;
#X obj -305 -409 print;
#X obj -266 -377 *~ 10;
#X obj -712 78 f;
#X obj -699 102 + 1;
#X obj -713 128 mod 2;
#X obj -712 153 select 1;
#X obj -542 78 f;
#X obj -529 102 + 1;
#X obj -543 128 mod 2;
#X obj -542 153 select 1;
#X obj -378 78 f;
#X obj -365 102 + 1;
#X obj -379 128 mod 2;
#X obj -378 153 select 1;
#X obj -208 53 f;
#X obj -195 77 + 1;
#X obj -209 103 mod 2;
#X obj -208 128 select 1;
#N canvas 141 217 450 300 overtoneSelector 0;
#X obj 190 -59 inlet;
#X obj 97 194 outlet;
#X obj 158 194 outlet;
#X obj 230 210 outlet;
#X obj 175 41 bng 15 250 50 0 empty empty empty 17 7 0 10 -262144 -1
-1;
#X obj 160 67 2;
#X obj 191 68 3;
#X obj 219 68 4;
#X obj 195 95 bng 15 250 50 0 empty empty empty 17 7 0 10 -262144 -1
-1;
#X obj 225 146 bng 15 250 50 0 empty empty empty 17 7 0 10 -262144
-1 -1;
#X obj 265 41 bng 15 250 50 0 empty empty empty 17 7 0 10 -262144 -1
-1;
#X obj 211 122 4;
#X obj 250 67 3;
#X obj 281 68 5;
#X obj 309 68 7;
#X obj 269 173 6;
#X obj 180 121 5;
#X obj 239 122 2;
#X obj 210 172 6;
#X obj 241 173 2;
#X obj 355 41 bng 15 250 50 0 empty empty empty 17 7 0 10 -262144 -1
-1;
#X obj 375 95 bng 15 250 50 0 empty empty empty 17 7 0 10 -262144 -1
-1;
#X obj 405 146 bng 15 250 50 0 empty empty empty 17 7 0 10 -262144
-1 -1;
#X obj 445 41 bng 15 250 50 0 empty empty empty 17 7 0 10 -262144 -1
-1;
#X obj 449 173 6;
#X obj 421 173 2;
#X obj 178 -25 mod 8;
#X obj 178 15 select 0 1 2 3 4 5 6 7;
#X obj 340 67 7;
#X obj 371 68 2;
#X obj 399 68 5;
#X obj 360 121 8;
#X obj 391 122 2;
#X obj 419 122 4;
#X obj 390 172 5;
#X obj 430 67 5;
#X obj 461 68 3;
#X obj 489 68 7;
#X connect 0 0 26 0;
#X connect 4 0 5 0;
#X connect 4 0 6 0;
#X connect 4 0 7 0;
#X connect 5 0 1 0;
#X connect 6 0 2 0;
#X connect 7 0 3 0;
#X connect 8 0 11 0;
#X connect 8 0 16 0;
#X connect 8 0 17 0;
#X connect 9 0 15 0;
#X connect 9 0 18 0;
#X connect 9 0 19 0;
#X connect 10 0 12 0;
#X connect 10 0 13 0;
#X connect 10 0 14 0;
#X connect 11 0 2 0;
#X connect 12 0 1 0;
#X connect 13 0 2 0;
#X connect 14 0 3 0;
#X connect 15 0 3 0;
#X connect 16 0 1 0;
#X connect 17 0 3 0;
#X connect 18 0 1 0;
#X connect 19 0 2 0;
#X connect 20 0 28 0;
#X connect 20 0 29 0;
#X connect 20 0 30 0;
#X connect 21 0 31 0;
#X connect 21 0 32 0;
#X connect 21 0 33 0;
#X connect 22 0 24 0;
#X connect 22 0 25 0;
#X connect 22 0 34 0;
#X connect 23 0 35 0;
#X connect 23 0 36 0;
#X connect 23 0 37 0;
#X connect 24 0 3 0;
#X connect 25 0 2 0;
#X connect 26 0 27 0;
#X connect 27 0 4 0;
#X connect 27 1 8 0;
#X connect 27 2 9 0;
#X connect 27 3 10 0;
#X connect 27 4 20 0;
#X connect 27 5 21 0;
#X connect 27 6 22 0;
#X connect 27 7 23 0;
#X connect 28 0 1 0;
#X connect 29 0 2 0;
#X connect 30 0 3 0;
#X connect 31 0 1 0;
#X connect 32 0 2 0;
#X connect 33 0 3 0;
#X connect 34 0 1 0;
#X connect 35 0 1 0;
#X connect 36 0 2 0;
#X connect 37 0 3 0;
#X restore -130 -306 pd overtoneSelector;
#N canvas 87 76 548 407 trueRandom100 0;
#X obj -475 -449 outlet;
#X obj -439 -736 time;
#X obj -441 -693 +;
#X obj -431 -663 +;
#X obj -447 -617 +;
#X obj -439 -798 loadbang;
#X obj -439 -767 t b b;
#X obj -448 -585 pack s f;
#X msg -486 -610 seed;
#X msg -467 -532 \$1 \$2;
#X obj -467 -484 random 100;
#X obj -511 -507 bng 15 250 50 0 empty empty empty 17 7 0 10 -262144
-1 -1;
#X connect 1 0 2 0;
#X connect 1 1 3 0;
#X connect 1 2 2 1;
#X connect 1 3 3 1;
#X connect 2 0 4 0;
#X connect 3 0 4 1;
#X connect 4 0 7 1;
#X connect 5 0 6 0;
#X connect 6 0 8 0;
#X connect 6 1 1 0;
#X connect 7 0 9 0;
#X connect 8 0 7 0;
#X connect 9 0 10 0;
#X connect 9 0 11 0;
#X connect 10 0 0 0;
#X connect 11 0 10 0;
#X restore -284 -545 pd trueRandom100;
#X obj 12 -193 unpackOSC;
#X obj -85 -218 import mrpeach;
#X floatatom 103 -157 5 0 0 0 - - -;
#X obj 103 -137 s s1;
#X floatatom 137 -157 5 0 0 0 - - -;
#X obj 137 -137 s s2;
#X floatatom 173 -157 5 0 0 0 - - -;
#X floatatom 207 -157 5 0 0 0 - - -;
#X obj 173 -137 s s3;
#X obj 207 -137 s s4;
#X floatatom 243 -156 5 0 0 0 - - -;
#X floatatom 277 -156 5 0 0 0 - - -;
#X floatatom 313 -156 5 0 0 0 - - -;
#X floatatom 347 -156 5 0 0 0 - - -;
#X obj 243 -136 s s5;
#X obj 277 -136 s s6;
#X obj 313 -136 s s7;
#X obj 347 -136 s s8;
#X floatatom 81 -88 5 0 0 0 - - -;
#X floatatom 115 -88 5 0 0 0 - - -;
#X floatatom 151 -88 5 0 0 0 - - -;
#X floatatom 185 -88 5 0 0 0 - - -;
#X floatatom 221 -87 5 0 0 0 - - -;
#X floatatom 255 -87 5 0 0 0 - - -;
#X floatatom 291 -87 5 0 0 0 - - -;
#X floatatom 325 -87 5 0 0 0 - - -;
#X obj 81 -68 s k1;
#X obj 115 -68 s k2;
#X obj 151 -68 s k3;
#X obj 185 -68 s k4;
#X obj 221 -67 s k5;
#X obj 255 -67 s k6;
#X obj 291 -67 s k7;
#X obj 325 -67 s k8;
#X text 108 -233 <-- Change the IP Address to your laptop's IP address
;
#X obj 76 -16 s b2;
#X obj 108 -16 s b3;
#X obj 139 -16 s b4;
#X obj 172 -16 s b5;
#X obj 204 -16 s b6;
#X obj 237 -17 s b7;
#X obj 270 -17 s b8;
#X text 52 -179 SLIDERS;
#X text 42 -107 KNOBS;
#X text 6 -35 BUTTONS;
#X obj 13 -217 udpreceive 3001;
#X obj -65 -125 loadbang;
#X msg -65 -79 \; pd dsp 1 \;;
#X obj -8 -126 s lb;
#X obj -65 -102 delay 2000;
#X text -22 13 BUTTONS;
#X obj 44 -15 s b1;
#X obj 103 -178 routeOSC /s1 /s2 /s3 /s4 /s5 /s6 /s7 /s8;
#X obj 54 -42 routeOSC /b1 /b2 /b3 /b4 /b5 /b6 /b7 /b8;
#X obj 37 35 s b9;
#X obj 70 35 s b10;
#X obj 102 35 s b11;
#X obj 133 35 s b12;
#X obj 166 35 s b13;
#X obj 198 35 s b14;
#X obj 231 34 s b15;
#X obj 264 34 s b16;
#X obj 81 -109 routeOSC /k1 /k2 /k3 /k4 /k5 /k6 /k7 /k8;
#X obj 24 10 routeOSC /b10 /b11 /b12 /b13 /b14 /b15 /b16 /b17;
#X connect 0 0 7 0;
#X connect 1 0 9 0;
#X connect 2 0 10 0;
#X connect 3 0 17 0;
#X connect 4 0 19 0;
#X connect 5 0 8 0;
#X connect 6 0 15 0;
#X connect 7 0 103 0;
#X connect 8 0 92 0;
#X connect 9 0 81 0;
#X connect 10 0 70 0;
#X connect 11 0 14 0;
#X connect 12 0 16 0;
#X connect 13 0 18 0;
#X connect 14 0 15 1;
#X connect 14 0 47 0;
#X connect 15 0 5 0;
#X connect 15 0 34 0;
#X connect 16 0 17 1;
#X connect 16 0 48 0;
#X connect 17 0 1 0;
#X connect 17 0 32 0;
#X connect 18 0 19 1;
#X connect 18 0 49 0;
#X connect 19 0 2 0;
#X connect 19 0 33 0;
#X connect 20 0 0 0;
#X connect 20 0 31 0;
#X connect 21 0 9 1;
#X connect 22 0 127 0;
#X connect 23 0 11 0;
#X connect 24 0 12 0;
#X connect 25 0 13 0;
#X connect 26 0 44 0;
#X connect 27 0 45 0;
#X connect 28 0 21 0;
#X connect 29 0 46 0;
#X connect 31 0 35 0;
#X connect 32 0 37 0;
#X connect 33 0 38 0;
#X connect 34 0 36 0;
#X connect 35 0 122 0;
#X connect 36 0 122 0;
#X connect 37 0 122 0;
#X connect 38 0 122 0;
#X connect 40 0 56 0;
#X connect 41 0 58 0;
#X connect 42 0 50 0;
#X connect 43 0 53 0;
#X connect 44 0 7 1;
#X connect 45 0 8 1;
#X connect 46 0 10 1;
#X connect 50 0 66 0;
#X connect 50 0 67 0;
#X connect 51 0 52 0;
#X connect 52 0 37 1;
#X connect 53 0 68 0;
#X connect 53 0 69 0;
#X connect 54 0 55 0;
#X connect 55 0 38 1;
#X connect 56 0 61 0;
#X connect 56 0 63 0;
#X connect 57 0 35 1;
#X connect 58 0 64 0;
#X connect 58 0 65 0;
#X connect 59 0 60 0;
#X connect 60 0 36 1;
#X connect 61 0 57 0;
#X connect 62 0 57 0;
#X connect 63 0 62 0;
#X connect 64 0 60 0;
#X connect 65 0 59 0;
#X connect 66 0 52 0;
#X connect 67 0 51 0;
#X connect 68 0 55 0;
#X connect 69 0 54 0;
#X connect 70 0 123 0;
#X connect 71 0 72 0;
#X connect 72 0 70 1;
#X connect 73 0 72 0;
#X connect 74 0 71 0;
#X connect 75 0 70 1;
#X connect 76 0 78 0;
#X connect 77 0 75 0;
#X connect 78 0 75 0;
#X connect 79 0 77 0;
#X connect 79 0 76 0;
#X connect 80 0 73 0;
#X connect 80 0 74 0;
#X connect 81 0 123 0;
#X connect 82 0 83 0;
#X connect 83 0 81 1;
#X connect 84 0 83 0;
#X connect 85 0 82 0;
#X connect 86 0 81 1;
#X connect 87 0 89 0;
#X connect 88 0 86 0;
#X connect 89 0 86 0;
#X connect 90 0 88 0;
#X connect 90 0 87 0;
#X connect 91 0 84 0;
#X connect 91 0 85 0;
#X connect 92 0 123 0;
#X connect 93 0 94 0;
#X connect 94 0 92 1;
#X connect 95 0 94 0;
#X connect 96 0 93 0;
#X connect 97 0 92 1;
#X connect 98 0 100 0;
#X connect 99 0 97 0;
#X connect 100 0 97 0;
#X connect 101 0 99 0;
#X connect 101 0 98 0;
#X connect 102 0 95 0;
#X connect 102 0 96 0;
#X connect 103 0 123 0;
#X connect 104 0 105 0;
#X connect 105 0 103 1;
#X connect 106 0 105 0;
#X connect 107 0 104 0;
#X connect 108 0 103 1;
#X connect 109 0 111 0;
#X connect 110 0 108 0;
#X connect 111 0 108 0;
#X connect 112 0 110 0;
#X connect 112 0 109 0;
#X connect 113 0 106 0;
#X connect 113 0 107 0;
#X connect 114 0 112 0;
#X connect 115 0 133 0;
#X connect 116 0 101 0;
#X connect 117 0 137 0;
#X connect 118 0 90 0;
#X connect 119 0 141 0;
#X connect 120 0 79 0;
#X connect 121 0 145 0;
#X connect 122 0 39 0;
#X connect 122 0 39 1;
#X connect 123 0 30 0;
#X connect 123 0 30 1;
#X connect 124 0 128 0;
#X connect 125 0 6 0;
#X connect 125 0 20 0;
#X connect 125 0 3 0;
#X connect 125 0 4 0;
#X connect 126 0 132 0;
#X connect 127 0 124 0;
#X connect 128 0 125 0;
#X connect 129 0 126 0;
#X connect 129 0 131 0;
#X connect 132 0 125 1;
#X connect 133 0 134 0;
#X connect 133 0 135 0;
#X connect 134 0 133 1;
#X connect 135 0 136 0;
#X connect 136 0 113 0;
#X connect 137 0 138 0;
#X connect 137 0 139 0;
#X connect 138 0 137 1;
#X connect 139 0 140 0;
#X connect 140 0 102 0;
#X connect 141 0 142 0;
#X connect 141 0 143 0;
#X connect 142 0 141 1;
#X connect 143 0 144 0;
#X connect 144 0 91 0;
#X connect 145 0 146 0;
#X connect 145 0 147 0;
#X connect 146 0 145 1;
#X connect 147 0 148 0;
#X connect 148 0 80 0;
#X connect 149 0 6 1;
#X connect 149 1 3 1;
#X connect 149 2 4 1;
#X connect 150 0 130 0;
#X connect 150 0 129 0;
#X connect 150 0 149 0;
#X connect 151 0 203 0;
#X connect 151 0 204 0;
#X connect 151 0 213 0;
#X connect 151 0 214 0;
#X connect 153 0 154 0;
#X connect 155 0 156 0;
#X connect 157 0 159 0;
#X connect 158 0 160 0;
#X connect 161 0 165 0;
#X connect 162 0 166 0;
#X connect 163 0 167 0;
#X connect 164 0 168 0;
#X connect 169 0 177 0;
#X connect 170 0 178 0;
#X connect 171 0 179 0;
#X connect 172 0 180 0;
#X connect 173 0 181 0;
#X connect 174 0 182 0;
#X connect 175 0 183 0;
#X connect 176 0 184 0;
#X connect 196 0 151 0;
#X connect 197 0 199 0;
#X connect 197 0 200 0;
#X connect 200 0 198 0;
#X connect 203 0 153 0;
#X connect 203 1 155 0;
#X connect 203 2 157 0;
#X connect 203 3 158 0;
#X connect 203 4 161 0;
#X connect 203 5 162 0;
#X connect 203 6 163 0;
#X connect 203 7 164 0;
#X connect 204 0 202 0;
#X connect 204 1 186 0;
#X connect 204 2 187 0;
#X connect 204 3 188 0;
#X connect 204 4 189 0;
#X connect 204 5 190 0;
#X connect 204 6 191 0;
#X connect 204 7 192 0;
#X connect 213 0 169 0;
#X connect 213 1 170 0;
#X connect 213 2 171 0;
#X connect 213 3 172 0;
#X connect 213 4 173 0;
#X connect 213 5 174 0;
#X connect 213 6 175 0;
#X connect 213 7 176 0;
#X connect 214 0 205 0;
#X connect 214 1 206 0;
#X connect 214 2 207 0;
#X connect 214 3 208 0;
#X connect 214 4 209 0;
#X connect 214 5 210 0;
#X connect 214 6 211 0;
#X connect 214 7 212 0;
