#N canvas 398 224 972 843 10;
#X declare -lib mrpeach;
#X obj -680 -94 osc~;
#X obj -592 -94 osc~;
#X obj -548 -94 osc~;
#X obj -504 -94 osc~;
#X obj -460 -94 osc~;
#X obj -416 -94 osc~;
#X obj -320 -94 osc~;
#X obj -588 -319 *~ 3;
#X obj -544 -319 *~ 4;
#X obj -500 -319 *~ 5;
#X obj -456 -319 *~ 6;
#X obj -412 -319 *~ 7;
#X obj -368 -319 *~ 8;
#X obj -636 -94 osc~;
#X obj -632 -319 *~ 2;
#X obj -695 -19 *~;
#X obj -651 -19 *~;
#X obj -607 -19 *~;
#X obj -563 -19 *~;
#X obj -519 -19 *~;
#X obj -475 -19 *~;
#X obj -431 -19 *~;
#X obj -334 -19 *~;
#X obj -674 -240 / 127;
#X obj -663 -212 * 0.02;
#X obj -621 -231 / 127;
#X obj -610 -212 * 0.02;
#X obj -567 -231 / 127;
#X obj -556 -212 * 0.02;
#X obj -513 -231 / 127;
#X obj -502 -212 * 0.02;
#X obj -459 -231 / 127;
#X obj -448 -212 * 0.02;
#X obj -405 -231 / 127;
#X obj -394 -212 * 0.02;
#X obj -351 -231 / 127;
#X obj -340 -212 * 0.02;
#X obj -663 -186 + 1;
#X obj -655 -123 *~;
#X obj -610 -186 + 1;
#X obj -602 -123 *~;
#X obj -556 -184 + 1;
#X obj -548 -121 *~;
#X obj -502 -187 + 1;
#X obj -494 -124 *~;
#X obj -448 -186 + 1;
#X obj -440 -123 *~;
#X obj -395 -186 + 1;
#X obj -387 -123 *~;
#X obj -341 -184 + 1;
#X obj -333 -121 *~;
#X obj -709 -124 *~ 1;
#X obj -594 -43 *~ 0.7;
#X obj 273 -53 unpackOSC;
#X obj 176 -78 import mrpeach;
#X floatatom 393 3 5 0 0 0 - - -;
#X obj 393 23 s s1;
#X floatatom 427 3 5 0 0 0 - - -;
#X obj 427 23 s s2;
#X floatatom 463 3 5 0 0 0 - - -;
#X floatatom 497 3 5 0 0 0 - - -;
#X obj 463 23 s s3;
#X obj 497 23 s s4;
#X floatatom 533 4 5 0 0 0 - - -;
#X floatatom 567 4 5 0 0 0 - - -;
#X floatatom 603 4 5 0 0 0 - - -;
#X floatatom 637 4 5 0 0 0 - - -;
#X obj 533 24 s s5;
#X obj 567 24 s s6;
#X obj 603 24 s s7;
#X obj 637 24 s s8;
#X floatatom 371 72 5 0 0 0 - - -;
#X floatatom 405 72 5 0 0 0 - - -;
#X floatatom 441 72 5 0 0 0 - - -;
#X floatatom 475 72 5 0 0 0 - - -;
#X floatatom 511 73 5 0 0 0 - - -;
#X floatatom 545 73 5 0 0 0 - - -;
#X floatatom 581 73 5 0 0 0 - - -;
#X floatatom 615 73 5 0 0 0 - - -;
#X obj 371 92 s k1;
#X obj 405 92 s k2;
#X obj 441 92 s k3;
#X obj 475 92 s k4;
#X obj 511 93 s k5;
#X obj 545 93 s k6;
#X obj 581 93 s k7;
#X obj 615 93 s k8;
#X text 398 -73 <-- Change the IP Address to your laptop's IP address
;
#X obj 375 163 s b2;
#X obj 407 163 s b3;
#X obj 438 163 s b4;
#X obj 471 163 s b5;
#X obj 503 163 s b6;
#X obj 536 162 s b7;
#X obj 569 162 s b8;
#X text 342 -19 SLIDERS;
#X text 332 53 KNOBS;
#X text 296 125 BUTTONS;
#X obj 274 -77 udpreceive 3001;
#X obj 253 -181 loadbang;
#X msg 253 -135 \; pd dsp 1 \;;
#X obj 310 -182 s lb;
#X obj 253 -158 delay 2000;
#X obj -695 -324 * 0;
#X obj -698 -286 + 127;
#X obj 349 203 bng 15 250 50 0 empty empty empty 17 7 0 10 -262144
-1 -1;
#X obj 382 203 bng 15 250 50 0 empty empty empty 17 7 0 10 -262144
-1 -1;
#X obj 414 203 bng 15 250 50 0 empty empty empty 17 7 0 10 -262144
-1 -1;
#X obj 445 203 bng 15 250 50 0 empty empty empty 17 7 0 10 -262144
-1 -1;
#X obj 478 203 bng 15 250 50 0 empty empty empty 17 7 0 10 -262144
-1 -1;
#X obj 510 203 bng 15 250 50 0 empty empty empty 17 7 0 10 -262144
-1 -1;
#X obj 543 202 bng 15 250 50 0 empty empty empty 17 7 0 10 -262144
-1 -1;
#X obj 576 202 bng 15 250 50 0 empty empty empty 17 7 0 10 -262144
-1 -1;
#X text 303 185 BUTTONS;
#X obj 343 164 s b1;
#X obj -524 -487 r k1;
#X obj -650 -297 r k2;
#X obj -610 -299 r k3;
#X obj -556 -299 r k4;
#X obj -502 -299 r k5;
#X obj -448 -299 r k6;
#X obj -394 -299 r k7;
#X obj -340 -299 r k8;
#X obj -680 -71 r s1;
#X obj -636 -71 r s2;
#X obj -592 -71 r s3;
#X obj -543 -72 r s4;
#X obj -499 -72 r s5;
#X obj -455 -72 r s6;
#X obj -413 -74 r s7;
#X obj -317 -74 r s8;
#X obj 393 -18 routeOSC /s1 /s2 /s3 /s4 /s5 /s6 /s7 /s8;
#X obj 344 118 routeOSC /b1 /b2 /b3 /b4 /b5 /b6 /b7 /b8;
#X obj 349 225 s b9;
#X obj 382 223 s b10;
#X obj 414 223 s b11;
#X obj 445 223 s b12;
#X obj 478 223 s b13;
#X obj 510 223 s b14;
#X obj 543 222 s b15;
#X obj 576 222 s b16;
#X obj 371 51 routeOSC /k1 /k2 /k3 /k4 /k5 /k6 /k7 /k8;
#X obj -693 -362 r b9;
#X obj -477 419 dac~;
#X obj -190 -505 osc~;
#X obj -102 -505 osc~;
#X obj -58 -505 osc~;
#X obj -14 -505 osc~;
#X obj 30 -505 osc~;
#X obj 74 -505 osc~;
#X obj 118 -505 osc~;
#X obj -146 -505 osc~;
#X obj -190 -454 *~;
#X obj -146 -454 *~;
#X obj -102 -454 *~;
#X obj -58 -454 *~;
#X obj -14 -454 *~;
#X obj 30 -454 *~;
#X obj 74 -454 *~;
#X obj 118 -454 *~;
#X obj -13 -390 dac~;
#X obj -337 -637 r b1;
#X obj -249 -635 r b2;
#X obj -150 -636 r b3;
#X obj -61 -632 r b4;
#X obj 33 -633 r b5;
#X obj 120 -634 r b6;
#X obj 207 -634 r b7;
#X obj 301 -635 r b8;
#X obj -684 -44 *~ 1;
#X obj -638 -44 *~ 0.4;
#X obj -550 -42 *~ 0.7;
#X obj -504 -48 *~ 0.6;
#X obj -460 -47 *~ 0.5;
#X obj -414 -45 *~ 0.45;
#X obj -318 -46 *~ 0.65;
#X obj 34 159 *~;
#X obj 82 53 r b16;
#X obj -643 -149 s f2;
#X obj -588 -150 s f3;
#X obj -533 -149 s f4;
#X obj -482 -148 s f5;
#X obj -430 -151 s f6;
#X obj -375 -153 s f7;
#X obj -311 -153 s f8;
#X obj 340 144 bng 15 250 50 0 empty empty empty 17 7 0 10 -262144
-1 -1;
#X obj 373 144 bng 15 250 50 0 empty empty empty 17 7 0 10 -262144
-1 -1;
#X obj 405 144 bng 15 250 50 0 empty empty empty 17 7 0 10 -262144
-1 -1;
#X obj 436 144 bng 15 250 50 0 empty empty empty 17 7 0 10 -262144
-1 -1;
#X obj 469 144 bng 15 250 50 0 empty empty empty 17 7 0 10 -262144
-1 -1;
#X obj 501 144 bng 15 250 50 0 empty empty empty 17 7 0 10 -262144
-1 -1;
#X obj 534 143 bng 15 250 50 0 empty empty empty 17 7 0 10 -262144
-1 -1;
#X obj 567 143 bng 15 250 50 0 empty empty empty 17 7 0 10 -262144
-1 -1;
#X obj 121 -609 bng 15 250 50 0 empty empty empty 17 7 0 10 -262144
-1 -1;
#X msg 138 -564 0 2500;
#X obj 125 -538 line~;
#X obj 211 -609 bng 15 250 50 0 empty empty empty 17 7 0 10 -262144
-1 -1;
#X msg 228 -564 0 2500;
#X obj 215 -538 line~;
#X obj 301 -609 bng 15 250 50 0 empty empty empty 17 7 0 10 -262144
-1 -1;
#X msg 318 -564 0 2500;
#X obj 305 -538 line~;
#X obj -153 -609 bng 15 250 50 0 empty empty empty 17 7 0 10 -262144
-1 -1;
#X msg -136 -564 0 2500;
#X obj -149 -538 line~;
#X obj -63 -609 bng 15 250 50 0 empty empty empty 17 7 0 10 -262144
-1 -1;
#X msg -46 -564 0 2500;
#X obj -59 -538 line~;
#X obj 27 -609 bng 15 250 50 0 empty empty empty 17 7 0 10 -262144
-1 -1;
#X msg 44 -564 0 2500;
#X obj 31 -538 line~;
#X obj -338 -609 bng 15 250 50 0 empty empty empty 17 7 0 10 -262144
-1 -1;
#X obj -334 -538 line~;
#X obj -248 -609 bng 15 250 50 0 empty empty empty 17 7 0 10 -262144
-1 -1;
#X msg -231 -564 0 2500;
#X obj -244 -538 line~;
#X msg -365 -564 0.7 600;
#X msg -321 -564 0 2500;
#X obj -320 -584 delay 600;
#X msg -275 -564 0.7 600;
#X obj -230 -584 delay 600;
#X msg -180 -564 0.7 600;
#X obj -135 -584 delay 600;
#X msg -90 -564 0.7 600;
#X obj -45 -584 delay 600;
#X msg 0 -564 0.7 600;
#X obj 45 -584 delay 600;
#X msg 94 -564 0.7 600;
#X obj 139 -584 delay 600;
#X msg 184 -564 0.7 600;
#X obj 229 -585 delay 600;
#X msg 274 -564 0.7 600;
#X obj 319 -584 delay 600;
#X msg 83 113 0 2500;
#X obj 70 134 line~;
#X msg 49 113 1 10;
#X obj 84 93 delay 10;
#X obj -9 135 line~;
#X obj 5 93 delay 10;
#X msg -29 113 0 10;
#X msg 4 113 1 2500;
#X obj 3 49 r b8;
#X obj 4 73 bng 15 250 50 0 empty empty empty 17 7 0 10 -262144 -1
-1;
#X obj 82 75 bng 15 250 50 0 empty empty empty 17 7 0 10 -262144 -1
-1;
#X obj -136 159 *~;
#X msg -87 113 0 2500;
#X obj -100 134 line~;
#X msg -121 113 1 10;
#X obj -86 93 delay 10;
#X obj -179 135 line~;
#X obj -165 93 delay 10;
#X msg -199 113 0 10;
#X msg -166 113 1 2500;
#X obj -166 73 bng 15 250 50 0 empty empty empty 17 7 0 10 -262144
-1 -1;
#X obj -88 75 bng 15 250 50 0 empty empty empty 17 7 0 10 -262144 -1
-1;
#X obj -88 53 r b15;
#X obj -167 49 r b7;
#X obj -301 159 *~;
#X msg -252 113 0 2500;
#X obj -265 134 line~;
#X msg -286 113 1 10;
#X obj -251 93 delay 10;
#X obj -344 135 line~;
#X obj -330 93 delay 10;
#X msg -364 113 0 10;
#X msg -331 113 1 2500;
#X obj -331 73 bng 15 250 50 0 empty empty empty 17 7 0 10 -262144
-1 -1;
#X obj -253 75 bng 15 250 50 0 empty empty empty 17 7 0 10 -262144
-1 -1;
#X obj -471 159 *~;
#X msg -422 113 0 2500;
#X obj -435 134 line~;
#X msg -456 113 1 10;
#X obj -421 93 delay 10;
#X obj -514 135 line~;
#X obj -500 93 delay 10;
#X msg -534 113 0 10;
#X msg -501 113 1 2500;
#X obj -501 73 bng 15 250 50 0 empty empty empty 17 7 0 10 -262144
-1 -1;
#X obj -423 75 bng 15 250 50 0 empty empty empty 17 7 0 10 -262144
-1 -1;
#X obj -636 159 *~;
#X msg -587 113 0 2500;
#X obj -600 134 line~;
#X msg -621 113 1 10;
#X obj -586 93 delay 10;
#X obj -679 135 line~;
#X obj -665 93 delay 10;
#X msg -699 113 0 10;
#X msg -666 113 1 2500;
#X obj -666 73 bng 15 250 50 0 empty empty empty 17 7 0 10 -262144
-1 -1;
#X obj -588 75 bng 15 250 50 0 empty empty empty 17 7 0 10 -262144
-1 -1;
#X obj -806 159 *~;
#X msg -757 113 0 2500;
#X obj -770 134 line~;
#X msg -791 113 1 10;
#X obj -756 93 delay 10;
#X obj -849 135 line~;
#X obj -835 93 delay 10;
#X msg -869 113 0 10;
#X msg -836 113 1 2500;
#X obj -836 73 bng 15 250 50 0 empty empty empty 17 7 0 10 -262144
-1 -1;
#X obj -758 75 bng 15 250 50 0 empty empty empty 17 7 0 10 -262144
-1 -1;
#X obj -971 159 *~;
#X msg -922 113 0 2500;
#X obj -935 134 line~;
#X msg -956 113 1 10;
#X obj -921 93 delay 10;
#X obj -1014 135 line~;
#X obj -1000 93 delay 10;
#X msg -1034 113 0 10;
#X msg -1001 113 1 2500;
#X obj -1000 74 bng 15 250 50 0 empty empty empty 17 7 0 10 -262144
-1 -1;
#X obj -923 75 bng 15 250 50 0 empty empty empty 17 7 0 10 -262144
-1 -1;
#X obj -1141 159 *~;
#X msg -1092 113 0 2500;
#X obj -1105 134 line~;
#X msg -1126 113 1 10;
#X obj -1091 93 delay 10;
#X obj -1184 135 line~;
#X obj -1170 93 delay 10;
#X msg -1204 113 0 10;
#X msg -1171 113 1 2500;
#X obj -1171 73 bng 15 250 50 0 empty empty empty 17 7 0 10 -262144
-1 -1;
#X obj -1093 75 bng 15 250 50 0 empty empty empty 17 7 0 10 -262144
-1 -1;
#X obj -1172 49 r b1;
#X obj -1093 53 r b9;
#X obj -1001 50 r b2;
#X obj -923 53 r b10;
#X obj -837 49 r b3;
#X obj -758 53 r b11;
#X obj -667 49 r b4;
#X obj -588 53 r b12;
#X obj -502 49 r b5;
#X obj -423 53 r b13;
#X obj -332 49 r b6;
#X obj -253 53 r b14;
#X obj 349 182 routeOSC /b10 /b11 /b12 /b13 /b14 /b15 /b16 /b17;
#X obj -19 -422 *~ 0.12;
#X obj -468 394 *~ 0.06;
#X obj -523 -436 +;
#X obj -524 -400 +~;
#X obj -596 -467 *~ 20;
#X obj -596 -493 osc~;
#X floatatom -604 -421 5 0 0 0 - - -;
#X obj -859 -286 time;
#X obj -861 -243 +;
#X obj -851 -213 +;
#X obj -867 -167 +;
#X obj -828 384;
#X obj -859 -348 loadbang;
#X obj -859 -317 t b b;
#X obj -868 -135 pack s f;
#X msg -906 -160 seed;
#X obj -827 86;
#X msg -347 -582;
#X msg -946 159;
#X msg -887 -82 \$1 \$2;
#X obj -887 -54 random 350;
#X obj -523 -461 / 62;
#X obj -546 -559 * 3000;
#X obj -441 -418 + 120;
#X obj -554 -526 / 20000;
#X connect 0 0 15 0;
#X connect 1 0 17 0;
#X connect 2 0 18 0;
#X connect 3 0 19 0;
#X connect 4 0 20 0;
#X connect 5 0 21 0;
#X connect 6 0 22 0;
#X connect 7 0 40 0;
#X connect 8 0 42 0;
#X connect 9 0 44 0;
#X connect 10 0 46 0;
#X connect 11 0 48 0;
#X connect 12 0 50 0;
#X connect 13 0 16 0;
#X connect 14 0 38 0;
#X connect 15 0 312 0;
#X connect 16 0 301 0;
#X connect 17 0 290 0;
#X connect 18 0 279 0;
#X connect 19 0 268 0;
#X connect 20 0 257 0;
#X connect 21 0 244 0;
#X connect 22 0 176 0;
#X connect 23 0 24 0;
#X connect 24 0 37 0;
#X connect 25 0 26 0;
#X connect 26 0 39 0;
#X connect 27 0 28 0;
#X connect 28 0 41 0;
#X connect 29 0 30 0;
#X connect 30 0 43 0;
#X connect 31 0 32 0;
#X connect 32 0 45 0;
#X connect 33 0 34 0;
#X connect 34 0 47 0;
#X connect 35 0 36 0;
#X connect 36 0 49 0;
#X connect 37 0 38 1;
#X connect 37 0 178 0;
#X connect 38 0 13 0;
#X connect 38 0 151 0;
#X connect 39 0 40 1;
#X connect 39 0 179 0;
#X connect 40 0 1 0;
#X connect 40 0 145 0;
#X connect 41 0 42 1;
#X connect 41 0 180 0;
#X connect 42 0 2 0;
#X connect 42 0 146 0;
#X connect 43 0 44 1;
#X connect 43 0 181 0;
#X connect 44 0 3 0;
#X connect 44 0 147 0;
#X connect 45 0 46 1;
#X connect 45 0 182 0;
#X connect 46 0 4 0;
#X connect 46 0 148 0;
#X connect 47 0 48 1;
#X connect 47 0 183 0;
#X connect 48 0 5 0;
#X connect 48 0 149 0;
#X connect 49 0 50 1;
#X connect 49 0 184 0;
#X connect 50 0 6 0;
#X connect 50 0 150 0;
#X connect 51 0 0 0;
#X connect 51 0 144 0;
#X connect 52 0 17 1;
#X connect 53 0 131 0;
#X connect 53 0 132 0;
#X connect 53 0 141 0;
#X connect 53 0 335 0;
#X connect 55 0 56 0;
#X connect 57 0 58 0;
#X connect 59 0 61 0;
#X connect 60 0 62 0;
#X connect 63 0 67 0;
#X connect 64 0 68 0;
#X connect 65 0 69 0;
#X connect 66 0 70 0;
#X connect 71 0 79 0;
#X connect 72 0 80 0;
#X connect 73 0 81 0;
#X connect 74 0 82 0;
#X connect 75 0 83 0;
#X connect 76 0 84 0;
#X connect 77 0 85 0;
#X connect 78 0 86 0;
#X connect 98 0 53 0;
#X connect 99 0 101 0;
#X connect 99 0 102 0;
#X connect 102 0 100 0;
#X connect 103 0 104 0;
#X connect 103 0 338 0;
#X connect 104 0 23 0;
#X connect 104 0 25 0;
#X connect 104 0 27 0;
#X connect 104 0 29 0;
#X connect 104 0 31 0;
#X connect 104 0 33 0;
#X connect 104 0 35 0;
#X connect 105 0 133 0;
#X connect 106 0 134 0;
#X connect 107 0 135 0;
#X connect 108 0 136 0;
#X connect 109 0 137 0;
#X connect 110 0 138 0;
#X connect 111 0 139 0;
#X connect 112 0 140 0;
#X connect 115 0 357 0;
#X connect 116 0 24 0;
#X connect 117 0 26 0;
#X connect 118 0 28 0;
#X connect 119 0 30 0;
#X connect 120 0 32 0;
#X connect 121 0 34 0;
#X connect 122 0 36 0;
#X connect 123 0 169 0;
#X connect 124 0 170 0;
#X connect 125 0 52 0;
#X connect 126 0 171 0;
#X connect 127 0 172 0;
#X connect 128 0 173 0;
#X connect 129 0 174 0;
#X connect 130 0 175 0;
#X connect 131 0 55 0;
#X connect 131 1 57 0;
#X connect 131 2 59 0;
#X connect 131 3 60 0;
#X connect 131 4 63 0;
#X connect 131 5 64 0;
#X connect 131 6 65 0;
#X connect 131 7 66 0;
#X connect 132 0 185 0;
#X connect 132 1 186 0;
#X connect 132 2 187 0;
#X connect 132 3 188 0;
#X connect 132 4 189 0;
#X connect 132 5 190 0;
#X connect 132 6 191 0;
#X connect 132 7 192 0;
#X connect 141 0 71 0;
#X connect 141 1 72 0;
#X connect 141 2 73 0;
#X connect 141 3 74 0;
#X connect 141 4 75 0;
#X connect 141 5 76 0;
#X connect 141 6 77 0;
#X connect 141 7 78 0;
#X connect 142 0 103 0;
#X connect 144 0 152 0;
#X connect 145 0 154 0;
#X connect 146 0 155 0;
#X connect 147 0 156 0;
#X connect 148 0 157 0;
#X connect 149 0 158 0;
#X connect 150 0 159 0;
#X connect 151 0 153 0;
#X connect 152 0 336 0;
#X connect 153 0 336 0;
#X connect 154 0 336 0;
#X connect 155 0 336 0;
#X connect 156 0 336 0;
#X connect 157 0 336 0;
#X connect 158 0 336 0;
#X connect 159 0 336 0;
#X connect 161 0 211 0;
#X connect 162 0 213 0;
#X connect 163 0 202 0;
#X connect 164 0 205 0;
#X connect 165 0 208 0;
#X connect 166 0 193 0;
#X connect 167 0 196 0;
#X connect 168 0 199 0;
#X connect 169 0 15 1;
#X connect 170 0 16 1;
#X connect 171 0 18 1;
#X connect 172 0 19 1;
#X connect 173 0 20 1;
#X connect 174 0 21 1;
#X connect 175 0 22 1;
#X connect 176 0 337 0;
#X connect 177 0 243 0;
#X connect 185 0 114 0;
#X connect 186 0 88 0;
#X connect 187 0 89 0;
#X connect 188 0 90 0;
#X connect 189 0 91 0;
#X connect 190 0 92 0;
#X connect 191 0 93 0;
#X connect 192 0 94 0;
#X connect 193 0 227 0;
#X connect 193 0 228 0;
#X connect 194 0 195 0;
#X connect 195 0 157 1;
#X connect 196 0 229 0;
#X connect 196 0 230 0;
#X connect 197 0 198 0;
#X connect 198 0 158 1;
#X connect 199 0 231 0;
#X connect 199 0 232 0;
#X connect 200 0 201 0;
#X connect 201 0 159 1;
#X connect 202 0 221 0;
#X connect 202 0 222 0;
#X connect 203 0 204 0;
#X connect 204 0 154 1;
#X connect 205 0 223 0;
#X connect 205 0 224 0;
#X connect 206 0 207 0;
#X connect 207 0 155 1;
#X connect 208 0 225 0;
#X connect 208 0 226 0;
#X connect 209 0 210 0;
#X connect 210 0 156 1;
#X connect 211 0 216 0;
#X connect 211 0 218 0;
#X connect 212 0 152 1;
#X connect 213 0 219 0;
#X connect 213 0 220 0;
#X connect 214 0 215 0;
#X connect 215 0 153 1;
#X connect 216 0 212 0;
#X connect 217 0 212 0;
#X connect 218 0 217 0;
#X connect 219 0 215 0;
#X connect 220 0 214 0;
#X connect 221 0 204 0;
#X connect 222 0 203 0;
#X connect 223 0 207 0;
#X connect 224 0 206 0;
#X connect 225 0 210 0;
#X connect 226 0 209 0;
#X connect 227 0 195 0;
#X connect 228 0 194 0;
#X connect 229 0 198 0;
#X connect 230 0 197 0;
#X connect 231 0 201 0;
#X connect 232 0 200 0;
#X connect 233 0 234 0;
#X connect 234 0 176 1;
#X connect 235 0 234 0;
#X connect 236 0 233 0;
#X connect 237 0 176 1;
#X connect 238 0 240 0;
#X connect 239 0 237 0;
#X connect 240 0 237 0;
#X connect 241 0 242 0;
#X connect 242 0 239 0;
#X connect 242 0 238 0;
#X connect 243 0 235 0;
#X connect 243 0 236 0;
#X connect 244 0 337 0;
#X connect 245 0 246 0;
#X connect 246 0 244 1;
#X connect 247 0 246 0;
#X connect 248 0 245 0;
#X connect 249 0 244 1;
#X connect 250 0 252 0;
#X connect 251 0 249 0;
#X connect 252 0 249 0;
#X connect 253 0 251 0;
#X connect 253 0 250 0;
#X connect 254 0 247 0;
#X connect 254 0 248 0;
#X connect 255 0 254 0;
#X connect 256 0 253 0;
#X connect 257 0 337 0;
#X connect 258 0 259 0;
#X connect 259 0 257 1;
#X connect 260 0 259 0;
#X connect 261 0 258 0;
#X connect 262 0 257 1;
#X connect 263 0 265 0;
#X connect 264 0 262 0;
#X connect 265 0 262 0;
#X connect 266 0 264 0;
#X connect 266 0 263 0;
#X connect 267 0 260 0;
#X connect 267 0 261 0;
#X connect 268 0 337 0;
#X connect 269 0 270 0;
#X connect 270 0 268 1;
#X connect 271 0 270 0;
#X connect 272 0 269 0;
#X connect 273 0 268 1;
#X connect 274 0 276 0;
#X connect 275 0 273 0;
#X connect 276 0 273 0;
#X connect 277 0 275 0;
#X connect 277 0 274 0;
#X connect 278 0 271 0;
#X connect 278 0 272 0;
#X connect 279 0 337 0;
#X connect 280 0 281 0;
#X connect 281 0 279 1;
#X connect 282 0 281 0;
#X connect 283 0 280 0;
#X connect 284 0 279 1;
#X connect 285 0 287 0;
#X connect 286 0 284 0;
#X connect 287 0 284 0;
#X connect 288 0 286 0;
#X connect 288 0 285 0;
#X connect 289 0 282 0;
#X connect 289 0 283 0;
#X connect 290 0 337 0;
#X connect 291 0 292 0;
#X connect 292 0 290 1;
#X connect 293 0 292 0;
#X connect 294 0 291 0;
#X connect 295 0 290 1;
#X connect 296 0 298 0;
#X connect 297 0 295 0;
#X connect 298 0 295 0;
#X connect 299 0 297 0;
#X connect 299 0 296 0;
#X connect 300 0 293 0;
#X connect 300 0 294 0;
#X connect 301 0 337 0;
#X connect 302 0 303 0;
#X connect 303 0 301 1;
#X connect 304 0 303 0;
#X connect 305 0 302 0;
#X connect 306 0 301 1;
#X connect 307 0 309 0;
#X connect 308 0 306 0;
#X connect 309 0 306 0;
#X connect 310 0 308 0;
#X connect 310 0 307 0;
#X connect 311 0 304 0;
#X connect 311 0 305 0;
#X connect 312 0 337 0;
#X connect 313 0 314 0;
#X connect 314 0 312 1;
#X connect 315 0 314 0;
#X connect 316 0 313 0;
#X connect 317 0 312 1;
#X connect 318 0 320 0;
#X connect 319 0 317 0;
#X connect 320 0 317 0;
#X connect 321 0 319 0;
#X connect 321 0 318 0;
#X connect 322 0 315 0;
#X connect 322 0 316 0;
#X connect 323 0 321 0;
#X connect 324 0 322 0;
#X connect 325 0 310 0;
#X connect 326 0 311 0;
#X connect 327 0 299 0;
#X connect 328 0 300 0;
#X connect 329 0 288 0;
#X connect 330 0 289 0;
#X connect 331 0 277 0;
#X connect 332 0 278 0;
#X connect 333 0 266 0;
#X connect 334 0 267 0;
#X connect 335 0 105 0;
#X connect 335 1 106 0;
#X connect 335 2 107 0;
#X connect 335 3 108 0;
#X connect 335 4 109 0;
#X connect 335 5 110 0;
#X connect 335 6 111 0;
#X connect 335 7 112 0;
#X connect 336 0 160 0;
#X connect 336 0 160 1;
#X connect 337 0 143 0;
#X connect 337 0 143 1;
#X connect 338 0 359 0;
#X connect 339 0 14 0;
#X connect 339 0 51 0;
#X connect 339 0 7 0;
#X connect 339 0 8 0;
#X connect 339 0 9 0;
#X connect 339 0 10 0;
#X connect 339 0 11 0;
#X connect 339 0 12 0;
#X connect 340 0 339 1;
#X connect 341 0 340 0;
#X connect 343 0 344 0;
#X connect 343 1 345 0;
#X connect 343 2 344 1;
#X connect 343 3 345 1;
#X connect 344 0 346 0;
#X connect 345 0 346 1;
#X connect 346 0 350 1;
#X connect 348 0 349 0;
#X connect 349 0 351 0;
#X connect 349 1 343 0;
#X connect 350 0 355 0;
#X connect 351 0 350 0;
#X connect 355 0 356 0;
#X connect 356 0 338 1;
#X connect 356 0 358 0;
#X connect 357 0 338 0;
#X connect 358 0 360 0;
#X connect 359 0 339 0;
#X connect 360 0 341 0;
#X connect 360 0 342 0;
