#N canvas 128 24 553 605 10;
#X declare -lib mrpeach;
#X obj -31 -1393 loadbang;
#X msg -31 -1335 \; pd dsp 1 \;;
#X obj 43 -1286 s lb;
#X msg -78 -1247 437;
#X obj -78 -1270 loadbang;
#X floatatom -78 -1223 0 10 20000 0 - - -;
#X msg -78 -1196 \$1 400;
#X obj -78 -1171 line~;
#X obj -78 -1139 cycle~;
#X obj -80 -998 dac~;
#X obj -63 -1098 / 127;
#X obj -63 -1078 pack 0 50;
#X obj -63 -1056 line~;
#X obj -78 -1035 *~;
#X obj -19 -1121 r lb;
#X msg -19 -1099 45;
#X text 55 -1224 comment;
#X obj 319 -1342 import mrpeach;
#X obj 163 -1347 udpreceive 3001;
#X obj 163 -1325 unpackOSC;
#X obj 164 -1300 routeOSC /vol /freq;
#X obj -31 -1361 delay 2000;
#X connect 0 0 2 0;
#X connect 0 0 21 0;
#X connect 3 0 5 0;
#X connect 4 0 3 0;
#X connect 5 0 6 0;
#X connect 6 0 7 0;
#X connect 7 0 8 0;
#X connect 8 0 13 0;
#X connect 10 0 11 0;
#X connect 11 0 12 0;
#X connect 12 0 13 1;
#X connect 13 0 9 0;
#X connect 13 0 9 1;
#X connect 14 0 15 0;
#X connect 15 0 10 0;
#X connect 18 0 19 0;
#X connect 19 0 20 0;
#X connect 20 0 10 0;
#X connect 20 1 5 0;
#X connect 21 0 1 0;
#X coords 0 605 1 604 85 60 0;
