#N canvas 330 144 651 734 10;
#X declare -lib mrpeach;
#X obj -276 -1348 smp-pvoc1;
#X obj -40 -1155 mono-bitcrusher;
#X obj -276 -827 dac~;
#X obj -39 -1044 mono-pureverb4;
#X msg -276 -1374 0;
#X obj -276 -1394 r start;
#X obj 18 -1067 r verb_params;
#X obj -260 -1046 r vol;
#X obj 17 -1176 r crush_params;
#N canvas 1025 99 223 202 soundfiles 0;
#X obj 23 -770 outlet;
#X obj 72 -772 s start;
#X obj 72 -814 bng 15 250 50 0 empty empty empty 17 7 0 10 -262144
-1 -1;
#X obj 23 -875 loadbang;
#X msg 23 -849 symbol viola.aif;
#X connect 2 0 1 0;
#X connect 3 0 4 0;
#X connect 4 0 0 0;
#X connect 4 0 2 0;
#X restore -73 -1374 pd soundfiles;
#N canvas 268 156 1034 424 OSC 0;
#X msg 745 179 0 \$1;
#X msg 783 179 1 \$1;
#X msg 823 179 2 \$1;
#X msg 861 179 3 \$1;
#X obj 745 206 s verb_params;
#X msg 578 179 0 \$1;
#X msg 631 179 1 \$1;
#X msg 684 179 2 \$1;
#X obj 578 204 s crush_params;
#X obj 471 45 import mrpeach;
#X obj 372 43 udpreceive 3001;
#X obj 372 65 unpackOSC;
#X obj 414 199 s opitch;
#X obj 274 198 s ospeed;
#X obj 106 44 loadbang;
#X obj 106 64 delay 2000;
#X obj 102 300 s but1;
#X obj 147 300 s but2;
#X obj 192 300 s but3;
#X obj 85 179 s vol;
#X obj 237 300 s but4;
#X obj 282 300 s but5;
#X obj 323 302 s but6;
#X obj 368 302 s but7;
#X obj 413 302 s but8;
#X obj 458 302 s but9;
#X obj 513 302 s but10;
#X obj 558 302 s but11;
#X obj 603 302 s but12;
#X obj 648 302 s but13;
#X obj 693 302 s but14;
#X obj 734 304 s but15;
#X obj 779 304 s but16;
#X obj 824 304 s but17;
#X obj 869 304 s but18;
#X msg 106 84 100;
#X obj 127 179 s crushvol;
#X obj 194 179 s verbvol;
#X obj 578 156 routeOSC /k3 /k4 /k5;
#X obj 350 151 routeOSC /k1 /k2;
#X obj 745 157 routeOSC /k6 /k7 /k8 /k9;
#X obj 102 260 routeOSC /b1 /b2 /b3 /b4 /b5 /b6 /b7 /b8 /b9;
#X obj 513 262 routeOSC /b10 /b11 /b12 /b13 /b14 /b15 /b16 /b17 /b18
;
#X obj 85 152 routeOSC /s9 /s8 /s7;
#X obj 414 175 maxlib/scale 0 1 1 250;
#X obj 106 104 s opitch;
#X obj 162 104 s ospeed;
#X obj 274 174 maxlib/scale 0 1 1 200;
#X connect 0 0 4 0;
#X connect 1 0 4 0;
#X connect 2 0 4 0;
#X connect 3 0 4 0;
#X connect 5 0 8 0;
#X connect 6 0 8 0;
#X connect 7 0 8 0;
#X connect 10 0 11 0;
#X connect 11 0 38 0;
#X connect 11 0 39 0;
#X connect 11 0 40 0;
#X connect 11 0 41 0;
#X connect 11 0 42 0;
#X connect 11 0 43 0;
#X connect 14 0 15 0;
#X connect 15 0 35 0;
#X connect 35 0 45 0;
#X connect 35 0 46 0;
#X connect 38 0 5 0;
#X connect 38 1 6 0;
#X connect 38 2 7 0;
#X connect 39 0 47 0;
#X connect 39 1 44 0;
#X connect 40 0 0 0;
#X connect 40 1 1 0;
#X connect 40 2 2 0;
#X connect 40 3 3 0;
#X connect 41 0 16 0;
#X connect 41 1 17 0;
#X connect 41 2 18 0;
#X connect 41 3 20 0;
#X connect 41 4 21 0;
#X connect 41 5 22 0;
#X connect 41 6 23 0;
#X connect 41 7 24 0;
#X connect 41 8 25 0;
#X connect 42 0 26 0;
#X connect 42 1 27 0;
#X connect 42 2 28 0;
#X connect 42 3 29 0;
#X connect 42 4 30 0;
#X connect 42 5 31 0;
#X connect 42 6 32 0;
#X connect 42 7 33 0;
#X connect 42 8 34 0;
#X connect 43 0 19 0;
#X connect 43 1 36 0;
#X connect 43 2 37 0;
#X connect 44 0 12 0;
#X connect 47 0 13 0;
#X restore -56 -1345 pd OSC;
#X msg -224 -1371 1;
#X obj -224 -1394 r stop;
#X obj -260 -1007 pack 0 50;
#X obj -260 -985 line~;
#X obj -276 -960 *~;
#X obj -223 -1046 r lb;
#X msg -223 -1026 0;
#N canvas 343 265 731 187 jumpy 0;
#X obj 12 -1077 s filejumper;
#X obj 11 -1150 r but1;
#X msg 11 -1122 0;
#X obj 58 -1150 r but2;
#X msg 58 -1122 0.045;
#X obj 105 -1150 r but3;
#X msg 105 -1122 0.149;
#X msg 149 -1122 0.3168;
#X obj 149 -1150 r but4;
#X obj 195 -1150 r but5;
#X msg 195 -1122 0.5065;
#X obj 244 -1150 r but6;
#X msg 244 -1122 0.5699;
#X obj 293 -1150 r but7;
#X msg 293 -1122 0.6724;
#X obj 341 -1150 r but8;
#X msg 341 -1122 0.745;
#X obj 389 -1150 r but9;
#X msg 389 -1122 0.777;
#X obj 437 -1150 r but10;
#X msg 437 -1122 0.861;
#X obj 487 -1150 r but11;
#X msg 487 -1122 0.924;
#X connect 1 0 2 0;
#X connect 2 0 0 0;
#X connect 3 0 4 0;
#X connect 4 0 0 0;
#X connect 5 0 6 0;
#X connect 6 0 0 0;
#X connect 7 0 0 0;
#X connect 8 0 7 0;
#X connect 9 0 10 0;
#X connect 10 0 0 0;
#X connect 11 0 12 0;
#X connect 12 0 0 0;
#X connect 13 0 14 0;
#X connect 14 0 0 0;
#X connect 15 0 16 0;
#X connect 16 0 0 0;
#X connect 17 0 18 0;
#X connect 18 0 0 0;
#X connect 19 0 20 0;
#X connect 20 0 0 0;
#X connect 21 0 22 0;
#X connect 22 0 0 0;
#X restore -56 -1322 pd jumpy;
#N canvas 581 22 271 208 startup 0;
#X obj 31 -1363 loadbang;
#X msg 31 -1317 \; pd dsp 1 \;;
#X obj 100 -1340 s lb;
#X obj 31 -1340 delay 2000;
#X connect 0 0 2 0;
#X connect 0 0 3 0;
#X connect 3 0 1 0;
#X restore -57 -1300 pd startup;
#X obj 146 -1020 pack 0 50;
#X obj 146 -998 line~;
#X obj -39 -973 *~;
#X obj -276 -879 +~;
#X obj 146 -1042 r verbvol;
#X obj 147 -1131 pack 0 50;
#X obj 147 -1109 line~;
#X obj 147 -1162 r crushvol;
#X obj -40 -1083 *~;
#X obj -276 -906 +~;
#X obj -275 -1200 *~ 0.9;
#X obj -276 -854 *~ 0.5;
#X connect 0 0 3 0;
#X connect 0 0 1 0;
#X connect 0 0 30 0;
#X connect 1 0 28 0;
#X connect 3 0 22 0;
#X connect 4 0 0 0;
#X connect 5 0 4 0;
#X connect 6 0 3 1;
#X connect 7 0 13 0;
#X connect 8 0 1 1;
#X connect 9 0 0 1;
#X connect 11 0 0 0;
#X connect 12 0 11 0;
#X connect 13 0 14 0;
#X connect 14 0 15 1;
#X connect 15 0 29 0;
#X connect 16 0 17 0;
#X connect 17 0 13 0;
#X connect 20 0 21 0;
#X connect 21 0 22 1;
#X connect 22 0 23 1;
#X connect 23 0 31 0;
#X connect 24 0 20 0;
#X connect 25 0 26 0;
#X connect 26 0 28 1;
#X connect 27 0 25 0;
#X connect 28 0 29 1;
#X connect 29 0 23 0;
#X connect 30 0 15 0;
#X connect 31 0 2 0;
#X connect 31 0 2 1;
#X coords 0 734 1 733 85 60 0;
