#N canvas 686 53 693 563 10;
#X declare -lib mrpeach;
#X obj 37 177 +~;
#X obj 96 168 *~;
#X obj 96 75 osc~;
#X obj 22 212 osc~;
#X obj 20 280 dac~;
#N canvas 0 23 1440 851 OSC-MIDI 0;
#X obj 366 -2 import mrpeach;
#X obj 263 -3 udpreceive 3001;
#X obj 263 19 unpackOSC;
#X obj 1412 962 tgl 15 0 empty empty empty 17 7 0 10 -262144 -1 -1
0 1;
#X obj 1412 962 tgl 15 0 empty empty empty 17 7 0 10 -262144 -1 -1
0 1;
#X obj -21 238 s kk1;
#X obj 19 238 s kk2;
#X obj 59 238 s kk3;
#X text 50 120 knobs;
#X text 589 120 button;
#X obj 263 54 routeOSC /kk1 /kk2 /kk3 /kk4 /kk5 /kk6 /kk7 /kk8 /ks1
/ks2 /ks3 /ks4 /ks5 /ks6 /ks7 /ks8 /but1 /but2 /but3 /but4 /but5 /but6
/but7 /but8;
#X obj 139 238 s kk5;
#X obj 99 238 s kk4;
#X obj 179 238 s kk6;
#X obj 220 238 s kk7;
#X obj 262 239 s kk8;
#X obj 302 239 s ks1;
#X obj 342 239 s ks2;
#X obj 382 239 s ks3;
#X obj 422 239 s ks4;
#X obj 462 239 s ks5;
#X obj 503 239 s ks6;
#X obj 543 239 s ks7;
#X obj 583 239 s ks8;
#X obj 623 239 s but1;
#X obj 670 239 s but2;
#X obj 715 239 s but3;
#X obj 760 239 s but4;
#X obj 806 239 s but5;
#X obj 851 239 s but6;
#X obj 896 239 s but7;
#X obj 941 239 s but8;
#X text 313 117 sliders;
#X obj 631 120 ctlin 51;
#X obj 692 120 ctlin 52;
#X obj 753 120 ctlin 53;
#X obj 631 144 ctlin 53;
#X obj 691 144 ctlin 55;
#X obj 752 144 ctlin 56;
#X obj 631 169 ctlin 57;
#X obj 692 169 ctlin 58;
#X obj 360 119 ctlin 41;
#X obj 411 119 ctlin 42;
#X obj 472 119 ctlin 43;
#X obj 358 144 ctlin 44;
#X obj 418 144 ctlin 45;
#X obj 479 144 ctlin 46;
#X obj 358 169 ctlin 47;
#X obj 419 169 ctlin 48;
#X obj 87 120 ctlin 21;
#X obj 147 120 ctlin 22;
#X obj 208 120 ctlin 23;
#X obj 87 142 ctlin 24;
#X obj 147 142 ctlin 25;
#X obj 208 142 ctlin 26;
#X obj 87 166 ctlin 27;
#X obj 148 166 ctlin 28;
#X connect 1 0 2 0;
#X connect 2 0 10 0;
#X connect 10 0 5 0;
#X connect 10 1 6 0;
#X connect 10 2 7 0;
#X connect 10 3 12 0;
#X connect 10 4 11 0;
#X connect 10 5 13 0;
#X connect 10 6 14 0;
#X connect 10 7 15 0;
#X connect 10 8 16 0;
#X connect 10 9 17 0;
#X connect 10 10 18 0;
#X connect 10 11 19 0;
#X connect 10 12 20 0;
#X connect 10 13 21 0;
#X connect 10 14 22 0;
#X connect 10 15 23 0;
#X connect 10 16 24 0;
#X connect 10 17 25 0;
#X connect 10 18 26 0;
#X connect 10 19 27 0;
#X connect 10 20 28 0;
#X connect 10 21 29 0;
#X connect 10 22 30 0;
#X connect 10 23 31 0;
#X connect 33 0 24 0;
#X connect 34 0 25 0;
#X connect 35 0 26 0;
#X connect 36 0 27 0;
#X connect 37 0 28 0;
#X connect 38 0 29 0;
#X connect 39 0 30 0;
#X connect 40 0 31 0;
#X connect 41 0 16 0;
#X connect 42 0 17 0;
#X connect 43 0 18 0;
#X connect 44 0 19 0;
#X connect 45 0 20 0;
#X connect 46 0 21 0;
#X connect 47 0 22 0;
#X connect 48 0 23 0;
#X connect 49 0 5 0;
#X connect 50 0 6 0;
#X connect 51 0 7 0;
#X connect 52 0 12 0;
#X connect 53 0 11 0;
#X connect 54 0 13 0;
#X connect 55 0 14 0;
#X connect 56 0 15 0;
#X restore 233 142 pd OSC-MIDI;
#X obj 17 -119 r kk1;
#X obj 90 -35 r kk2;
#X obj 111 114 r kk3;
#X floatatom 32 23 5 0 0 0 - - -;
#X floatatom 111 143 5 0 0 0 - - -;
#X floatatom 96 49 5 0 0 0 - - -;
#X text 110 94 Mod Amount;
#X text 137 -4 mod Frequency;
#X text -12 -142 Carrier Freq;
#X text 184 88 AM Synthesis;
#X obj 139 160 / 5;
#X obj 31 -91 / 8;
#X obj 75 24 +;
#X obj 31 -32 mtof;
#X obj 32 -68 + 55;
#X connect 0 0 3 0;
#X connect 1 0 0 1;
#X connect 2 0 1 0;
#X connect 3 0 4 0;
#X connect 3 0 4 1;
#X connect 6 0 17 0;
#X connect 7 0 18 1;
#X connect 8 0 16 0;
#X connect 9 0 0 0;
#X connect 10 0 1 1;
#X connect 11 0 2 0;
#X connect 16 0 10 0;
#X connect 17 0 20 0;
#X connect 18 0 11 0;
#X connect 19 0 9 0;
#X connect 19 0 18 0;
#X connect 20 0 19 0;
