#N canvas 12 180 1440 851 10;
#X declare -lib mrpeach;
#X floatatom 128 24 5 0 0 0 - - -;
#X floatatom 218 -41 5 0 127 0 - - -;
#X floatatom 309 -41 5 0 127 0 - - -;
#X msg 309 -63 127;
#X obj 208 247 dac~;
#X obj 281 94 bng 15 250 50 0 empty empty empty 17 7 0 10 -262144 -1
-1;
#X obj 128 -39 / 127;
#X msg 230 165 0;
#X obj 215 212 *~;
#X msg 218 -63 0;
#X msg 128 -61 127;
#X obj 1145 -150 loadbang;
#X msg 1145 -104 \; pd dsp 1 \;;
#X obj 1202 -151 s lb;
#X obj 1145 -127 delay 2000;
#X obj 218 -83 r lb;
#X obj 309 -83 r lb;
#X obj 230 144 r lb;
#X obj 128 -82 r lb;
#X obj 281 74 r but1;
#X obj 261 165 r ks1;
#X obj 89 -82 r kk1;
#X obj 181 -83 r kk2;
#X obj 272 -83 r kk3;
#X obj 230 190 / 500;
#X text 100 -190 comment;
#X floatatom 468 -43 5 0 0 0 - - -;
#X floatatom 558 -42 5 0 127 0 - - -;
#X floatatom 649 -42 5 0 127 0 - - -;
#X msg 649 -64 127;
#X obj 565 240 dac~;
#N canvas 0 22 1440 803 Waveshape0 0;
#X obj 293 522 outlet~;
#X obj 117 298 inlet~;
#X obj 117 404 osc~;
#X obj 205 404 osc~;
#X obj 249 404 osc~;
#X obj 293 404 osc~;
#X obj 337 404 osc~;
#X obj 381 404 osc~;
#X obj 425 404 osc~;
#X obj 468 404 osc~;
#X obj 205 383 *~ 3;
#X obj 249 383 *~ 4;
#X obj 293 383 *~ 5;
#X obj 337 383 *~ 6;
#X obj 381 383 *~ 7;
#X obj 425 383 *~ 8;
#X obj 468 383 *~ 9;
#X obj 161 404 osc~;
#X obj 161 383 *~ 2;
#X msg 535 383 500;
#X obj 660 322 cycle 9 0 0 0 0 0 0;
#X obj 515 406 line~ 0;
#X obj 515 361 t f b;
#X msg 585 383 500;
#X obj 565 406 line~ 0;
#X obj 565 361 t f b;
#X msg 635 383 500;
#X obj 615 406 line~ 0;
#X obj 615 361 t f b;
#X msg 685 383 500;
#X obj 665 406 line~ 0;
#X obj 665 361 t f b;
#X msg 735 383 500;
#X obj 715 406 line~ 0;
#X obj 715 361 t f b;
#X msg 785 383 500;
#X obj 765 406 line~ 0;
#X obj 765 361 t f b;
#X msg 835 383 500;
#X obj 815 406 line~ 0;
#X obj 815 360 t f b;
#X msg 885 383 500;
#X obj 865 406 line~ 0;
#X obj 865 361 t f b;
#X msg 935 383 500;
#X obj 915 406 line~ 0;
#X obj 915 361 t f b;
#X obj 117 455 *~;
#X obj 161 455 *~;
#X obj 205 455 *~;
#X obj 249 455 *~;
#X obj 293 455 *~;
#X obj 337 455 *~;
#X obj 381 455 *~;
#X obj 425 455 *~;
#X obj 468 455 *~;
#X obj 660 208 drunk 1;
#X msg 733 257 0;
#X obj 660 228 sel 0 1;
#X obj 660 186 repeat 9;
#X obj 660 298 / 300;
#X obj 660 162 inlet;
#N canvas 781 56 591 697 randomer 0;
#X obj 254 318 random 100;
#X obj 254 196 inlet;
#X obj 254 341 outlet;
#X obj 335 161 time;
#X floatatom 356 184 5 0 0 0 - - -;
#X msg 356 204 seed \$1;
#X msg 356 275 seed 521.324;
#X obj 335 140 bng 15 250 50 0 empty empty empty 17 7 0 10 -262144
-1 -1;
#X obj 356 226 prepend set;
#X obj 356 250 t b a;
#X obj 335 82 loadbang;
#X obj 334 108 del 2350;
#X connect 0 0 2 0;
#X connect 1 0 0 0;
#X connect 3 3 4 0;
#X connect 4 0 5 0;
#X connect 5 0 8 0;
#X connect 6 0 0 0;
#X connect 7 0 3 0;
#X connect 8 0 9 0;
#X connect 9 0 6 0;
#X connect 9 1 6 0;
#X connect 10 0 11 0;
#X connect 11 0 7 0;
#X restore 660 257 pd randomer;
#X connect 1 0 2 0;
#X connect 1 0 18 0;
#X connect 1 0 10 0;
#X connect 1 0 11 0;
#X connect 1 0 12 0;
#X connect 1 0 13 0;
#X connect 1 0 14 0;
#X connect 1 0 15 0;
#X connect 1 0 16 0;
#X connect 2 0 47 0;
#X connect 3 0 49 0;
#X connect 4 0 50 0;
#X connect 5 0 51 0;
#X connect 6 0 52 0;
#X connect 7 0 53 0;
#X connect 8 0 54 0;
#X connect 9 0 55 0;
#X connect 10 0 3 0;
#X connect 11 0 4 0;
#X connect 12 0 5 0;
#X connect 13 0 6 0;
#X connect 14 0 7 0;
#X connect 15 0 8 0;
#X connect 16 0 9 0;
#X connect 17 0 48 0;
#X connect 18 0 17 0;
#X connect 19 0 21 1;
#X connect 20 0 22 0;
#X connect 20 1 25 0;
#X connect 20 2 28 0;
#X connect 20 3 31 0;
#X connect 20 4 34 0;
#X connect 20 5 37 0;
#X connect 20 6 40 0;
#X connect 20 7 43 0;
#X connect 20 8 46 0;
#X connect 21 0 47 1;
#X connect 22 0 21 0;
#X connect 22 1 19 0;
#X connect 23 0 24 1;
#X connect 24 0 48 1;
#X connect 25 0 24 0;
#X connect 25 1 23 0;
#X connect 26 0 27 1;
#X connect 27 0 49 1;
#X connect 28 0 27 0;
#X connect 28 1 26 0;
#X connect 29 0 30 1;
#X connect 30 0 50 1;
#X connect 31 0 30 0;
#X connect 31 1 29 0;
#X connect 32 0 33 1;
#X connect 33 0 51 1;
#X connect 34 0 33 0;
#X connect 34 1 32 0;
#X connect 35 0 36 1;
#X connect 36 0 52 1;
#X connect 37 0 36 0;
#X connect 37 1 35 0;
#X connect 38 0 39 1;
#X connect 39 0 53 1;
#X connect 40 0 39 0;
#X connect 40 1 38 0;
#X connect 41 0 42 1;
#X connect 42 0 54 1;
#X connect 43 0 42 0;
#X connect 43 1 41 0;
#X connect 44 0 45 1;
#X connect 45 0 55 1;
#X connect 46 0 45 0;
#X connect 46 1 44 0;
#X connect 47 0 0 0;
#X connect 48 0 0 0;
#X connect 49 0 0 0;
#X connect 50 0 0 0;
#X connect 51 0 0 0;
#X connect 52 0 0 0;
#X connect 53 0 0 0;
#X connect 54 0 0 0;
#X connect 55 0 0 0;
#X connect 56 0 58 0;
#X connect 57 0 60 0;
#X connect 58 0 62 0;
#X connect 58 1 57 0;
#X connect 59 0 56 0;
#X connect 60 0 20 0;
#X connect 61 0 59 0;
#X connect 62 0 60 0;
#X restore 565 118 pd Waveshape0;
#X obj 640 100 bng 15 250 50 0 empty empty empty 17 7 0 10 -262144
-1 -1;
#X obj 468 -106 / 127;
#X msg 580 164 0;
#X obj 565 211 *~;
#X msg 558 -64 0;
#X msg 468 -128 127;
#X obj 558 -84 r lb;
#X obj 649 -84 r lb;
#X obj 580 143 r lb;
#X obj 468 -149 r lb;
#X obj 580 189 / 500;
#X floatatom 808 -42 5 0 0 0 - - -;
#X floatatom 898 -41 5 0 127 0 - - -;
#X floatatom 989 -41 5 0 127 0 - - -;
#X msg 989 -63 127;
#X obj 905 241 dac~;
#N canvas 0 22 1440 803 Waveshape0 0;
#X obj 293 522 outlet~;
#X obj 117 298 inlet~;
#X obj 117 404 osc~;
#X obj 205 404 osc~;
#X obj 249 404 osc~;
#X obj 293 404 osc~;
#X obj 337 404 osc~;
#X obj 381 404 osc~;
#X obj 425 404 osc~;
#X obj 468 404 osc~;
#X obj 205 383 *~ 3;
#X obj 249 383 *~ 4;
#X obj 293 383 *~ 5;
#X obj 337 383 *~ 6;
#X obj 381 383 *~ 7;
#X obj 425 383 *~ 8;
#X obj 468 383 *~ 9;
#X obj 161 404 osc~;
#X obj 161 383 *~ 2;
#X msg 535 383 500;
#X obj 660 322 cycle 9 0 0 0 0 0 0;
#X obj 515 406 line~ 0;
#X obj 515 361 t f b;
#X msg 585 383 500;
#X obj 565 406 line~ 0;
#X obj 565 361 t f b;
#X msg 635 383 500;
#X obj 615 406 line~ 0;
#X obj 615 361 t f b;
#X msg 685 383 500;
#X obj 665 406 line~ 0;
#X obj 665 361 t f b;
#X msg 735 383 500;
#X obj 715 406 line~ 0;
#X obj 715 361 t f b;
#X msg 785 383 500;
#X obj 765 406 line~ 0;
#X obj 765 361 t f b;
#X msg 835 383 500;
#X obj 815 406 line~ 0;
#X obj 815 360 t f b;
#X msg 885 383 500;
#X obj 865 406 line~ 0;
#X obj 865 361 t f b;
#X msg 935 383 500;
#X obj 915 406 line~ 0;
#X obj 915 361 t f b;
#X obj 117 455 *~;
#X obj 161 455 *~;
#X obj 205 455 *~;
#X obj 249 455 *~;
#X obj 293 455 *~;
#X obj 337 455 *~;
#X obj 381 455 *~;
#X obj 425 455 *~;
#X obj 468 455 *~;
#X obj 660 208 drunk 1;
#X msg 733 257 0;
#X obj 660 228 sel 0 1;
#X obj 660 186 repeat 9;
#X obj 660 298 / 300;
#X obj 660 162 inlet;
#N canvas 781 56 591 697 randomer 0;
#X obj 254 318 random 100;
#X obj 254 196 inlet;
#X obj 254 341 outlet;
#X obj 335 161 time;
#X floatatom 356 184 5 0 0 0 - - -;
#X msg 356 204 seed \$1;
#X msg 356 275 seed 521.328;
#X obj 335 140 bng 15 250 50 0 empty empty empty 17 7 0 10 -262144
-1 -1;
#X obj 356 226 prepend set;
#X obj 356 250 t b a;
#X obj 335 82 loadbang;
#X obj 334 108 del 2350;
#X connect 0 0 2 0;
#X connect 1 0 0 0;
#X connect 3 3 4 0;
#X connect 4 0 5 0;
#X connect 5 0 8 0;
#X connect 6 0 0 0;
#X connect 7 0 3 0;
#X connect 8 0 9 0;
#X connect 9 0 6 0;
#X connect 9 1 6 0;
#X connect 10 0 11 0;
#X connect 11 0 7 0;
#X restore 660 257 pd randomer;
#X connect 1 0 2 0;
#X connect 1 0 18 0;
#X connect 1 0 10 0;
#X connect 1 0 11 0;
#X connect 1 0 12 0;
#X connect 1 0 13 0;
#X connect 1 0 14 0;
#X connect 1 0 15 0;
#X connect 1 0 16 0;
#X connect 2 0 47 0;
#X connect 3 0 49 0;
#X connect 4 0 50 0;
#X connect 5 0 51 0;
#X connect 6 0 52 0;
#X connect 7 0 53 0;
#X connect 8 0 54 0;
#X connect 9 0 55 0;
#X connect 10 0 3 0;
#X connect 11 0 4 0;
#X connect 12 0 5 0;
#X connect 13 0 6 0;
#X connect 14 0 7 0;
#X connect 15 0 8 0;
#X connect 16 0 9 0;
#X connect 17 0 48 0;
#X connect 18 0 17 0;
#X connect 19 0 21 1;
#X connect 20 0 22 0;
#X connect 20 1 25 0;
#X connect 20 2 28 0;
#X connect 20 3 31 0;
#X connect 20 4 34 0;
#X connect 20 5 37 0;
#X connect 20 6 40 0;
#X connect 20 7 43 0;
#X connect 20 8 46 0;
#X connect 21 0 47 1;
#X connect 22 0 21 0;
#X connect 22 1 19 0;
#X connect 23 0 24 1;
#X connect 24 0 48 1;
#X connect 25 0 24 0;
#X connect 25 1 23 0;
#X connect 26 0 27 1;
#X connect 27 0 49 1;
#X connect 28 0 27 0;
#X connect 28 1 26 0;
#X connect 29 0 30 1;
#X connect 30 0 50 1;
#X connect 31 0 30 0;
#X connect 31 1 29 0;
#X connect 32 0 33 1;
#X connect 33 0 51 1;
#X connect 34 0 33 0;
#X connect 34 1 32 0;
#X connect 35 0 36 1;
#X connect 36 0 52 1;
#X connect 37 0 36 0;
#X connect 37 1 35 0;
#X connect 38 0 39 1;
#X connect 39 0 53 1;
#X connect 40 0 39 0;
#X connect 40 1 38 0;
#X connect 41 0 42 1;
#X connect 42 0 54 1;
#X connect 43 0 42 0;
#X connect 43 1 41 0;
#X connect 44 0 45 1;
#X connect 45 0 55 1;
#X connect 46 0 45 0;
#X connect 46 1 44 0;
#X connect 47 0 0 0;
#X connect 48 0 0 0;
#X connect 49 0 0 0;
#X connect 50 0 0 0;
#X connect 51 0 0 0;
#X connect 52 0 0 0;
#X connect 53 0 0 0;
#X connect 54 0 0 0;
#X connect 55 0 0 0;
#X connect 56 0 58 0;
#X connect 57 0 60 0;
#X connect 58 0 62 0;
#X connect 58 1 57 0;
#X connect 59 0 56 0;
#X connect 60 0 20 0;
#X connect 61 0 59 0;
#X connect 62 0 60 0;
#X restore 905 119 pd Waveshape0;
#X obj 980 101 bng 15 250 50 0 empty empty empty 17 7 0 10 -262144
-1 -1;
#X obj 808 -105 / 127;
#X msg 920 165 0;
#X obj 905 212 *~;
#X msg 898 -63 0;
#X msg 808 -127 127;
#X obj 898 -83 r lb;
#X obj 989 -83 r lb;
#X obj 920 144 r lb;
#X obj 808 -148 r lb;
#X obj 952 -83 r kk3;
#X obj 920 190 / 500;
#N canvas 587 65 1440 851 OSC-MIDI 0;
#X obj 366 -2 import mrpeach;
#X obj 263 -3 udpreceive 3001;
#X obj 263 19 unpackOSC;
#X obj 1412 962 tgl 15 0 empty empty empty 17 7 0 10 -262144 -1 -1
0 1;
#X obj 1412 962 tgl 15 0 empty empty empty 17 7 0 10 -262144 -1 -1
0 1;
#X obj -21 238 s kk1;
#X obj 19 238 s kk2;
#X obj 59 238 s kk3;
#X text 50 120 knobs;
#X text 589 120 button;
#X obj 263 54 routeOSC /kk1 /kk2 /kk3 /kk4 /kk5 /kk6 /kk7 /kk8 /ks1
/ks2 /ks3 /ks4 /ks5 /ks6 /ks7 /ks8 /but1 /but2 /but3 /but4 /but5 /but6
/but7 /but8;
#X obj 139 238 s kk5;
#X obj 99 238 s kk4;
#X obj 179 238 s kk6;
#X obj 220 238 s kk7;
#X obj 262 239 s kk8;
#X obj 302 239 s ks1;
#X obj 342 239 s ks2;
#X obj 382 239 s ks3;
#X obj 422 239 s ks4;
#X obj 462 239 s ks5;
#X obj 503 239 s ks6;
#X obj 543 239 s ks7;
#X obj 583 239 s ks8;
#X obj 623 239 s but1;
#X obj 670 239 s but2;
#X obj 715 239 s but3;
#X obj 760 239 s but4;
#X obj 806 239 s but5;
#X obj 851 239 s but6;
#X obj 896 239 s but7;
#X obj 941 239 s but8;
#X text 313 117 sliders;
#X obj 631 120 ctlin 51;
#X obj 692 120 ctlin 52;
#X obj 753 120 ctlin 53;
#X obj 631 144 ctlin 53;
#X obj 691 144 ctlin 55;
#X obj 752 144 ctlin 56;
#X obj 631 169 ctlin 57;
#X obj 692 169 ctlin 58;
#X obj 360 119 ctlin 41;
#X obj 411 119 ctlin 42;
#X obj 472 119 ctlin 43;
#X obj 358 144 ctlin 44;
#X obj 418 144 ctlin 45;
#X obj 479 144 ctlin 46;
#X obj 358 169 ctlin 47;
#X obj 419 169 ctlin 48;
#X obj 87 120 ctlin 21;
#X obj 147 120 ctlin 22;
#X obj 208 120 ctlin 23;
#X obj 87 142 ctlin 24;
#X obj 147 142 ctlin 25;
#X obj 208 142 ctlin 26;
#X obj 87 166 ctlin 27;
#X obj 148 166 ctlin 28;
#X text 0 92 NOTE : Pure Data Uses port 9001 by default but you can
designate a new port;
#X connect 1 0 2 0;
#X connect 2 0 10 0;
#X connect 10 0 5 0;
#X connect 10 1 6 0;
#X connect 10 2 7 0;
#X connect 10 3 12 0;
#X connect 10 4 11 0;
#X connect 10 5 13 0;
#X connect 10 6 14 0;
#X connect 10 7 15 0;
#X connect 10 8 16 0;
#X connect 10 9 17 0;
#X connect 10 10 18 0;
#X connect 10 11 19 0;
#X connect 10 12 20 0;
#X connect 10 13 21 0;
#X connect 10 14 22 0;
#X connect 10 15 23 0;
#X connect 10 16 24 0;
#X connect 10 17 25 0;
#X connect 10 18 26 0;
#X connect 10 19 27 0;
#X connect 10 20 28 0;
#X connect 10 21 29 0;
#X connect 10 22 30 0;
#X connect 10 23 31 0;
#X connect 33 0 24 0;
#X connect 34 0 25 0;
#X connect 35 0 26 0;
#X connect 36 0 27 0;
#X connect 37 0 28 0;
#X connect 38 0 29 0;
#X connect 39 0 30 0;
#X connect 40 0 31 0;
#X connect 41 0 16 0;
#X connect 42 0 17 0;
#X connect 43 0 18 0;
#X connect 44 0 19 0;
#X connect 45 0 20 0;
#X connect 46 0 21 0;
#X connect 47 0 22 0;
#X connect 48 0 23 0;
#X connect 49 0 5 0;
#X connect 50 0 6 0;
#X connect 51 0 7 0;
#X connect 52 0 12 0;
#X connect 53 0 11 0;
#X connect 54 0 13 0;
#X connect 55 0 14 0;
#X connect 56 0 15 0;
#X restore 1144 -67 pd OSC-MIDI;
#X obj 429 -149 r kk4;
#X obj 521 -84 r kk5;
#X obj 612 -84 r kk6;
#X obj 769 -148 r kk7;
#X obj 861 -83 r kk8;
#X obj 640 80 r but2;
#X obj 980 81 r but3;
#X obj 611 164 r ks2;
#X obj 951 165 r ks3;
#X obj 221 54 *~;
#X obj 206 77 +~;
#X obj 297 17 / 100;
#X obj 221 -5 / 120;
#X obj 220 19 osc~;
#N canvas 0 22 1440 803 Waveshape0 0;
#X obj 293 522 outlet~;
#X obj 117 298 inlet~;
#X obj 205 404 osc~;
#X obj 205 383 *~ 3;
#X obj 161 404 osc~;
#X obj 161 383 *~ 2;
#X msg 585 383 500;
#X obj 565 406 line~ 0;
#X obj 565 361 t f b;
#X msg 635 383 500;
#X obj 615 406 line~ 0;
#X obj 615 361 t f b;
#X msg 685 383 500;
#X obj 665 406 line~ 0;
#X obj 665 361 t f b;
#X obj 161 455 *~;
#X obj 205 455 *~;
#X obj 660 208 drunk 1;
#X msg 733 257 0;
#X obj 660 228 sel 0 1;
#X obj 660 298 / 300;
#X obj 660 162 inlet;
#N canvas 781 56 591 697 randomer 0;
#X obj 254 318 random 100;
#X obj 254 196 inlet;
#X obj 254 341 outlet;
#X obj 335 161 time;
#X floatatom 356 184 5 0 0 0 - - -;
#X msg 356 204 seed \$1;
#X msg 356 275 seed 521.307;
#X obj 335 140 bng 15 250 50 0 empty empty empty 17 7 0 10 -262144
-1 -1;
#X obj 356 226 prepend set;
#X obj 356 250 t b a;
#X obj 335 82 loadbang;
#X obj 334 108 del 2350;
#X connect 0 0 2 0;
#X connect 1 0 0 0;
#X connect 3 3 4 0;
#X connect 4 0 5 0;
#X connect 5 0 8 0;
#X connect 6 0 0 0;
#X connect 7 0 3 0;
#X connect 8 0 9 0;
#X connect 9 0 6 0;
#X connect 9 1 6 0;
#X connect 10 0 11 0;
#X connect 11 0 7 0;
#X restore 660 257 pd randomer;
#X obj 249 404 osc~;
#X obj 249 383 *~ 4;
#X obj 249 455 *~;
#X obj 660 186 repeat 3;
#X obj 660 322 cycle 3 0 0;
#X connect 1 0 5 0;
#X connect 1 0 3 0;
#X connect 1 0 24 0;
#X connect 2 0 16 0;
#X connect 3 0 2 0;
#X connect 4 0 15 0;
#X connect 5 0 4 0;
#X connect 6 0 7 1;
#X connect 7 0 15 1;
#X connect 8 0 7 0;
#X connect 8 1 6 0;
#X connect 9 0 10 1;
#X connect 10 0 16 1;
#X connect 11 0 10 0;
#X connect 11 1 9 0;
#X connect 12 0 13 1;
#X connect 13 0 25 1;
#X connect 14 0 13 0;
#X connect 14 1 12 0;
#X connect 15 0 0 0;
#X connect 16 0 0 0;
#X connect 17 0 19 0;
#X connect 18 0 20 0;
#X connect 19 0 22 0;
#X connect 19 1 18 0;
#X connect 20 0 27 0;
#X connect 21 0 26 0;
#X connect 22 0 20 0;
#X connect 23 0 25 0;
#X connect 24 0 23 0;
#X connect 25 0 0 0;
#X connect 26 0 17 0;
#X connect 27 0 8 0;
#X connect 27 1 11 0;
#X connect 27 2 14 0;
#X restore 206 116 pd Waveshape0;
#X obj 128 -18 * 15;
#X obj 128 3 + 213;
#X obj 468 -64 + 320;
#X obj 468 -85 * 18;
#X obj 808 -84 * 20;
#X obj 808 -63 + 430;
#X obj 551 44 *~;
#X obj 536 67 +~;
#X obj 627 7 / 100;
#X obj 551 -15 / 120;
#X obj 550 9 osc~;
#X obj 901 54 *~;
#X obj 886 77 +~;
#X obj 977 17 / 100;
#X obj 901 -5 / 120;
#X obj 900 19 osc~;
#X obj 159 51 / 2;
#X obj 488 8 / 2;
#X obj 817 6 / 2;
#X connect 0 0 93 0;
#X connect 1 0 74 0;
#X connect 2 0 73 0;
#X connect 3 0 2 0;
#X connect 5 0 76 1;
#X connect 6 0 77 0;
#X connect 7 0 24 0;
#X connect 8 0 4 0;
#X connect 8 0 4 1;
#X connect 9 0 1 0;
#X connect 10 0 6 0;
#X connect 11 0 13 0;
#X connect 11 0 14 0;
#X connect 14 0 12 0;
#X connect 15 0 9 0;
#X connect 16 0 3 0;
#X connect 17 0 7 0;
#X connect 18 0 10 0;
#X connect 19 0 5 0;
#X connect 20 0 24 0;
#X connect 21 0 6 0;
#X connect 22 0 1 0;
#X connect 23 0 2 0;
#X connect 24 0 8 1;
#X connect 26 0 94 0;
#X connect 27 0 86 0;
#X connect 28 0 85 0;
#X connect 29 0 28 0;
#X connect 31 0 35 0;
#X connect 32 0 31 1;
#X connect 33 0 80 0;
#X connect 34 0 42 0;
#X connect 35 0 30 0;
#X connect 35 0 30 1;
#X connect 36 0 27 0;
#X connect 37 0 33 0;
#X connect 38 0 36 0;
#X connect 39 0 29 0;
#X connect 40 0 34 0;
#X connect 41 0 37 0;
#X connect 42 0 35 1;
#X connect 43 0 95 0;
#X connect 44 0 91 0;
#X connect 45 0 90 0;
#X connect 46 0 45 0;
#X connect 48 0 52 0;
#X connect 49 0 48 1;
#X connect 50 0 81 0;
#X connect 51 0 60 0;
#X connect 52 0 47 0;
#X connect 52 0 47 1;
#X connect 53 0 44 0;
#X connect 54 0 50 0;
#X connect 55 0 53 0;
#X connect 56 0 46 0;
#X connect 57 0 51 0;
#X connect 58 0 54 0;
#X connect 59 0 45 0;
#X connect 60 0 52 1;
#X connect 62 0 33 0;
#X connect 63 0 27 0;
#X connect 64 0 28 0;
#X connect 65 0 50 0;
#X connect 66 0 44 0;
#X connect 67 0 32 0;
#X connect 68 0 49 0;
#X connect 69 0 42 0;
#X connect 70 0 60 0;
#X connect 71 0 72 1;
#X connect 72 0 76 0;
#X connect 73 0 71 1;
#X connect 74 0 75 0;
#X connect 75 0 71 0;
#X connect 76 0 8 0;
#X connect 77 0 78 0;
#X connect 78 0 0 0;
#X connect 79 0 26 0;
#X connect 80 0 79 0;
#X connect 81 0 82 0;
#X connect 82 0 43 0;
#X connect 83 0 84 1;
#X connect 84 0 31 0;
#X connect 85 0 83 1;
#X connect 86 0 87 0;
#X connect 87 0 83 0;
#X connect 88 0 89 1;
#X connect 89 0 48 0;
#X connect 90 0 88 1;
#X connect 91 0 92 0;
#X connect 92 0 88 0;
#X connect 93 0 72 0;
#X connect 94 0 84 0;
#X connect 95 0 89 0;
