#N canvas 546 83 693 563 10;
#X declare -lib mrpeach;
#X obj 82 150 +~;
#X obj 97 128 *~;
#X obj 97 78 osc~;
#X obj 82 172 osc~;
#X obj 196 407 dac~;
#N canvas 505 23 860 846 OSC-MIDI 0;
#X obj 366 -2 import mrpeach;
#X obj 263 -3 udpreceive 3001;
#X obj 263 19 unpackOSC;
#X obj 1412 962 tgl 15 0 empty empty empty 17 7 0 10 -262144 -1 -1
0 1;
#X obj 1412 962 tgl 15 0 empty empty empty 17 7 0 10 -262144 -1 -1
0 1;
#X obj -21 238 s kk1;
#X obj 19 238 s kk2;
#X obj 59 238 s kk3;
#X text 50 120 knobs;
#X text 589 120 button;
#X obj 263 54 routeOSC /kk1 /kk2 /kk3 /kk4 /kk5 /kk6 /kk7 /kk8 /ks1
/ks2 /ks3 /ks4 /ks5 /ks6 /ks7 /ks8 /but1 /but2 /but3 /but4 /but5 /but6
/but7 /but8;
#X obj 139 238 s kk5;
#X obj 99 238 s kk4;
#X obj 179 238 s kk6;
#X obj 220 238 s kk7;
#X obj 262 239 s kk8;
#X obj 302 239 s ks1;
#X obj 342 239 s ks2;
#X obj 382 239 s ks3;
#X obj 422 239 s ks4;
#X obj 462 239 s ks5;
#X obj 503 239 s ks6;
#X obj 543 239 s ks7;
#X obj 583 239 s ks8;
#X obj 623 239 s but1;
#X obj 670 239 s but2;
#X obj 715 239 s but3;
#X obj 760 239 s but4;
#X obj 806 239 s but5;
#X obj 851 239 s but6;
#X obj 896 239 s but7;
#X obj 941 239 s but8;
#X text 313 117 sliders;
#X obj 631 120 ctlin 51;
#X obj 692 120 ctlin 52;
#X obj 753 120 ctlin 53;
#X obj 631 144 ctlin 53;
#X obj 691 144 ctlin 55;
#X obj 752 144 ctlin 56;
#X obj 631 169 ctlin 57;
#X obj 692 169 ctlin 58;
#X obj 360 119 ctlin 41;
#X obj 411 119 ctlin 42;
#X obj 472 119 ctlin 43;
#X obj 358 144 ctlin 44;
#X obj 418 144 ctlin 45;
#X obj 479 144 ctlin 46;
#X obj 358 169 ctlin 47;
#X obj 419 169 ctlin 48;
#X obj 87 120 ctlin 21;
#X obj 147 120 ctlin 22;
#X obj 208 120 ctlin 23;
#X obj 87 142 ctlin 24;
#X obj 147 142 ctlin 25;
#X obj 208 142 ctlin 26;
#X obj 87 166 ctlin 27;
#X obj 148 166 ctlin 28;
#X obj 1 377 packOSC;
#X floatatom 1 323 5 0 0 0 - - -;
#X msg -7 287 connect localhost 10.0.1.10;
#X msg 1 349 send /ks1 \$1;
#X obj 341 318 unpackOSC;
#X obj 341 347 print;
#X text 341 262 Simple Receive OSC;
#X text -10 264 Simple Send OSC;
#X text 238 391 NOTE : Pure Data Uses port 9001 by default but you
can designate a new port;
#X obj -6 415 tcpsend;
#X obj 341 288 tcpreceive 9001;
#X connect 1 0 2 0;
#X connect 2 0 10 0;
#X connect 10 0 5 0;
#X connect 10 1 6 0;
#X connect 10 2 7 0;
#X connect 10 3 12 0;
#X connect 10 4 11 0;
#X connect 10 5 13 0;
#X connect 10 6 14 0;
#X connect 10 7 15 0;
#X connect 10 8 16 0;
#X connect 10 9 17 0;
#X connect 10 10 18 0;
#X connect 10 11 19 0;
#X connect 10 12 20 0;
#X connect 10 13 21 0;
#X connect 10 14 22 0;
#X connect 10 15 23 0;
#X connect 10 16 24 0;
#X connect 10 17 25 0;
#X connect 10 18 26 0;
#X connect 10 19 27 0;
#X connect 10 20 28 0;
#X connect 10 21 29 0;
#X connect 10 22 30 0;
#X connect 10 23 31 0;
#X connect 33 0 24 0;
#X connect 34 0 25 0;
#X connect 35 0 26 0;
#X connect 36 0 27 0;
#X connect 37 0 28 0;
#X connect 38 0 29 0;
#X connect 39 0 30 0;
#X connect 40 0 31 0;
#X connect 41 0 16 0;
#X connect 42 0 17 0;
#X connect 43 0 18 0;
#X connect 44 0 19 0;
#X connect 45 0 20 0;
#X connect 46 0 21 0;
#X connect 47 0 22 0;
#X connect 48 0 23 0;
#X connect 49 0 5 0;
#X connect 50 0 6 0;
#X connect 51 0 7 0;
#X connect 52 0 12 0;
#X connect 53 0 11 0;
#X connect 54 0 13 0;
#X connect 55 0 14 0;
#X connect 56 0 15 0;
#X connect 58 0 60 0;
#X connect 60 0 57 0;
#X connect 61 0 62 0;
#X connect 67 0 61 0;
#X restore -147 -52 pd OSC-MIDI;
#X obj 17 -119 r kk1;
#X obj 90 -35 r kk2;
#X obj 141 -19 r kk3;
#X floatatom 32 23 5 0 0 0 - - -;
#X floatatom 142 107 5 0 0 0 - - -;
#X floatatom 96 49 5 0 0 0 - - -;
#X text 140 -39 Mod Amount;
#X text 70 -64 mod Frequency;
#X text -12 -142 Carrier Freq;
#X text 324 -170 AM Synthesis;
#X obj 31 -32 mtof;
#X obj 92 18 + 50;
#X text -153 -69 Routing Brains;
#X obj 31 -91 / 2098;
#X obj 90 -11 / 24;
#X obj 141 10 / 25;
#X obj 209 165 *~;
#X obj 304 143 +~;
#X obj 319 121 *~;
#X obj 319 71 osc~;
#X obj 304 165 osc~;
#X floatatom 254 16 5 0 0 0 - - -;
#X floatatom 364 100 5 0 0 0 - - -;
#X floatatom 318 42 5 0 0 0 - - -;
#X text 362 -46 Mod Amount;
#X text 292 -71 mod Frequency;
#X text 210 -149 Carrier Freq;
#X obj 253 -39 mtof;
#X obj 253 -98 / 2098;
#X obj 312 -18 / 24;
#X obj 363 3 / 25;
#X obj 239 -126 r kk4;
#X obj 312 -42 r kk5;
#X obj 363 -26 r kk6;
#X obj 114 158 r ks1;
#X obj 99 245 *~;
#X obj 210 259 *~;
#X text 111 142 FM Amplitude;
#X text 195 68 AM Amplitude;
#X obj 314 11 + 42;
#X obj 363 43 + 2;
#X obj 225 185 r ks3;
#X obj 303 264 *~;
#X text 368 137 FM2 Amplitude;
#X obj 338 168 r ks2;
#X obj 208 85 osc~;
#X obj 208 117 *~ 0.5;
#X obj 208 142 +~ 0.5;
#X obj 141 50 + 2;
#X obj 217 34 / 2;
#X obj 254 -75 + 43;
#X obj 32 -68 + 50;
#X obj 114 210 line~;
#X obj 226 235 line~;
#X obj 338 221 line~;
#X obj 155 210 r but1;
#X obj 156 237 / 127;
#X obj 139 269 *~;
#X obj 114 185 / 150;
#X obj 225 212 / 150;
#X obj 338 195 / 150;
#X obj -135 18 loadbang;
#X msg -135 64 \; pd dsp 1 \;;
#X obj -78 17 s lb;
#X obj -135 41 delay 2000;
#X connect 0 0 3 0;
#X connect 1 0 0 1;
#X connect 2 0 1 0;
#X connect 3 0 41 0;
#X connect 6 0 19 0;
#X connect 7 0 20 0;
#X connect 8 0 21 0;
#X connect 9 0 0 0;
#X connect 10 0 1 1;
#X connect 11 0 2 0;
#X connect 16 0 9 0;
#X connect 17 0 11 0;
#X connect 19 0 57 0;
#X connect 20 0 17 0;
#X connect 21 0 54 0;
#X connect 22 0 42 0;
#X connect 23 0 26 0;
#X connect 24 0 23 1;
#X connect 25 0 24 0;
#X connect 26 0 48 0;
#X connect 26 0 22 1;
#X connect 27 0 23 0;
#X connect 27 0 55 0;
#X connect 28 0 24 1;
#X connect 29 0 25 0;
#X connect 33 0 27 0;
#X connect 34 0 56 0;
#X connect 35 0 45 0;
#X connect 36 0 46 0;
#X connect 37 0 34 0;
#X connect 38 0 35 0;
#X connect 39 0 36 0;
#X connect 40 0 64 0;
#X connect 41 0 63 0;
#X connect 42 0 4 0;
#X connect 42 0 4 1;
#X connect 45 0 29 0;
#X connect 46 0 28 0;
#X connect 47 0 65 0;
#X connect 48 0 4 0;
#X connect 48 0 4 1;
#X connect 50 0 66 0;
#X connect 51 0 52 0;
#X connect 52 0 53 0;
#X connect 53 0 22 0;
#X connect 54 0 10 0;
#X connect 55 0 51 1;
#X connect 56 0 33 0;
#X connect 57 0 16 0;
#X connect 58 0 41 1;
#X connect 59 0 42 1;
#X connect 60 0 48 1;
#X connect 61 0 62 0;
#X connect 62 0 63 1;
#X connect 63 0 4 0;
#X connect 63 0 4 1;
#X connect 64 0 58 0;
#X connect 65 0 59 0;
#X connect 66 0 60 0;
#X connect 67 0 69 0;
#X connect 67 0 70 0;
#X connect 70 0 68 0;
