#N canvas 751 23 693 563 10;
#X declare -lib mrpeach;
#X obj 82 150 +~;
#X obj 97 128 *~;
#X obj 97 78 osc~;
#X obj 82 172 osc~;
#X obj 92 308 dac~;
#N canvas 43 295 1440 851 OSC-MIDI 0;
#X obj 366 -2 import mrpeach;
#X obj 263 -3 udpreceive 3001;
#X obj 263 19 unpackOSC;
#X obj 1412 962 tgl 15 0 empty empty empty 17 7 0 10 -262144 -1 -1
0 1;
#X obj 1412 962 tgl 15 0 empty empty empty 17 7 0 10 -262144 -1 -1
0 1;
#X obj -21 238 s kk1;
#X obj 19 238 s kk2;
#X obj 59 238 s kk3;
#X text 50 120 knobs;
#X obj 139 238 s kk5;
#X obj 99 238 s kk4;
#X obj 179 238 s kk6;
#X obj 302 239 s ks1;
#X obj 342 239 s ks2;
#X obj 382 239 s ks3;
#X text 313 117 sliders;
#X obj 360 119 ctlin 41;
#X obj 411 119 ctlin 42;
#X obj 472 119 ctlin 43;
#X obj 358 144 ctlin 44;
#X obj 418 144 ctlin 45;
#X obj 479 144 ctlin 46;
#X obj 358 169 ctlin 47;
#X obj 419 169 ctlin 48;
#X obj 87 120 ctlin 21;
#X obj 147 120 ctlin 22;
#X obj 208 120 ctlin 23;
#X obj 87 142 ctlin 24;
#X obj 147 142 ctlin 25;
#X obj 208 142 ctlin 26;
#X obj 87 166 ctlin 27;
#X obj 148 166 ctlin 28;
#X text 0 92 NOTE : Pure Data Uses port 9001 by default but you can
designate a new port;
#X obj 263 54 routeOSC /kk1 /kk2 /kk3 /kk4 /kk5 /kk6 /kk7 /kk8 /ks1
/ks2 /ks3 /ks4 /ks5 /ks6 /ks7 /ks8 /but1 /but2 /but3 /but4 /but5 /but6
/but7 /but8;
#X connect 1 0 2 0;
#X connect 2 0 33 0;
#X connect 16 0 12 0;
#X connect 17 0 13 0;
#X connect 18 0 14 0;
#X connect 24 0 5 0;
#X connect 25 0 6 0;
#X connect 26 0 7 0;
#X connect 27 0 10 0;
#X connect 28 0 9 0;
#X connect 29 0 11 0;
#X connect 33 0 5 0;
#X connect 33 1 6 0;
#X connect 33 2 7 0;
#X connect 33 3 10 0;
#X connect 33 4 9 0;
#X connect 33 5 11 0;
#X connect 33 8 12 0;
#X connect 33 9 13 0;
#X connect 33 10 14 0;
#X restore -29 305 pd OSC-MIDI;
#X obj 17 -119 r kk1;
#X obj 90 -35 r kk2;
#X obj 141 -19 r kk3;
#X floatatom 32 23 5 0 0 0 - - -;
#X floatatom 142 107 5 0 0 0 - - -;
#X floatatom 96 49 5 0 0 0 - - -;
#X text 140 -39 Mod Amount;
#X text 70 -64 mod Frequency;
#X text -12 -142 Carrier Freq;
#X text 324 -170 AM Synthesis;
#X obj 31 -32 mtof;
#X obj 92 18 + 50;
#X text -35 288 Routing Brains;
#X obj 31 -91 / 2098;
#X obj 90 -11 / 24;
#X obj 141 10 / 25;
#X obj 209 165 *~;
#X obj 304 143 +~;
#X obj 319 121 *~;
#X obj 319 71 osc~;
#X obj 304 165 osc~;
#X floatatom 254 16 5 0 0 0 - - -;
#X floatatom 364 100 5 0 0 0 - - -;
#X floatatom 318 42 5 0 0 0 - - -;
#X text 362 -46 Mod Amount;
#X text 292 -71 mod Frequency;
#X text 210 -149 Carrier Freq;
#X obj 253 -39 mtof;
#X obj 253 -98 / 2098;
#X obj 312 -18 / 24;
#X obj 363 3 / 25;
#X obj 239 -126 r kk4;
#X obj 312 -42 r kk5;
#X obj 363 -26 r kk6;
#X obj 114 158 r ks1;
#X obj 99 245 *~;
#X obj 210 259 *~;
#X text 111 142 FM Amplitude;
#X text 195 68 AM Amplitude;
#X obj 314 11 + 42;
#X obj 363 43 + 2;
#X obj 225 185 r ks3;
#X obj 303 264 *~;
#X text 338 142 FM2 Amplitude;
#X obj 338 168 r ks2;
#X obj 208 85 osc~;
#X obj 208 117 *~ 0.5;
#X obj 208 142 +~ 0.5;
#X obj 141 50 + 2;
#X obj 217 34 / 2;
#X obj 254 -75 + 43;
#X obj 32 -68 + 50;
#X floatatom 114 210 5 0 0 0 - - -;
#X floatatom 225 237 5 0 0 0 - - -;
#X floatatom 337 227 5 0 0 0 - - -;
#X obj 303 327 dac~;
#X obj 114 185 / 127;
#X obj 225 212 / 127;
#X obj 338 195 / 127;
#X connect 0 0 3 0;
#X connect 1 0 0 1;
#X connect 2 0 1 0;
#X connect 3 0 41 0;
#X connect 6 0 19 0;
#X connect 7 0 20 0;
#X connect 8 0 21 0;
#X connect 9 0 0 0;
#X connect 10 0 1 1;
#X connect 11 0 2 0;
#X connect 16 0 9 0;
#X connect 17 0 11 0;
#X connect 19 0 57 0;
#X connect 20 0 17 0;
#X connect 21 0 54 0;
#X connect 22 0 42 0;
#X connect 23 0 26 0;
#X connect 24 0 23 1;
#X connect 25 0 24 0;
#X connect 26 0 48 0;
#X connect 26 0 22 1;
#X connect 27 0 23 0;
#X connect 27 0 55 0;
#X connect 28 0 24 1;
#X connect 29 0 25 0;
#X connect 33 0 27 0;
#X connect 34 0 56 0;
#X connect 35 0 45 0;
#X connect 36 0 46 0;
#X connect 37 0 34 0;
#X connect 38 0 35 0;
#X connect 39 0 36 0;
#X connect 40 0 62 0;
#X connect 41 0 4 0;
#X connect 41 0 4 1;
#X connect 42 0 4 0;
#X connect 42 0 61 1;
#X connect 45 0 29 0;
#X connect 46 0 28 0;
#X connect 47 0 63 0;
#X connect 48 0 61 0;
#X connect 48 0 61 1;
#X connect 50 0 64 0;
#X connect 51 0 52 0;
#X connect 52 0 53 0;
#X connect 53 0 22 0;
#X connect 54 0 10 0;
#X connect 55 0 51 1;
#X connect 56 0 33 0;
#X connect 57 0 16 0;
#X connect 58 0 41 1;
#X connect 59 0 42 1;
#X connect 60 0 48 1;
#X connect 62 0 58 0;
#X connect 63 0 59 0;
#X connect 64 0 60 0;
