#N canvas 0 129 1440 851 10;
#X declare -lib mrpeach;
#X floatatom 228 24 5 0 0 0 - - -;
#X floatatom 318 -41 5 0 127 0 - - -;
#X obj 308 247 dac~;
#X obj 381 94 bng 15 250 50 0 empty empty empty 17 7 0 10 -262144 -1
-1;
#X obj 228 -39 / 127;
#X msg 330 165 0;
#X obj 315 212 *~;
#X msg 318 -63 0;
#X msg 228 -61 127;
#X obj 955 -100 loadbang;
#X msg 955 -54 \; pd dsp 1 \;;
#X obj 1012 -101 s lb;
#X obj 955 -77 delay 2000;
#X obj 318 -83 r lb;
#X obj 330 144 r lb;
#X obj 228 -82 r lb;
#X obj 381 74 r but1;
#X obj 361 165 r ks1;
#X obj 189 -82 r kk1;
#X obj 281 -83 r kk2;
#X floatatom 468 17 5 0 0 0 - - -;
#X floatatom 558 18 5 0 127 0 - - -;
#X obj 535 270 dac~;
#N canvas 0 22 1440 803 Waveshape0 0;
#X obj 293 522 outlet~;
#X obj 117 298 inlet~;
#X obj 117 404 osc~;
#X obj 205 404 osc~;
#X obj 249 404 osc~;
#X obj 293 404 osc~;
#X obj 337 404 osc~;
#X obj 381 404 osc~;
#X obj 425 404 osc~;
#X obj 468 404 osc~;
#X obj 205 383 *~ 3;
#X obj 249 383 *~ 4;
#X obj 293 383 *~ 5;
#X obj 337 383 *~ 6;
#X obj 381 383 *~ 7;
#X obj 425 383 *~ 8;
#X obj 468 383 *~ 9;
#X obj 161 404 osc~;
#X obj 161 383 *~ 2;
#X msg 535 383 500;
#X obj 660 322 cycle 9 0 0 0 0 0 0;
#X obj 515 406 line~ 0;
#X obj 515 361 t f b;
#X msg 585 383 500;
#X obj 565 406 line~ 0;
#X obj 565 361 t f b;
#X msg 635 383 500;
#X obj 615 406 line~ 0;
#X obj 615 361 t f b;
#X msg 685 383 500;
#X obj 665 406 line~ 0;
#X obj 665 361 t f b;
#X msg 735 383 500;
#X obj 715 406 line~ 0;
#X obj 715 361 t f b;
#X msg 785 383 500;
#X obj 765 406 line~ 0;
#X obj 765 361 t f b;
#X msg 835 383 500;
#X obj 815 406 line~ 0;
#X obj 815 360 t f b;
#X msg 885 383 500;
#X obj 865 406 line~ 0;
#X obj 865 361 t f b;
#X msg 935 383 500;
#X obj 915 406 line~ 0;
#X obj 915 361 t f b;
#X obj 117 455 *~;
#X obj 161 455 *~;
#X obj 205 455 *~;
#X obj 249 455 *~;
#X obj 293 455 *~;
#X obj 337 455 *~;
#X obj 381 455 *~;
#X obj 425 455 *~;
#X obj 468 455 *~;
#X obj 660 208 drunk 1;
#X msg 733 257 0;
#X obj 660 228 sel 0 1;
#X obj 660 186 repeat 9;
#X obj 660 298 / 300;
#X obj 660 162 inlet;
#N canvas 781 56 591 697 randomer 0;
#X obj 254 318 random 100;
#X obj 254 196 inlet;
#X obj 254 341 outlet;
#X obj 335 161 time;
#X floatatom 356 184 5 0 0 0 - - -;
#X msg 356 204 seed \$1;
#X msg 356 275 seed 241.956;
#X obj 335 140 bng 15 250 50 0 empty empty empty 17 7 0 10 -262144
-1 -1;
#X obj 356 226 prepend set;
#X obj 356 250 t b a;
#X obj 335 82 loadbang;
#X obj 334 108 del 2350;
#X connect 0 0 2 0;
#X connect 1 0 0 0;
#X connect 3 3 4 0;
#X connect 4 0 5 0;
#X connect 5 0 8 0;
#X connect 6 0 0 0;
#X connect 7 0 3 0;
#X connect 8 0 9 0;
#X connect 9 0 6 0;
#X connect 9 1 6 0;
#X connect 10 0 11 0;
#X connect 11 0 7 0;
#X restore 660 257 pd randomer;
#X connect 1 0 2 0;
#X connect 1 0 18 0;
#X connect 1 0 10 0;
#X connect 1 0 11 0;
#X connect 1 0 12 0;
#X connect 1 0 13 0;
#X connect 1 0 14 0;
#X connect 1 0 15 0;
#X connect 1 0 16 0;
#X connect 2 0 47 0;
#X connect 3 0 49 0;
#X connect 4 0 50 0;
#X connect 5 0 51 0;
#X connect 6 0 52 0;
#X connect 7 0 53 0;
#X connect 8 0 54 0;
#X connect 9 0 55 0;
#X connect 10 0 3 0;
#X connect 11 0 4 0;
#X connect 12 0 5 0;
#X connect 13 0 6 0;
#X connect 14 0 7 0;
#X connect 15 0 8 0;
#X connect 16 0 9 0;
#X connect 17 0 48 0;
#X connect 18 0 17 0;
#X connect 19 0 21 1;
#X connect 20 0 22 0;
#X connect 20 1 25 0;
#X connect 20 2 28 0;
#X connect 20 3 31 0;
#X connect 20 4 34 0;
#X connect 20 5 37 0;
#X connect 20 6 40 0;
#X connect 20 7 43 0;
#X connect 20 8 46 0;
#X connect 21 0 47 1;
#X connect 22 0 21 0;
#X connect 22 1 19 0;
#X connect 23 0 24 1;
#X connect 24 0 48 1;
#X connect 25 0 24 0;
#X connect 25 1 23 0;
#X connect 26 0 27 1;
#X connect 27 0 49 1;
#X connect 28 0 27 0;
#X connect 28 1 26 0;
#X connect 29 0 30 1;
#X connect 30 0 50 1;
#X connect 31 0 30 0;
#X connect 31 1 29 0;
#X connect 32 0 33 1;
#X connect 33 0 51 1;
#X connect 34 0 33 0;
#X connect 34 1 32 0;
#X connect 35 0 36 1;
#X connect 36 0 52 1;
#X connect 37 0 36 0;
#X connect 37 1 35 0;
#X connect 38 0 39 1;
#X connect 39 0 53 1;
#X connect 40 0 39 0;
#X connect 40 1 38 0;
#X connect 41 0 42 1;
#X connect 42 0 54 1;
#X connect 43 0 42 0;
#X connect 43 1 41 0;
#X connect 44 0 45 1;
#X connect 45 0 55 1;
#X connect 46 0 45 0;
#X connect 46 1 44 0;
#X connect 47 0 0 0;
#X connect 48 0 0 0;
#X connect 49 0 0 0;
#X connect 50 0 0 0;
#X connect 51 0 0 0;
#X connect 52 0 0 0;
#X connect 53 0 0 0;
#X connect 54 0 0 0;
#X connect 55 0 0 0;
#X connect 56 0 58 0;
#X connect 57 0 60 0;
#X connect 58 0 62 0;
#X connect 58 1 57 0;
#X connect 59 0 56 0;
#X connect 60 0 20 0;
#X connect 61 0 59 0;
#X connect 62 0 60 0;
#X restore 535 148 pd Waveshape0;
#X obj 610 130 bng 15 250 50 0 empty empty empty 17 7 0 10 -262144
-1 -1;
#X obj 468 -46 / 127;
#X msg 550 194 0;
#X obj 535 241 *~;
#X msg 558 -4 0;
#X msg 468 -68 127;
#X obj 558 -24 r lb;
#X obj 550 173 r lb;
#X obj 468 -89 r lb;
#X floatatom 708 -2 5 0 0 0 - - -;
#X floatatom 798 -1 5 0 127 0 - - -;
#X obj 805 281 dac~;
#N canvas 0 22 1440 803 Waveshape0 0;
#X obj 293 522 outlet~;
#X obj 117 298 inlet~;
#X obj 117 404 osc~;
#X obj 205 404 osc~;
#X obj 249 404 osc~;
#X obj 293 404 osc~;
#X obj 337 404 osc~;
#X obj 381 404 osc~;
#X obj 425 404 osc~;
#X obj 468 404 osc~;
#X obj 205 383 *~ 3;
#X obj 249 383 *~ 4;
#X obj 293 383 *~ 5;
#X obj 337 383 *~ 6;
#X obj 381 383 *~ 7;
#X obj 425 383 *~ 8;
#X obj 468 383 *~ 9;
#X obj 161 404 osc~;
#X obj 161 383 *~ 2;
#X msg 535 383 500;
#X obj 660 322 cycle 9 0 0 0 0 0 0;
#X obj 515 406 line~ 0;
#X obj 515 361 t f b;
#X msg 585 383 500;
#X obj 565 406 line~ 0;
#X obj 565 361 t f b;
#X msg 635 383 500;
#X obj 615 406 line~ 0;
#X obj 615 361 t f b;
#X msg 685 383 500;
#X obj 665 406 line~ 0;
#X obj 665 361 t f b;
#X msg 735 383 500;
#X obj 715 406 line~ 0;
#X obj 715 361 t f b;
#X msg 785 383 500;
#X obj 765 406 line~ 0;
#X obj 765 361 t f b;
#X msg 835 383 500;
#X obj 815 406 line~ 0;
#X obj 815 360 t f b;
#X msg 885 383 500;
#X obj 865 406 line~ 0;
#X obj 865 361 t f b;
#X msg 935 383 500;
#X obj 915 406 line~ 0;
#X obj 915 361 t f b;
#X obj 117 455 *~;
#X obj 161 455 *~;
#X obj 205 455 *~;
#X obj 249 455 *~;
#X obj 293 455 *~;
#X obj 337 455 *~;
#X obj 381 455 *~;
#X obj 425 455 *~;
#X obj 468 455 *~;
#X obj 660 208 drunk 1;
#X msg 733 257 0;
#X obj 660 228 sel 0 1;
#X obj 660 186 repeat 9;
#X obj 660 298 / 300;
#X obj 660 162 inlet;
#N canvas 781 56 591 697 randomer 0;
#X obj 254 318 random 100;
#X obj 254 196 inlet;
#X obj 254 341 outlet;
#X obj 335 161 time;
#X floatatom 356 184 5 0 0 0 - - -;
#X msg 356 204 seed \$1;
#X msg 356 275 seed 241.973;
#X obj 335 140 bng 15 250 50 0 empty empty empty 17 7 0 10 -262144
-1 -1;
#X obj 356 226 prepend set;
#X obj 356 250 t b a;
#X obj 335 82 loadbang;
#X obj 334 108 del 2350;
#X connect 0 0 2 0;
#X connect 1 0 0 0;
#X connect 3 3 4 0;
#X connect 4 0 5 0;
#X connect 5 0 8 0;
#X connect 6 0 0 0;
#X connect 7 0 3 0;
#X connect 8 0 9 0;
#X connect 9 0 6 0;
#X connect 9 1 6 0;
#X connect 10 0 11 0;
#X connect 11 0 7 0;
#X restore 660 257 pd randomer;
#X connect 1 0 2 0;
#X connect 1 0 18 0;
#X connect 1 0 10 0;
#X connect 1 0 11 0;
#X connect 1 0 12 0;
#X connect 1 0 13 0;
#X connect 1 0 14 0;
#X connect 1 0 15 0;
#X connect 1 0 16 0;
#X connect 2 0 47 0;
#X connect 3 0 49 0;
#X connect 4 0 50 0;
#X connect 5 0 51 0;
#X connect 6 0 52 0;
#X connect 7 0 53 0;
#X connect 8 0 54 0;
#X connect 9 0 55 0;
#X connect 10 0 3 0;
#X connect 11 0 4 0;
#X connect 12 0 5 0;
#X connect 13 0 6 0;
#X connect 14 0 7 0;
#X connect 15 0 8 0;
#X connect 16 0 9 0;
#X connect 17 0 48 0;
#X connect 18 0 17 0;
#X connect 19 0 21 1;
#X connect 20 0 22 0;
#X connect 20 1 25 0;
#X connect 20 2 28 0;
#X connect 20 3 31 0;
#X connect 20 4 34 0;
#X connect 20 5 37 0;
#X connect 20 6 40 0;
#X connect 20 7 43 0;
#X connect 20 8 46 0;
#X connect 21 0 47 1;
#X connect 22 0 21 0;
#X connect 22 1 19 0;
#X connect 23 0 24 1;
#X connect 24 0 48 1;
#X connect 25 0 24 0;
#X connect 25 1 23 0;
#X connect 26 0 27 1;
#X connect 27 0 49 1;
#X connect 28 0 27 0;
#X connect 28 1 26 0;
#X connect 29 0 30 1;
#X connect 30 0 50 1;
#X connect 31 0 30 0;
#X connect 31 1 29 0;
#X connect 32 0 33 1;
#X connect 33 0 51 1;
#X connect 34 0 33 0;
#X connect 34 1 32 0;
#X connect 35 0 36 1;
#X connect 36 0 52 1;
#X connect 37 0 36 0;
#X connect 37 1 35 0;
#X connect 38 0 39 1;
#X connect 39 0 53 1;
#X connect 40 0 39 0;
#X connect 40 1 38 0;
#X connect 41 0 42 1;
#X connect 42 0 54 1;
#X connect 43 0 42 0;
#X connect 43 1 41 0;
#X connect 44 0 45 1;
#X connect 45 0 55 1;
#X connect 46 0 45 0;
#X connect 46 1 44 0;
#X connect 47 0 0 0;
#X connect 48 0 0 0;
#X connect 49 0 0 0;
#X connect 50 0 0 0;
#X connect 51 0 0 0;
#X connect 52 0 0 0;
#X connect 53 0 0 0;
#X connect 54 0 0 0;
#X connect 55 0 0 0;
#X connect 56 0 58 0;
#X connect 57 0 60 0;
#X connect 58 0 62 0;
#X connect 58 1 57 0;
#X connect 59 0 56 0;
#X connect 60 0 20 0;
#X connect 61 0 59 0;
#X connect 62 0 60 0;
#X restore 805 159 pd Waveshape0;
#X obj 880 141 bng 15 250 50 0 empty empty empty 17 7 0 10 -262144
-1 -1;
#X obj 708 -65 / 127;
#X msg 820 205 0;
#X obj 805 252 *~;
#X msg 798 -23 0;
#X msg 708 -87 127;
#X obj 798 -43 r lb;
#X obj 820 184 r lb;
#X obj 708 -108 r lb;
#X obj 610 110 r but2;
#X obj 880 121 r but3;
#X obj 581 194 r ks2;
#X obj 851 205 r ks3;
#X obj 306 77 +~;
#X obj 320 19 osc~;
#N canvas 0 22 1440 803 Waveshape0 1;
#X obj 293 522 outlet~;
#X obj 132 93 inlet~;
#X obj 205 404 osc~;
#X obj 205 383 *~ 3;
#X obj 161 404 osc~;
#X obj 161 383 *~ 2;
#X msg 226 317 500;
#X obj 206 340 line~ 0;
#X obj 206 295 t f b;
#X msg 276 317 500;
#X obj 256 340 line~ 0;
#X obj 256 295 t f b;
#X msg 326 317 500;
#X obj 306 340 line~ 0;
#X obj 306 295 t f b;
#X obj 161 455 *~;
#X obj 205 455 *~;
#X obj 219 141 drunk 1;
#X msg 292 190 0;
#X obj 219 161 sel 0 1;
#X obj 219 231 / 300;
#X obj 219 95 inlet;
#N canvas 781 56 591 697 randomer 0;
#X obj 254 318 random 100;
#X obj 254 196 inlet;
#X obj 254 341 outlet;
#X obj 335 161 time;
#X floatatom 356 184 5 0 0 0 - - -;
#X msg 356 204 seed \$1;
#X msg 356 275 seed 241.976;
#X obj 335 140 bng 15 250 50 0 empty empty empty 17 7 0 10 -262144
-1 -1;
#X obj 356 226 prepend set;
#X obj 356 250 t b a;
#X obj 335 82 loadbang;
#X obj 334 108 del 2350;
#X connect 0 0 2 0;
#X connect 1 0 0 0;
#X connect 3 3 4 0;
#X connect 4 0 5 0;
#X connect 5 0 8 0;
#X connect 6 0 0 0;
#X connect 7 0 3 0;
#X connect 8 0 9 0;
#X connect 9 0 6 0;
#X connect 9 1 6 0;
#X connect 10 0 11 0;
#X connect 11 0 7 0;
#X restore 219 190 pd randomer;
#X obj 249 404 osc~;
#X obj 249 383 *~ 4;
#X obj 249 455 *~;
#X obj 219 119 repeat 3;
#X obj 219 255 cycle 3 0 0;
#X connect 1 0 5 0;
#X connect 1 0 3 0;
#X connect 1 0 24 0;
#X connect 2 0 16 0;
#X connect 3 0 2 0;
#X connect 4 0 15 0;
#X connect 5 0 4 0;
#X connect 6 0 7 1;
#X connect 7 0 15 1;
#X connect 8 0 7 0;
#X connect 8 1 6 0;
#X connect 9 0 10 1;
#X connect 10 0 16 1;
#X connect 11 0 10 0;
#X connect 11 1 9 0;
#X connect 12 0 13 1;
#X connect 13 0 25 1;
#X connect 14 0 13 0;
#X connect 14 1 12 0;
#X connect 15 0 0 0;
#X connect 16 0 0 0;
#X connect 17 0 19 0;
#X connect 18 0 20 0;
#X connect 19 0 22 0;
#X connect 19 1 18 0;
#X connect 20 0 27 0;
#X connect 21 0 26 0;
#X connect 22 0 20 0;
#X connect 23 0 25 0;
#X connect 24 0 23 0;
#X connect 25 0 0 0;
#X connect 26 0 17 0;
#X connect 27 0 8 0;
#X connect 27 1 11 0;
#X connect 27 2 14 0;
#X restore 306 116 pd Waveshape0;
#X obj 228 3 + 213;
#X obj 551 104 *~;
#X obj 536 127 +~;
#X obj 550 69 osc~;
#X obj 801 94 *~;
#X obj 786 117 +~;
#X obj 801 35 / 120;
#X obj 800 59 osc~;
#X obj 551 45 / 300;
#X obj 321 -5 / 300;
#X obj 468 -4 + 160;
#X obj 429 -89 r kk1;
#X obj 669 -108 r kk1;
#X obj 521 -24 r kk3;
#X obj 761 -43 r kk4;
#X obj 708 -23 + 215;
#X obj 259 51 / 3;
#X obj 488 68 / 3;
#X obj 717 46 / 3;
#X obj 228 -18 * 7.5;
#X obj 468 -25 * 9;
#X obj 708 -44 * 10;
#X floatatom 839 252 5 0 0 0 - - -;
#X floatatom 572 244 5 0 0 0 - - -;
#N canvas 140 37 1440 851 OSC-MIDI 1;
#X obj 1412 962 tgl 15 0 empty empty empty 17 7 0 10 -262144 -1 -1
0 1;
#X obj 1412 962 tgl 15 0 empty empty empty 17 7 0 10 -262144 -1 -1
0 1;
#X obj -90 65 unpackOSC;
#X obj -187 40 import mrpeach;
#X floatatom -90 109 5 0 0 0 - - -;
#X obj -90 88 routeOSC /s1 /s2 /s3 /s4 /s5 /s6 /s7 /s8 /s9;
#X obj -90 129 s s1;
#X floatatom -56 109 5 0 0 0 - - -;
#X obj -56 129 s s2;
#X floatatom -20 109 5 0 0 0 - - -;
#X floatatom 14 109 5 0 0 0 - - -;
#X obj -20 129 s s3;
#X obj 14 129 s s4;
#X floatatom 50 110 5 0 0 0 - - -;
#X floatatom 84 110 5 0 0 0 - - -;
#X floatatom 120 110 5 0 0 0 - - -;
#X floatatom 154 110 5 0 0 0 - - -;
#X obj 50 130 s s5;
#X obj 84 130 s s6;
#X obj 120 130 s s7;
#X obj 154 130 s s8;
#X floatatom 190 110 5 0 0 0 - - -;
#X obj 190 130 s s9;
#X floatatom -112 178 5 0 0 0 - - -;
#X floatatom -78 178 5 0 0 0 - - -;
#X floatatom -42 178 5 0 0 0 - - -;
#X floatatom -8 178 5 0 0 0 - - -;
#X floatatom 28 179 5 0 0 0 - - -;
#X floatatom 62 179 5 0 0 0 - - -;
#X floatatom 98 179 5 0 0 0 - - -;
#X floatatom 132 179 5 0 0 0 - - -;
#X floatatom 168 179 5 0 0 0 - - -;
#X obj -112 157 routeOSC /k1 /k2 /k3 /k4 /k5 /k6 /k7 /k8 /k9;
#X obj -112 198 s k1;
#X obj -78 198 s k2;
#X obj -42 198 s k3;
#X obj -8 198 s k4;
#X obj 28 199 s k5;
#X obj 62 199 s k6;
#X obj 98 199 s k7;
#X obj 132 199 s k8;
#X obj 168 199 s k9;
#X obj -141 228 routeOSC /b1 /b2 /b3 /b4 /b5 /b6 /b7 /b8 /b9;
#X obj -141 269 s b1;
#X text 74 43 <-- Change the IP Address to your laptop's IP address
;
#X obj -141 249 bng 15 250 50 0 empty empty empty 17 7 0 10 -262144
-1 -1;
#X obj -108 249 bng 15 250 50 0 empty empty empty 17 7 0 10 -262144
-1 -1;
#X obj -76 249 bng 15 250 50 0 empty empty empty 17 7 0 10 -262144
-1 -1;
#X obj -45 249 bng 15 250 50 0 empty empty empty 17 7 0 10 -262144
-1 -1;
#X obj -12 249 bng 15 250 50 0 empty empty empty 17 7 0 10 -262144
-1 -1;
#X obj 20 249 bng 15 250 50 0 empty empty empty 17 7 0 10 -262144 -1
-1;
#X obj 53 248 bng 15 250 50 0 empty empty empty 17 7 0 10 -262144 -1
-1;
#X obj 86 248 bng 15 250 50 0 empty empty empty 17 7 0 10 -262144 -1
-1;
#X obj 118 248 bng 15 250 50 0 empty empty empty 17 7 0 10 -262144
-1 -1;
#X obj -108 269 s b2;
#X obj -76 269 s b3;
#X obj -45 269 s b4;
#X obj -12 269 s b5;
#X obj 20 269 s b6;
#X obj 53 268 s b7;
#X obj 86 268 s b8;
#X obj 118 268 s b9;
#X text -141 87 SLIDERS;
#X text -151 159 KNOBS;
#X text -187 231 BUTTONS;
#X obj -89 41 udpreceive 3001 10.0.1.13;
#X connect 2 0 5 0;
#X connect 2 0 32 0;
#X connect 2 0 42 0;
#X connect 4 0 6 0;
#X connect 5 0 4 0;
#X connect 5 1 7 0;
#X connect 5 2 9 0;
#X connect 5 3 10 0;
#X connect 5 4 13 0;
#X connect 5 5 14 0;
#X connect 5 6 15 0;
#X connect 5 7 16 0;
#X connect 5 8 21 0;
#X connect 7 0 8 0;
#X connect 9 0 11 0;
#X connect 10 0 12 0;
#X connect 13 0 17 0;
#X connect 14 0 18 0;
#X connect 15 0 19 0;
#X connect 16 0 20 0;
#X connect 21 0 22 0;
#X connect 23 0 33 0;
#X connect 24 0 34 0;
#X connect 25 0 35 0;
#X connect 26 0 36 0;
#X connect 27 0 37 0;
#X connect 28 0 38 0;
#X connect 29 0 39 0;
#X connect 30 0 40 0;
#X connect 31 0 41 0;
#X connect 32 0 23 0;
#X connect 32 1 24 0;
#X connect 32 2 25 0;
#X connect 32 3 26 0;
#X connect 32 4 27 0;
#X connect 32 5 28 0;
#X connect 32 6 29 0;
#X connect 32 7 30 0;
#X connect 32 8 31 0;
#X connect 42 0 45 0;
#X connect 42 1 46 0;
#X connect 42 2 47 0;
#X connect 42 3 48 0;
#X connect 42 4 49 0;
#X connect 42 5 50 0;
#X connect 42 6 51 0;
#X connect 42 7 52 0;
#X connect 42 8 53 0;
#X connect 45 0 43 0;
#X connect 46 0 54 0;
#X connect 47 0 55 0;
#X connect 48 0 56 0;
#X connect 49 0 57 0;
#X connect 50 0 58 0;
#X connect 51 0 59 0;
#X connect 52 0 60 0;
#X connect 53 0 61 0;
#X connect 65 0 2 0;
#X restore 954 -17 pd OSC-MIDI;
#X obj 330 190 / 100;
#X obj 550 219 / 170;
#X obj 820 230 / 170;
#X connect 0 0 69 0;
#X connect 1 0 62 0;
#X connect 3 0 52 1;
#X connect 4 0 72 0;
#X connect 5 0 78 0;
#X connect 6 0 2 0;
#X connect 6 0 2 1;
#X connect 7 0 1 0;
#X connect 8 0 4 0;
#X connect 9 0 11 0;
#X connect 9 0 12 0;
#X connect 12 0 10 0;
#X connect 13 0 7 0;
#X connect 14 0 5 0;
#X connect 15 0 8 0;
#X connect 16 0 3 0;
#X connect 17 0 78 0;
#X connect 18 0 4 0;
#X connect 19 0 1 0;
#X connect 20 0 70 0;
#X connect 21 0 61 0;
#X connect 23 0 27 0;
#X connect 24 0 23 1;
#X connect 25 0 73 0;
#X connect 26 0 79 0;
#X connect 27 0 22 0;
#X connect 27 0 22 1;
#X connect 28 0 21 0;
#X connect 29 0 25 0;
#X connect 30 0 28 0;
#X connect 31 0 26 0;
#X connect 32 0 29 0;
#X connect 33 0 71 0;
#X connect 34 0 59 0;
#X connect 36 0 40 0;
#X connect 37 0 36 1;
#X connect 38 0 74 0;
#X connect 39 0 80 0;
#X connect 40 0 35 0;
#X connect 40 0 35 1;
#X connect 41 0 34 0;
#X connect 42 0 38 0;
#X connect 43 0 41 0;
#X connect 44 0 39 0;
#X connect 45 0 42 0;
#X connect 46 0 24 0;
#X connect 47 0 37 0;
#X connect 48 0 79 0;
#X connect 49 0 80 0;
#X connect 50 0 52 0;
#X connect 51 0 50 1;
#X connect 52 0 6 0;
#X connect 53 0 0 0;
#X connect 54 0 55 1;
#X connect 55 0 23 0;
#X connect 56 0 54 0;
#X connect 57 0 58 1;
#X connect 58 0 36 0;
#X connect 59 0 60 0;
#X connect 60 0 57 0;
#X connect 61 0 56 0;
#X connect 62 0 51 0;
#X connect 63 0 20 0;
#X connect 64 0 25 0;
#X connect 65 0 38 0;
#X connect 66 0 21 0;
#X connect 67 0 34 0;
#X connect 68 0 33 0;
#X connect 69 0 50 0;
#X connect 70 0 55 0;
#X connect 71 0 58 0;
#X connect 72 0 53 0;
#X connect 73 0 63 0;
#X connect 74 0 68 0;
#X connect 75 0 40 1;
#X connect 76 0 27 1;
#X connect 78 0 6 1;
#X connect 79 0 76 0;
#X connect 80 0 75 0;
