#N canvas 571 118 866 851 10;
#X declare -lib mrpeach;
#X obj -412 -184 osc~;
#X obj -324 -184 osc~;
#X obj -280 -184 osc~;
#X obj -236 -184 osc~;
#X obj -192 -184 osc~;
#X obj -148 -184 osc~;
#X obj -104 -184 osc~;
#X obj -198 -366 *~ 3;
#X obj -154 -366 *~ 4;
#X obj -110 -366 *~ 5;
#X obj -66 -366 *~ 6;
#X obj -22 -366 *~ 7;
#X obj 22 -366 *~ 8;
#X obj -368 -184 osc~;
#X obj -242 -366 *~ 2;
#X obj -382 48 *~;
#X obj -338 48 *~;
#X obj -294 48 *~;
#X obj -250 48 *~;
#X obj -206 48 *~;
#X obj -162 48 *~;
#X obj -118 48 *~;
#X obj -74 48 *~;
#X obj -423 -500 r /k1;
#X obj -434 -482 / 127;
#X obj -429 178 osc~;
#X obj -341 178 osc~;
#X obj -297 178 osc~;
#X obj -253 178 osc~;
#X obj -209 178 osc~;
#X obj -165 178 osc~;
#X obj -121 178 osc~;
#X obj -341 157 *~ 3;
#X obj -297 157 *~ 4;
#X obj -253 157 *~ 5;
#X obj -209 157 *~ 6;
#X obj -165 157 *~ 7;
#X obj -121 157 *~ 8;
#X obj -385 178 osc~;
#X obj -385 157 *~ 2;
#X obj 26 165 line~ 0;
#X obj 26 120 t f b;
#X obj 76 165 line~ 0;
#X obj 76 120 t f b;
#X obj 126 165 line~ 0;
#X obj 126 120 t f b;
#X obj 176 165 line~ 0;
#X obj 176 120 t f b;
#X obj 226 165 line~ 0;
#X obj 226 120 t f b;
#X obj 276 165 line~ 0;
#X obj 276 120 t f b;
#X obj 326 165 line~ 0;
#X obj 326 119 t f b;
#X obj 376 165 line~ 0;
#X obj 376 120 t f b;
#X obj -429 229 *~;
#X obj -385 229 *~;
#X obj -341 229 *~;
#X obj -297 229 *~;
#X obj -253 229 *~;
#X obj -209 229 *~;
#X obj -165 229 *~;
#X obj -121 229 *~;
#X obj 25 67 r /b1;
#X obj 29 20 ctlin 32;
#X floatatom 41 49 5 0 0 0 - - -;
#X floatatom 95 49 5 0 0 0 - - -;
#X obj 79 67 r /b2;
#X obj 82 22 ctlin 33;
#X floatatom 149 49 5 0 0 0 - - -;
#X obj 137 21 ctlin 34;
#X obj 133 67 r /b3;
#X obj -403 -161 r /s1;
#X obj -359 -161 r /s2;
#X obj -315 -161 r /s3;
#X obj -266 -162 r /s4;
#X obj -222 -162 r /s5;
#X obj -178 -162 r /s6;
#X obj -136 -164 r /s7;
#X obj -92 -164 r /s8;
#X floatatom 206 50 5 0 0 0 - - -;
#X floatatom 260 50 5 0 0 0 - - -;
#X floatatom 300 47 5 0 0 0 - - -;
#X obj 194 25 ctlin 35;
#X obj 248 24 ctlin 36;
#X obj 302 23 ctlin 37;
#X obj 190 67 r /b4;
#X obj 244 68 r /b5;
#X obj 298 68 r /b6;
#X floatatom -388 -101 5 0 0 0 - - -;
#X floatatom -334 -101 5 0 0 0 - - -;
#X floatatom -286 -102 5 0 0 0 - - -;
#X floatatom -240 -85 5 0 0 0 - - -;
#X floatatom -201 -113 5 0 0 0 - - -;
#X floatatom -152 -92 5 0 0 0 - - -;
#X obj -400 -130 ctlin 0;
#X obj -346 -129 ctlin 1;
#X obj -298 -130 ctlin 2;
#X obj -252 -110 ctlin 3;
#X obj -213 -139 ctlin 4;
#X obj -164 -119 ctlin 5;
#X floatatom -106 -117 5 0 0 0 - - -;
#X floatatom -57 -96 5 0 0 0 - - -;
#X obj -118 -143 ctlin 6;
#X obj -69 -123 ctlin 7;
#X obj -433 -518 ctlin 16;
#X floatatom 355 49 5 0 0 0 - - -;
#X floatatom 408 49 5 0 0 0 - - -;
#X obj 355 67 r /b5;
#X obj 409 67 r /b6;
#X obj 359 23 ctlin 38;
#X obj 413 22 ctlin 39;
#X obj -360 -282 / 127;
#X obj -349 -263 * 0.02;
#X obj -307 -282 / 127;
#X obj -296 -263 * 0.02;
#X obj -253 -282 / 127;
#X obj -242 -263 * 0.02;
#X obj -199 -282 / 127;
#X obj -188 -263 * 0.02;
#X obj -145 -282 / 127;
#X obj -134 -263 * 0.02;
#X obj -91 -282 / 127;
#X obj -80 -263 * 0.02;
#X obj -37 -282 / 127;
#X obj -26 -263 * 0.02;
#X obj -349 -300 r /k2;
#X obj -296 -300 r /k3;
#X obj -242 -300 r /k4;
#X obj -188 -300 r /k5;
#X obj -134 -300 r /k6;
#X obj -80 -300 r /k7;
#X obj -26 -300 r /k8;
#X obj -359 -318 ctlin 17;
#X obj -306 -318 ctlin 18;
#X obj -253 -318 ctlin 19;
#X obj -198 -318 ctlin 20;
#X obj -144 -318 ctlin 21;
#X obj -90 -318 ctlin 22;
#X obj -36 -318 ctlin 23;
#X obj -349 -237 + 1;
#X obj -365 -213 *~;
#X obj -296 -237 + 1;
#X obj -312 -213 *~;
#X obj -242 -235 + 1;
#X obj -258 -211 *~;
#X obj -188 -238 + 1;
#X obj -204 -214 *~;
#X obj -134 -237 + 1;
#X obj -150 -213 *~;
#X obj -81 -237 + 1;
#X obj -97 -213 *~;
#X obj -27 -235 + 1;
#X obj -43 -211 *~;
#X obj -423 -463 * 4;
#X obj -423 -438 + 220;
#X obj -424 -415 + 1;
#X obj -419 -214 *~ 1;
#X obj -378 2 *~ 0.9;
#X obj -332 2 *~ 0.8;
#X obj -288 3 *~ 0.7;
#X obj -244 4 *~ 0.6;
#X obj -198 -2 *~ 0.5;
#X obj -154 -1 *~ 0.4;
#X obj 473 -241 unpackOSC;
#X obj 376 -266 import mrpeach;
#X floatatom 473 -197 5 0 0 0 - - -;
#X obj 473 -218 routeOSC /s1 /s2 /s3 /s4 /s5 /s6 /s7 /s8 /s9;
#X obj 473 -177 s s1;
#X floatatom 507 -197 5 0 0 0 - - -;
#X obj 507 -177 s s2;
#X floatatom 543 -197 5 0 0 0 - - -;
#X floatatom 577 -197 5 0 0 0 - - -;
#X obj 543 -177 s s3;
#X obj 577 -177 s s4;
#X floatatom 613 -196 5 0 0 0 - - -;
#X floatatom 647 -196 5 0 0 0 - - -;
#X floatatom 683 -196 5 0 0 0 - - -;
#X floatatom 717 -196 5 0 0 0 - - -;
#X obj 613 -176 s s5;
#X obj 647 -176 s s6;
#X obj 683 -176 s s7;
#X obj 717 -176 s s8;
#X floatatom 753 -196 5 0 0 0 - - -;
#X obj 753 -176 s s9;
#X floatatom 451 -128 5 0 0 0 - - -;
#X floatatom 485 -128 5 0 0 0 - - -;
#X floatatom 521 -128 5 0 0 0 - - -;
#X floatatom 555 -128 5 0 0 0 - - -;
#X floatatom 591 -127 5 0 0 0 - - -;
#X floatatom 625 -127 5 0 0 0 - - -;
#X floatatom 661 -127 5 0 0 0 - - -;
#X floatatom 695 -127 5 0 0 0 - - -;
#X floatatom 731 -127 5 0 0 0 - - -;
#X obj 451 -149 routeOSC /k1 /k2 /k3 /k4 /k5 /k6 /k7 /k8 /k9;
#X obj 451 -108 s k1;
#X obj 485 -108 s k2;
#X obj 521 -108 s k3;
#X obj 555 -108 s k4;
#X obj 591 -107 s k5;
#X obj 625 -107 s k6;
#X obj 661 -107 s k7;
#X obj 695 -107 s k8;
#X obj 731 -107 s k9;
#X obj 422 -78 routeOSC /b1 /b2 /b3 /b4 /b5 /b6 /b7 /b8 /b9;
#X obj 422 -37 s b1;
#X text 637 -263 <-- Change the IP Address to your laptop's IP address
;
#X obj 422 -57 bng 15 250 50 0 empty empty empty 17 7 0 10 -262144
-1 -1;
#X obj 455 -57 bng 15 250 50 0 empty empty empty 17 7 0 10 -262144
-1 -1;
#X obj 487 -57 bng 15 250 50 0 empty empty empty 17 7 0 10 -262144
-1 -1;
#X obj 518 -57 bng 15 250 50 0 empty empty empty 17 7 0 10 -262144
-1 -1;
#X obj 551 -57 bng 15 250 50 0 empty empty empty 17 7 0 10 -262144
-1 -1;
#X obj 583 -57 bng 15 250 50 0 empty empty empty 17 7 0 10 -262144
-1 -1;
#X obj 616 -58 bng 15 250 50 0 empty empty empty 17 7 0 10 -262144
-1 -1;
#X obj 649 -58 bng 15 250 50 0 empty empty empty 17 7 0 10 -262144
-1 -1;
#X obj 681 -58 bng 15 250 50 0 empty empty empty 17 7 0 10 -262144
-1 -1;
#X obj 455 -37 s b2;
#X obj 487 -37 s b3;
#X obj 518 -37 s b4;
#X obj 551 -37 s b5;
#X obj 583 -37 s b6;
#X obj 616 -38 s b7;
#X obj 649 -38 s b8;
#X obj 681 -38 s b9;
#X text 422 -219 SLIDERS;
#X text 412 -147 KNOBS;
#X text 376 -75 BUTTONS;
#X obj -252 293 dac~;
#X obj -186 122 dac~;
#X msg 246 142 3000;
#X msg 296 142 3000;
#X msg 346 142 3000;
#X msg 396 142 3000;
#X msg 196 142 3000;
#X msg 146 142 3000;
#X msg 96 142 3000;
#X msg 46 142 3000;
#X obj -64 0 *~ 0.1;
#X obj -108 1 *~ 0.2;
#X obj -192 90 *~ 0.005;
#X obj -258 261 *~ 0.02;
#X obj 474 -265 udpreceive 3001;
#X obj 333 -381 loadbang;
#X msg 333 -335 \; pd dsp 1 \;;
#X obj 390 -382 s lb;
#X obj 333 -358 delay 2000;
#X connect 0 0 15 0;
#X connect 1 0 17 0;
#X connect 2 0 18 0;
#X connect 3 0 19 0;
#X connect 4 0 20 0;
#X connect 5 0 21 0;
#X connect 6 0 22 0;
#X connect 7 0 144 0;
#X connect 8 0 146 0;
#X connect 9 0 148 0;
#X connect 10 0 150 0;
#X connect 11 0 152 0;
#X connect 12 0 154 0;
#X connect 13 0 16 0;
#X connect 14 0 142 0;
#X connect 15 0 240 0;
#X connect 16 0 240 0;
#X connect 17 0 240 0;
#X connect 18 0 240 0;
#X connect 19 0 240 0;
#X connect 20 0 240 0;
#X connect 21 0 240 0;
#X connect 22 0 240 0;
#X connect 23 0 155 0;
#X connect 24 0 155 0;
#X connect 25 0 56 0;
#X connect 26 0 58 0;
#X connect 27 0 59 0;
#X connect 28 0 60 0;
#X connect 29 0 61 0;
#X connect 30 0 62 0;
#X connect 31 0 63 0;
#X connect 32 0 26 0;
#X connect 33 0 27 0;
#X connect 34 0 28 0;
#X connect 35 0 29 0;
#X connect 36 0 30 0;
#X connect 37 0 31 0;
#X connect 38 0 57 0;
#X connect 39 0 38 0;
#X connect 40 0 56 1;
#X connect 41 0 40 0;
#X connect 41 1 237 0;
#X connect 42 0 57 1;
#X connect 43 0 42 0;
#X connect 43 1 236 0;
#X connect 44 0 58 1;
#X connect 45 0 44 0;
#X connect 45 1 235 0;
#X connect 46 0 59 1;
#X connect 47 0 46 0;
#X connect 47 1 234 0;
#X connect 48 0 60 1;
#X connect 49 0 48 0;
#X connect 49 1 230 0;
#X connect 50 0 61 1;
#X connect 51 0 50 0;
#X connect 51 1 231 0;
#X connect 52 0 62 1;
#X connect 53 0 52 0;
#X connect 53 1 232 0;
#X connect 54 0 63 1;
#X connect 55 0 54 0;
#X connect 55 1 233 0;
#X connect 56 0 241 0;
#X connect 57 0 241 0;
#X connect 58 0 241 0;
#X connect 59 0 241 0;
#X connect 60 0 241 0;
#X connect 61 0 241 0;
#X connect 62 0 241 0;
#X connect 63 0 241 0;
#X connect 64 0 41 0;
#X connect 65 0 41 0;
#X connect 65 0 66 0;
#X connect 68 0 43 0;
#X connect 69 0 67 0;
#X connect 69 0 43 0;
#X connect 71 0 70 0;
#X connect 71 0 45 0;
#X connect 72 0 45 0;
#X connect 73 0 159 0;
#X connect 74 0 160 0;
#X connect 75 0 161 0;
#X connect 76 0 162 0;
#X connect 77 0 163 0;
#X connect 78 0 164 0;
#X connect 79 0 239 0;
#X connect 80 0 238 0;
#X connect 83 0 51 0;
#X connect 84 0 81 0;
#X connect 84 0 47 0;
#X connect 85 0 82 0;
#X connect 85 0 49 0;
#X connect 86 0 83 0;
#X connect 86 0 51 0;
#X connect 87 0 47 0;
#X connect 88 0 49 0;
#X connect 89 0 51 0;
#X connect 90 0 159 0;
#X connect 91 0 160 0;
#X connect 92 0 161 0;
#X connect 93 0 162 0;
#X connect 94 0 163 0;
#X connect 95 0 164 0;
#X connect 96 0 90 0;
#X connect 97 0 91 0;
#X connect 98 0 92 0;
#X connect 99 0 93 0;
#X connect 100 0 94 0;
#X connect 101 0 95 0;
#X connect 102 0 239 0;
#X connect 103 0 238 0;
#X connect 104 0 102 0;
#X connect 105 0 103 0;
#X connect 106 0 24 0;
#X connect 107 0 53 0;
#X connect 108 0 55 0;
#X connect 109 0 53 0;
#X connect 110 0 55 0;
#X connect 111 0 107 0;
#X connect 112 0 108 0;
#X connect 113 0 114 0;
#X connect 114 0 141 0;
#X connect 115 0 116 0;
#X connect 116 0 143 0;
#X connect 117 0 118 0;
#X connect 118 0 145 0;
#X connect 119 0 120 0;
#X connect 120 0 147 0;
#X connect 121 0 122 0;
#X connect 122 0 149 0;
#X connect 123 0 124 0;
#X connect 124 0 151 0;
#X connect 125 0 126 0;
#X connect 126 0 153 0;
#X connect 127 0 114 0;
#X connect 128 0 116 0;
#X connect 129 0 118 0;
#X connect 130 0 120 0;
#X connect 131 0 122 0;
#X connect 132 0 124 0;
#X connect 133 0 126 0;
#X connect 134 0 113 0;
#X connect 135 0 115 0;
#X connect 136 0 117 0;
#X connect 137 0 119 0;
#X connect 138 0 121 0;
#X connect 139 0 123 0;
#X connect 140 0 125 0;
#X connect 141 0 142 1;
#X connect 142 0 13 0;
#X connect 143 0 144 1;
#X connect 144 0 1 0;
#X connect 145 0 146 1;
#X connect 146 0 2 0;
#X connect 147 0 148 1;
#X connect 148 0 3 0;
#X connect 149 0 150 1;
#X connect 150 0 4 0;
#X connect 151 0 152 1;
#X connect 152 0 5 0;
#X connect 153 0 154 1;
#X connect 154 0 6 0;
#X connect 155 0 156 0;
#X connect 156 0 157 0;
#X connect 157 0 14 0;
#X connect 157 0 7 0;
#X connect 157 0 8 0;
#X connect 157 0 9 0;
#X connect 157 0 10 0;
#X connect 157 0 11 0;
#X connect 157 0 12 0;
#X connect 157 0 25 0;
#X connect 157 0 39 0;
#X connect 157 0 32 0;
#X connect 157 0 33 0;
#X connect 157 0 34 0;
#X connect 157 0 35 0;
#X connect 157 0 36 0;
#X connect 157 0 37 0;
#X connect 157 0 158 0;
#X connect 158 0 0 0;
#X connect 159 0 15 1;
#X connect 160 0 16 1;
#X connect 161 0 17 1;
#X connect 162 0 18 1;
#X connect 163 0 19 1;
#X connect 164 0 20 1;
#X connect 165 0 168 0;
#X connect 165 0 195 0;
#X connect 165 0 205 0;
#X connect 167 0 169 0;
#X connect 168 0 167 0;
#X connect 168 1 170 0;
#X connect 168 2 172 0;
#X connect 168 3 173 0;
#X connect 168 4 176 0;
#X connect 168 5 177 0;
#X connect 168 6 178 0;
#X connect 168 7 179 0;
#X connect 168 8 184 0;
#X connect 170 0 171 0;
#X connect 172 0 174 0;
#X connect 173 0 175 0;
#X connect 176 0 180 0;
#X connect 177 0 181 0;
#X connect 178 0 182 0;
#X connect 179 0 183 0;
#X connect 184 0 185 0;
#X connect 186 0 196 0;
#X connect 187 0 197 0;
#X connect 188 0 198 0;
#X connect 189 0 199 0;
#X connect 190 0 200 0;
#X connect 191 0 201 0;
#X connect 192 0 202 0;
#X connect 193 0 203 0;
#X connect 194 0 204 0;
#X connect 195 0 186 0;
#X connect 195 1 187 0;
#X connect 195 2 188 0;
#X connect 195 3 189 0;
#X connect 195 4 190 0;
#X connect 195 5 191 0;
#X connect 195 6 192 0;
#X connect 195 7 193 0;
#X connect 195 8 194 0;
#X connect 205 0 208 0;
#X connect 205 1 209 0;
#X connect 205 2 210 0;
#X connect 205 3 211 0;
#X connect 205 4 212 0;
#X connect 205 5 213 0;
#X connect 205 6 214 0;
#X connect 205 7 215 0;
#X connect 205 8 216 0;
#X connect 208 0 206 0;
#X connect 209 0 217 0;
#X connect 210 0 218 0;
#X connect 211 0 219 0;
#X connect 212 0 220 0;
#X connect 213 0 221 0;
#X connect 214 0 222 0;
#X connect 215 0 223 0;
#X connect 216 0 224 0;
#X connect 230 0 48 1;
#X connect 231 0 50 1;
#X connect 232 0 52 1;
#X connect 233 0 54 1;
#X connect 234 0 46 1;
#X connect 235 0 44 1;
#X connect 236 0 42 1;
#X connect 237 0 40 1;
#X connect 238 0 22 1;
#X connect 239 0 21 1;
#X connect 240 0 229 0;
#X connect 240 0 229 1;
#X connect 241 0 228 0;
#X connect 241 0 228 1;
#X connect 242 0 165 0;
#X connect 243 0 245 0;
#X connect 243 0 246 0;
#X connect 246 0 244 0;
