#N canvas 866 302 450 300 10;
#X obj 2 47 slider 127 0 15;
#X obj 173 129 mtof;
#X obj 173 163 osc~;
#X obj 165 229 dac~;
#X obj 96 106 + 200;
#X connect 0 0 1 0;
#X connect 1 0 4 0;
#X connect 2 0 3 0;
#X connect 2 0 3 1;
#X connect 4 0 2 0;
